<?xml version="1.0" encoding="utf-8"?>
<!-- Generator: Adobe Illustrator 19.1.1, SVG Export Plug-In . SVG Version: 6.00 Build 0)  -->
<svg version="1.1" id="Слой_1" xmlns="http://www.w3.org/2000/svg" xmlns:xlink="http://www.w3.org/1999/xlink" x="0px" y="0px"
	 width="260px" height="40px" viewBox="0 0 260 40" style="enable-background:new 0 0 260 40;" xml:space="preserve">
<style type="text/css">
	.st0{fill:#631212;}
	.st1{fill:#FFFFFF;}
</style>
<g>
	<path class="st0" d="M53.8,28.4V10.9h4c1.4,0,2.4,0.4,3.1,1.1c0.7,0.7,1,1.8,1,3.2v2.3c0,1.4-0.3,2.5-1,3.2s-1.7,1.1-3.1,1.1h-1.3
		v6.6H53.8z M56.6,19.4h1.3c0.5,0,0.8-0.1,1-0.4c0.2-0.3,0.3-0.7,0.3-1.3v-2.6c0-0.6-0.1-1-0.3-1.3c-0.2-0.2-0.6-0.4-1-0.4h-1.3
		V19.4z"/>
	<path class="st0" d="M63.3,28.4V10.9h7.5v2.5H66v4.9h3.8v2.5H66v5.1h4.7v2.5H63.3z"/>
	<path class="st0" d="M72.2,22.2v-4.8c0-1.4,0.3-2.5,1-3.2c0.7-0.7,1.7-1.1,3.1-1.1h1v-2.1h2.7v2.1h1c1.4,0,2.4,0.4,3.1,1.1
		c0.7,0.7,1,1.8,1,3.2v4.8c0,1.4-0.3,2.5-1,3.2c-0.7,0.7-1.7,1.1-3.1,1.1h-1v2h-2.7v-2h-1c-1.4,0-2.4-0.4-3.1-1.1
		C72.6,24.6,72.2,23.6,72.2,22.2z M75,22.3c0,1.2,0.5,1.8,1.4,1.8h1v-8.6h-1c-0.5,0-0.8,0.1-1,0.4c-0.2,0.3-0.3,0.7-0.3,1.3V22.3z
		 M80.1,24.1h1c0.9,0,1.4-0.6,1.4-1.8v-5.1c0-1.1-0.5-1.7-1.4-1.7h-1V24.1z"/>
	<path class="st0" d="M86.8,24.2v-9.1c0-1.4,0.4-2.5,1.1-3.2c0.7-0.8,1.8-1.1,3.1-1.1c1.3,0,2.4,0.4,3.1,1.1
		c0.7,0.8,1.1,1.8,1.1,3.2v9.1c0,1.4-0.4,2.5-1.1,3.2c-0.7,0.8-1.7,1.1-3.1,1.1c-1.3,0-2.4-0.4-3.1-1.1
		C87.1,26.7,86.8,25.6,86.8,24.2z M89.5,24.4c0,1.2,0.5,1.7,1.4,1.7c0.9,0,1.4-0.6,1.4-1.7V15c0-1.1-0.5-1.7-1.4-1.7
		c-1,0-1.4,0.6-1.4,1.7V24.4z"/>
	<path class="st0" d="M96.9,28.4V10.9h4c1.4,0,2.4,0.4,3.1,1.1c0.7,0.7,1,1.8,1,3.2v2.3c0,1.4-0.3,2.5-1,3.2s-1.7,1.1-3.1,1.1h-1.3
		v6.6H96.9z M99.7,19.4h1.3c0.5,0,0.8-0.1,1-0.4c0.2-0.3,0.3-0.7,0.3-1.3v-2.6c0-0.6-0.1-1-0.3-1.3c-0.2-0.2-0.6-0.4-1-0.4h-1.3
		V19.4z"/>
	<path class="st0" d="M106.3,28.4V10.9h3.8l2,12.5l1.9-12.5h4v17.5h-2.7V15.9l-1.9,12.5h-2.6l-2.1-12.3v12.3H106.3z"/>
	<path class="st0" d="M119.1,28.4l2.8-17.5h4.2l2.8,17.5h-2.7l-0.5-3.2h-3.4l-0.5,3.2H119.1z M122.7,22.9h2.7l-1.3-8.8L122.7,22.9z"
		/>
	<path class="st0" d="M129.2,13.4v-2.5h8.5v2.5h-2.9v15h-2.7v-15H129.2z"/>
	<path class="st0" d="M138.7,24.2v-9.1c0-1.4,0.3-2.5,1-3.3c0.7-0.8,1.7-1.1,3.1-1.1c1.3,0,2.4,0.4,3.1,1.1c0.7,0.8,1.1,1.8,1.1,3.3
		v1.7h-2.7V15c0-1.1-0.5-1.7-1.4-1.7c-1,0-1.4,0.6-1.4,1.7v9.4c0,1.1,0.5,1.7,1.4,1.7c0.9,0,1.4-0.6,1.4-1.7v-2.5h2.7v2.3
		c0,1.4-0.4,2.5-1.1,3.3c-0.7,0.8-1.8,1.1-3.1,1.1c-1.3,0-2.4-0.4-3.1-1.1C139,26.7,138.7,25.7,138.7,24.2z"/>
	<path class="st0" d="M148.6,28.4V10.9h2.7v7.6l3.6-7.6h2.7l-3.8,7.8l3.8,9.7h-2.8l-2.7-7l-0.9,1.6v5.4H148.6z"/>
	<path class="st0" d="M158.9,28.4V10.9h2.5V22l1-3.9l2.2-7.2h3.3v17.5h-2.7V16.1l-1.1,4.3l-2.3,8H158.9z"/>
	<path class="st0" d="M169.6,11h2.5V22l1-3.9l2.2-7.2h3v17.5h-2.5l0.1-12.3l-1.1,4.3l-2.4,8h-2.8V11z M171.8,9.1
		c0.5,0.5,1.2,0.7,2.1,0.7c1,0,1.7-0.2,2.2-0.7c0.5-0.5,0.7-1.2,0.7-2h-1.7c0,0.4-0.2,0.7-0.4,0.9c-0.2,0.2-0.5,0.2-0.9,0.2
		c-0.4,0-0.7-0.1-0.8-0.2c-0.2-0.2-0.3-0.5-0.3-0.9h-1.7C171.1,7.9,171.4,8.6,171.8,9.1z"/>
	<path class="st0" d="M184.2,28.4V10.9h4.2c1.4,0,2.4,0.3,3.1,1c0.7,0.7,1,1.7,1,3v0.6c0,1.8-0.6,3-1.8,3.5c1.4,0.5,2.1,1.8,2.1,3.7
		v1.4c0,1.4-0.4,2.4-1.1,3.1c-0.7,0.7-1.7,1.1-3.1,1.1H184.2z M186.9,18.1h1.1c0.5,0,1-0.1,1.2-0.4c0.3-0.3,0.4-0.8,0.4-1.4v-1
		c0-0.6-0.1-1.1-0.3-1.4c-0.2-0.3-0.6-0.4-1.1-0.4h-1.3V18.1z M186.9,25.9h1.6c0.5,0,0.8-0.1,1.1-0.4c0.2-0.3,0.4-0.7,0.4-1.3v-1.5
		c0-0.8-0.1-1.4-0.4-1.7c-0.3-0.3-0.7-0.5-1.4-0.5h-1.2V25.9z"/>
	<path class="st0" d="M194.2,24.2v-1.9h2.7v2.1c0,1.2,0.5,1.7,1.4,1.7c0.5,0,0.8-0.1,1.1-0.4c0.2-0.3,0.4-0.8,0.4-1.5v-1.4
		c0-0.8-0.1-1.4-0.4-1.7c-0.3-0.3-0.7-0.5-1.4-0.5h-0.7v-2.5h0.8c0.5,0,1-0.1,1.2-0.4c0.3-0.3,0.4-0.8,0.4-1.4v-1
		c0-0.7-0.1-1.3-0.4-1.6c-0.2-0.3-0.6-0.4-1.1-0.4c-1,0-1.4,0.6-1.4,1.7v1.4h-2.7v-1.3c0-1.4,0.4-2.5,1.1-3.2
		c0.7-0.7,1.8-1.1,3.1-1.1c1.3,0,2.4,0.4,3.1,1.1c0.7,0.8,1,1.8,1,3.3v0.5c0,1.9-0.6,3.1-1.9,3.6c1.3,0.6,1.9,1.8,1.9,3.7v1.4
		c0,1.4-0.3,2.5-1,3.3c-0.7,0.8-1.7,1.1-3.1,1.1c-1.3,0-2.4-0.4-3.1-1.1C194.5,26.7,194.2,25.7,194.2,24.2z"/>
	<path class="st0" d="M204.2,28.4V10.9h7.3v2.5H207v15H204.2z"/>
	<path class="st0" d="M212.6,28.5V26c0.3,0,0.6,0,0.8,0c0.2,0,0.3-0.1,0.5-0.2c0.1-0.1,0.2-0.3,0.3-0.5c0.1-0.2,0.1-0.6,0.1-1
		l0.3-13.2h7.9v17.5h-2.7v-15h-2.4L217,24c0,1.6-0.4,2.7-1,3.4c-0.6,0.7-1.6,1-3,1H212.6z"/>
	<path class="st0" d="M224.1,28.4c0.2-0.5,0.3-1.2,0.3-2.1v-2.7c0-1,0.1-1.8,0.4-2.4c0.3-0.6,0.7-1.1,1.4-1.3
		c-1.2-0.6-1.8-1.7-1.8-3.6V15c0-1.4,0.3-2.4,1-3c0.7-0.7,1.7-1,3.1-1h4.2v17.5h-2.7v-7.1h-1c-0.6,0-1.1,0.2-1.4,0.5
		c-0.3,0.3-0.4,0.9-0.4,1.7v2.7c0,0.4,0,0.8,0,1.1c0,0.3-0.1,0.5-0.1,0.6s-0.1,0.3-0.1,0.5H224.1z M227.1,17c0,0.7,0.1,1.2,0.4,1.4
		c0.3,0.3,0.7,0.4,1.2,0.4h1.1v-5.4h-1.3c-0.5,0-0.8,0.1-1.1,0.4c-0.2,0.3-0.3,0.7-0.3,1.4V17z"/>
	<path class="st0" d="M233.9,30.8V26h1.1c0.2-0.3,0.4-0.6,0.5-0.9c0.1-0.3,0.2-0.8,0.2-1.3l0.5-12.8h7.8v15h1.2v4.8h-2.7v-2.3h-5.8
		v2.3H233.9z M237.7,26h3.6V13.4H239l-0.5,10.2c0,0.6-0.1,1.1-0.2,1.5S238,25.7,237.7,26z"/>
</g>
<g>
	<g>
		<path class="st0" d="M14.3,36.2l-11-11c-3.1-3.1-3.1-8.2,0-11.3l11-11c3.1-3.1,8.2-3.1,11.3,0l11,11c3.1,3.1,3.1,8.2,0,11.3
			l-11,11C22.5,39.4,17.4,39.4,14.3,36.2z"/>
		<path id="XMLID_22_" class="st1" d="M13,30.6L9.4,27c-3.8-3.8-3.8-10.1,0-13.9L13,9.4c3.8-3.8,10.1-3.8,13.9,0l3.6,3.6
			c3.8,3.8,3.8,10.1,0,13.9l-3.6,3.6C23.1,34.5,16.9,34.5,13,30.6z"/>
	</g>
	<g>
		<path class="st0" d="M15.9,24.3l-5.7-5.7l2.5-2.5l0.8,0.8l-1.6,1.6l1.5,1.5l0.5-0.5c0.4-0.4,0.9-0.7,1.4-0.7
			c0.5,0,0.9,0.2,1.4,0.7l0.6,0.6c0.5,0.5,0.7,0.9,0.7,1.4c0,0.5-0.2,0.9-0.7,1.4L15.9,24.3z M16,22.6l0.5-0.5
			c0.2-0.2,0.2-0.3,0.2-0.5c0-0.2-0.1-0.3-0.3-0.5l-0.7-0.7c-0.2-0.2-0.4-0.3-0.5-0.3c-0.2,0-0.3,0.1-0.5,0.2l-0.5,0.5L16,22.6z"/>
		<path class="st0" d="M19.3,21l-5.7-5.7l2.4-2.4l0.8,0.8l-1.5,1.5l1.6,1.6l1.2-1.2l0.8,0.8l-1.2,1.2l1.7,1.7l1.5-1.5l0.8,0.8
			L19.3,21z"/>
		<path class="st0" d="M20.9,16.6L20.3,16l0.9-0.9l0.7,0.7c0.4,0.4,0.7,0.4,1,0.1c0.2-0.2,0.2-0.3,0.2-0.5c0-0.2-0.1-0.4-0.4-0.6
			l-0.5-0.4c-0.3-0.3-0.5-0.4-0.7-0.4c-0.2,0-0.4,0.1-0.6,0.3l-0.2,0.2l-0.8-0.8l0.3-0.3c0.2-0.2,0.3-0.4,0.3-0.5
			c0-0.2-0.1-0.4-0.3-0.6l-0.3-0.3c-0.2-0.2-0.5-0.4-0.6-0.4c-0.2,0-0.3,0.1-0.5,0.2c-0.3,0.3-0.3,0.7,0.1,1l0.5,0.5l-0.9,0.9
			l-0.4-0.4c-0.5-0.5-0.7-0.9-0.7-1.4c0-0.5,0.2-0.9,0.6-1.4c0.4-0.4,0.9-0.6,1.4-0.6c0.5,0,0.9,0.3,1.4,0.7l0.1,0.1
			c0.6,0.6,0.8,1.2,0.5,1.8c0.6-0.2,1.2,0,1.8,0.6l0.5,0.4c0.5,0.5,0.7,0.9,0.7,1.4c0,0.5-0.2,0.9-0.6,1.4c-0.4,0.4-0.9,0.7-1.4,0.6
			C21.8,17.3,21.3,17.1,20.9,16.6z"/>
		<path class="st0" d="M20.7,29.8L20,29.2c0.1-0.1,0.1-0.2,0.2-0.2s0.1-0.1,0.1-0.2c0-0.1,0-0.1-0.1-0.2c0-0.1-0.1-0.2-0.2-0.3
			L16.9,25l1.9-1.9l4.3,4.3l-0.7,0.7l-3.7-3.7L18.1,25l2.5,2.7c0.4,0.4,0.6,0.8,0.6,1.1c0,0.3-0.1,0.6-0.5,1L20.7,29.8z"/>
		<path class="st0" d="M22.5,25.9l-2.2-2.2c-0.3-0.3-0.5-0.7-0.5-1.1c0-0.4,0.1-0.7,0.5-1c0.3-0.3,0.7-0.5,1-0.5
			c0.4,0,0.7,0.2,1.1,0.5l2.2,2.2c0.3,0.3,0.5,0.7,0.5,1.1c0,0.4-0.1,0.7-0.5,1c-0.3,0.3-0.7,0.5-1,0.5
			C23.2,26.4,22.8,26.3,22.5,25.9z M23.2,25.3c0.3,0.3,0.5,0.3,0.8,0.1c0.2-0.2,0.2-0.5-0.1-0.8l-2.3-2.3c-0.3-0.3-0.5-0.3-0.8-0.1
			c-0.2,0.2-0.2,0.5,0.1,0.8L23.2,25.3z"/>
		<path class="st0" d="M26,24.5l-4.3-4.3l1.8-1.8l0.6,0.6L23,20.1l3.7,3.7L26,24.5z"/>
		<path class="st0" d="M27.2,21.3L24.9,19c-0.3-0.3-0.5-0.7-0.5-1.1c0-0.4,0.1-0.7,0.5-1c0.3-0.3,0.7-0.5,1-0.5
			c0.4,0,0.7,0.2,1.1,0.5l2.2,2.2c0.3,0.3,0.5,0.7,0.5,1.1c0,0.4-0.1,0.7-0.5,1s-0.7,0.5-1,0.5C27.8,21.8,27.5,21.6,27.2,21.3z
			 M27.9,20.6c0.3,0.3,0.5,0.3,0.8,0.1c0.2-0.2,0.2-0.5-0.1-0.8l-2.3-2.3c-0.3-0.3-0.5-0.3-0.8-0.1c-0.2,0.2-0.2,0.5,0.1,0.8
			L27.9,20.6z"/>
	</g>
</g>
</svg>
