<?xml version="1.0" encoding="utf-8"?>
<!-- Generator: Adobe Illustrator 21.0.0, SVG Export Plug-In . SVG Version: 6.00 Build 0)  -->
<svg version="1.1" id="Слой_1" xmlns="http://www.w3.org/2000/svg" xmlns:xlink="http://www.w3.org/1999/xlink" x="0px" y="0px"
	 width="330px" height="50px" viewBox="0 0 330 50" style="enable-background:new 0 0 330 50;" xml:space="preserve">
<style type="text/css">
	.st0{fill:#451414;}
	.st1{fill:#FFFFFF;}
</style>
<circle class="st0" cx="25.5" cy="25" r="24.5"/>
<g>
	<g>
		<polygon class="st1" points="10.2,17.2 7.6,16.8 7.7,34.1 21.2,36.8 10.1,31.9 		"/>
		<polygon class="st1" points="14.4,15 11.7,13.7 11.8,30.8 22.9,35.9 14.3,30 		"/>
		<polygon class="st1" points="39.3,13.7 36.6,15 36.6,30 28.1,35.9 39.2,30.8 		"/>
		<polygon class="st1" points="40.7,17.2 40.8,31.9 29.8,36.8 43.2,34.1 43.3,16.8 		"/>
	</g>
</g>
<polygon class="st1" points="34.2,15.4 26.4,15.4 26.4,7.7 24.5,7.7 24.5,15.4 16.7,15.4 16.7,17.3 24.5,17.3 24.5,41.5 26.4,41.5 
	26.4,17.3 34.2,17.3 "/>
<g>
	<path class="st0" d="M61.9,36.3V13.9H67c1.7,0,3,0.5,3.9,1.4c0.9,0.9,1.3,2.3,1.3,4.1v2.9c0,1.8-0.4,3.2-1.3,4.1
		c-0.9,0.9-2.2,1.4-3.9,1.4h-1.7v8.4H61.9z M65.4,24.7h1.7c0.6,0,1-0.2,1.3-0.5c0.3-0.3,0.4-0.9,0.4-1.6v-3.4c0-0.8-0.1-1.3-0.4-1.6
		c-0.3-0.3-0.7-0.5-1.3-0.5h-1.7V24.7z"/>
	<path class="st0" d="M73.9,36.3V13.9h9.6v3.2h-6.1v6.3h4.8v3.2h-4.8v6.6h6.1v3.2H73.9z"/>
	<path class="st0" d="M85.4,28.2v-6.1c0-1.8,0.4-3.2,1.3-4.1c0.9-0.9,2.2-1.4,3.9-1.4H92v-2.8h3.5v2.8h1.3c1.7,0,3.1,0.5,3.9,1.4
		c0.9,0.9,1.3,2.3,1.3,4.1v6.1c0,1.8-0.4,3.2-1.3,4.1c-0.9,0.9-2.2,1.4-3.9,1.4h-1.3v2.5H92v-2.5h-1.3c-1.7,0-3-0.5-3.9-1.4
		C85.8,31.4,85.4,30,85.4,28.2z M88.9,28.5c0,1.5,0.6,2.3,1.7,2.3H92v-11h-1.3c-0.6,0-1,0.2-1.3,0.5c-0.3,0.3-0.4,0.9-0.4,1.7V28.5z
		 M95.5,30.7h1.3c1.2,0,1.8-0.8,1.8-2.3v-6.6c0-1.5-0.6-2.2-1.8-2.2h-1.3V30.7z"/>
	<path class="st0" d="M104,30.9V19.3c0-1.8,0.5-3.2,1.4-4.2c0.9-1,2.2-1.5,4-1.5c1.7,0,3,0.5,4,1.5c0.9,1,1.4,2.4,1.4,4.2v11.7
		c0,1.8-0.5,3.2-1.4,4.2s-2.2,1.5-4,1.5c-1.7,0-3-0.5-4-1.5C104.5,34.1,104,32.7,104,30.9z M107.6,31.1c0,1.5,0.6,2.2,1.8,2.2
		c1.2,0,1.8-0.7,1.8-2.2V19c0-1.5-0.6-2.2-1.8-2.2c-1.2,0-1.8,0.7-1.8,2.2V31.1z"/>
	<path class="st0" d="M117,36.3V13.9h5.2c1.7,0,3,0.5,3.9,1.4c0.9,0.9,1.3,2.3,1.3,4.1v2.9c0,1.8-0.4,3.2-1.3,4.1
		c-0.9,0.9-2.2,1.4-3.9,1.4h-1.7v8.4H117z M120.5,24.7h1.7c0.6,0,1-0.2,1.3-0.5c0.3-0.3,0.4-0.9,0.4-1.6v-3.4c0-0.8-0.1-1.3-0.4-1.6
		c-0.3-0.3-0.7-0.5-1.3-0.5h-1.7V24.7z"/>
	<path class="st0" d="M129,36.3V13.9h4.9l2.6,16l2.4-16h5.1v22.4h-3.5V20.2l-2.4,16.1h-3.3l-2.6-15.8v15.8H129z"/>
	<path class="st0" d="M145.4,36.3l3.6-22.4h5.4l3.6,22.4h-3.5l-0.6-4.1h-4.3l-0.6,4.1H145.4z M150,29.2h3.4l-1.7-11.3L150,29.2z"/>
	<path class="st0" d="M158.3,17.1v-3.2h10.9v3.2h-3.7v19.2H162V17.1H158.3z"/>
	<path class="st0" d="M170.5,30.9V19.3c0-1.8,0.4-3.2,1.3-4.2c0.9-1,2.2-1.5,3.9-1.5s3.1,0.5,4,1.5c0.9,1,1.4,2.4,1.4,4.2v2.2h-3.5
		V19c0-1.5-0.6-2.2-1.8-2.2c-1.2,0-1.8,0.7-1.8,2.2v12.1c0,1.5,0.6,2.2,1.8,2.2c1.2,0,1.8-0.7,1.8-2.2v-3.2h3.5v3
		c0,1.8-0.5,3.2-1.4,4.2c-0.9,1-2.3,1.5-4,1.5s-3-0.5-3.9-1.5C170.9,34.1,170.5,32.7,170.5,30.9z"/>
	<path class="st0" d="M183.1,36.3V13.9h3.5v8.4h1.7c1.7,0,3,0.5,3.9,1.4c0.9,0.9,1.3,2.3,1.3,4.1v2.9c0,1.8-0.4,3.2-1.3,4.1
		s-2.2,1.4-3.9,1.4H183.1z M186.6,33.1h1.7c0.6,0,1-0.2,1.3-0.5s0.4-0.9,0.4-1.6v-3.4c0-0.8-0.1-1.3-0.4-1.6
		c-0.3-0.3-0.7-0.5-1.3-0.5h-1.7V33.1z"/>
	<path class="st0" d="M195.6,36.3V13.9h3.5v9.8l4.6-9.8h3.5l-4.9,10l4.9,12.4h-3.6l-3.4-8.9l-1.1,2v6.9H195.6z"/>
	<path class="st0" d="M208.9,36.3V13.9h3.1v14.2l1.3-4.9l2.9-9.3h4.2v22.4h-3.5V20.6l-1.4,5.5l-3,10.3H208.9z"/>
	<path class="st0" d="M222.5,13.9h3.1v14.2l1.3-4.9l2.9-9.2h3.9v22.4h-3.2l0.1-15.8l-1.4,5.5l-3.1,10.2h-3.6V13.9z M225.5,11.5
		c0.6,0.6,1.5,0.9,2.7,0.9c1.2,0,2.2-0.3,2.8-0.9c0.6-0.6,1-1.5,1-2.6h-2.1c0,0.6-0.2,0.9-0.5,1.2c-0.3,0.2-0.6,0.3-1.2,0.3
		c-0.5,0-0.9-0.1-1.1-0.3c-0.2-0.2-0.4-0.6-0.4-1.2h-2.2C224.5,10,224.8,10.9,225.5,11.5z"/>
	<path class="st0" d="M241.2,36.3V13.9h11v22.4h-3.5V17.1h-4v19.2H241.2z"/>
	<path class="st0" d="M254.6,30.9V19.3c0-1.8,0.5-3.2,1.4-4.2c0.9-1,2.2-1.5,4-1.5s3,0.5,4,1.5c0.9,1,1.4,2.4,1.4,4.2v11.7
		c0,1.8-0.5,3.2-1.4,4.2s-2.2,1.5-4,1.5s-3-0.5-4-1.5C255,34.1,254.6,32.7,254.6,30.9z M258.1,31.1c0,1.5,0.6,2.2,1.8,2.2
		c1.2,0,1.8-0.7,1.8-2.2V19c0-1.5-0.6-2.2-1.8-2.2c-1.2,0-1.8,0.7-1.8,2.2V31.1z"/>
	<path class="st0" d="M267.6,36.3V13.9h9.3v3.2h-5.8v19.2H267.6z"/>
	<path class="st0" d="M278.2,36.3v-3.2c0.4,0,0.8,0,1-0.1s0.4-0.1,0.6-0.3c0.2-0.2,0.3-0.4,0.4-0.7s0.1-0.7,0.1-1.2l0.4-16.9h10.1
		v22.4h-3.5V17.1h-3l-0.4,13.5c-0.1,2-0.5,3.5-1.3,4.4s-2.1,1.3-3.8,1.3H278.2z"/>
	<path class="st0" d="M293,36.3c0.2-0.6,0.3-1.5,0.3-2.7v-3.5c0-1.2,0.2-2.3,0.5-3c0.4-0.8,1-1.4,1.8-1.7c-1.5-0.7-2.3-2.2-2.3-4.5
		V19c0-1.8,0.4-3,1.3-3.9c0.8-0.8,2.2-1.3,4-1.3h5.3v22.4h-3.5v-9.1h-1.2c-0.8,0-1.4,0.2-1.8,0.7c-0.4,0.4-0.5,1.2-0.5,2.2v3.5
		c0,0.6,0,1-0.1,1.4c0,0.4-0.1,0.6-0.1,0.8s-0.1,0.3-0.2,0.6H293z M296.9,21.6c0,0.9,0.2,1.5,0.5,1.8c0.4,0.4,0.9,0.5,1.6,0.5h1.4
		v-6.9h-1.7c-0.6,0-1.1,0.2-1.4,0.6c-0.3,0.4-0.4,1-0.4,1.8V21.6z"/>
	<path class="st0" d="M305.6,39.3v-6.2h1.4c0.3-0.4,0.5-0.8,0.6-1.2c0.1-0.4,0.2-1,0.2-1.7l0.6-16.3h10v19.2h1.5v6.2h-3.5v-3h-7.5v3
		H305.6z M310.4,33.1h4.6v-16h-3l-0.6,13.1c0,0.8-0.1,1.4-0.3,1.9C311,32.5,310.7,32.8,310.4,33.1z"/>
</g>
</svg>
