<?xml version="1.0" encoding="utf-8"?>
<!-- Generator: Adobe Illustrator 21.0.0, SVG Export Plug-In . SVG Version: 6.00 Build 0)  -->
<svg version="1.1" id="Слой_1" xmlns="http://www.w3.org/2000/svg" xmlns:xlink="http://www.w3.org/1999/xlink" x="0px" y="0px"
	 viewBox="0 0 400 400" style="enable-background:new 0 0 400 400;" xml:space="preserve">
<style type="text/css">
	.st0{fill:#451414;}
	.st1{fill:#FFFFFF;}
</style>
<circle class="st0" cx="200" cy="200" r="197.5"/>
<g>
	<g>
		<g>
			<polygon class="st1" points="76.6,137.5 55.6,134 56.6,273.2 165.1,295.1 76,255.9 			"/>
			<polygon class="st1" points="110.2,119.1 88.4,109 89.4,246.5 178.6,288.2 110.1,239.9 			"/>
			<polygon class="st1" points="311.1,109 289.3,119.1 289.4,239.9 220.9,288.2 310.1,246.5 			"/>
			<polygon class="st1" points="322.9,137.5 323.5,255.9 234.4,295.1 342.9,273.2 343.9,134 			"/>
		</g>
	</g>
	<polygon class="st1" points="270.1,155.2 207.4,155.2 207.4,92.5 192.1,92.5 192.1,155.2 129.4,155.2 129.4,170.5 192.1,170.5 
		192.1,365.2 207.4,365.2 207.4,170.5 270.1,170.5 	"/>
</g>
</svg>
