<?xml version="1.0" encoding="utf-8"?>
<!-- Generator: Adobe Illustrator 21.0.0, SVG Export Plug-In . SVG Version: 6.00 Build 0)  -->
<svg version="1.1" id="Слой_1" xmlns="http://www.w3.org/2000/svg" xmlns:xlink="http://www.w3.org/1999/xlink" x="0px" y="0px"
	 width="260px" height="40px" viewBox="0 0 260 40" style="enable-background:new 0 0 260 40;" xml:space="preserve">
<style type="text/css">
	.st0{fill:#631212;}
	.st1{fill:#FFFFFF;}
</style>
<g>
	<path class="st0" d="M53.8,28.4V10.9h4c1.4,0,2.4,0.4,3.1,1.1c0.7,0.7,1,1.8,1,3.2v2.3c0,1.4-0.3,2.5-1,3.2s-1.7,1.1-3.1,1.1h-1.3
		v6.6C56.5,28.4,53.8,28.4,53.8,28.4z M56.6,19.4h1.3c0.5,0,0.8-0.1,1-0.4s0.3-0.7,0.3-1.3v-2.6c0-0.6-0.1-1-0.3-1.3
		c-0.2-0.2-0.6-0.4-1-0.4h-1.3V19.4z"/>
	<path class="st0" d="M63.3,28.4V10.9h7.5v2.5H66v4.9h3.8v2.5H66v5.1h4.7v2.5H63.3z"/>
	<path class="st0" d="M72.2,22.2v-4.8c0-1.4,0.3-2.5,1-3.2s1.7-1.1,3.1-1.1h1V11H80v2.1h1c1.4,0,2.4,0.4,3.1,1.1
		c0.7,0.7,1,1.8,1,3.2v4.8c0,1.4-0.3,2.5-1,3.2s-1.7,1.1-3.1,1.1h-1v2h-2.7v-2h-1c-1.4,0-2.4-0.4-3.1-1.1
		C72.6,24.6,72.2,23.6,72.2,22.2z M75,22.3c0,1.2,0.5,1.8,1.4,1.8h1v-8.6h-1c-0.5,0-0.8,0.1-1,0.4s-0.3,0.7-0.3,1.3L75,22.3L75,22.3
		z M80.1,24.1h1c0.9,0,1.4-0.6,1.4-1.8v-5.1c0-1.1-0.5-1.7-1.4-1.7h-1V24.1z"/>
	<path class="st0" d="M86.8,24.2v-9.1c0-1.4,0.4-2.5,1.1-3.2c0.7-0.8,1.8-1.1,3.1-1.1c1.3,0,2.4,0.4,3.1,1.1
		c0.7,0.8,1.1,1.8,1.1,3.2v9.1c0,1.4-0.4,2.5-1.1,3.2c-0.7,0.8-1.7,1.1-3.1,1.1c-1.3,0-2.4-0.4-3.1-1.1
		C87.1,26.7,86.8,25.6,86.8,24.2z M89.5,24.4c0,1.2,0.5,1.7,1.4,1.7s1.4-0.6,1.4-1.7V15c0-1.1-0.5-1.7-1.4-1.7c-1,0-1.4,0.6-1.4,1.7
		V24.4z"/>
	<path class="st0" d="M96.9,28.4V10.9h4c1.4,0,2.4,0.4,3.1,1.1c0.7,0.7,1,1.8,1,3.2v2.3c0,1.4-0.3,2.5-1,3.2s-1.7,1.1-3.1,1.1h-1.3
		v6.6C99.6,28.4,96.9,28.4,96.9,28.4z M99.7,19.4h1.3c0.5,0,0.8-0.1,1-0.4s0.3-0.7,0.3-1.3v-2.6c0-0.6-0.1-1-0.3-1.3
		c-0.2-0.2-0.6-0.4-1-0.4h-1.3V19.4z"/>
	<path class="st0" d="M106.3,28.4V10.9h3.8l2,12.5l1.9-12.5h4v17.5h-2.7V15.9l-1.9,12.5h-2.6l-2.1-12.3v12.3
		C108.7,28.4,106.3,28.4,106.3,28.4z"/>
	<path class="st0" d="M119.1,28.4l2.8-17.5h4.2l2.8,17.5h-2.7l-0.5-3.2h-3.4l-0.5,3.2H119.1z M122.7,22.9h2.7l-1.3-8.8L122.7,22.9z"
		/>
	<path class="st0" d="M129.2,13.4v-2.5h8.5v2.5h-2.9v15h-2.7v-15H129.2z"/>
	<path class="st0" d="M138.7,24.2v-9.1c0-1.4,0.3-2.5,1-3.3s1.7-1.1,3.1-1.1c1.3,0,2.4,0.4,3.1,1.1c0.7,0.8,1.1,1.8,1.1,3.3v1.7
		h-2.7V15c0-1.1-0.5-1.7-1.4-1.7c-1,0-1.4,0.6-1.4,1.7v9.4c0,1.1,0.5,1.7,1.4,1.7s1.4-0.6,1.4-1.7v-2.5h2.7v2.3
		c0,1.4-0.4,2.5-1.1,3.3c-0.7,0.8-1.8,1.1-3.1,1.1s-2.4-0.4-3.1-1.1C139,26.7,138.7,25.7,138.7,24.2z"/>
	<path class="st0" d="M148.6,28.4V10.9h2.7v7.6l3.6-7.6h2.7l-3.8,7.8l3.8,9.7h-2.8l-2.7-7l-0.9,1.6v5.4
		C151.2,28.4,148.6,28.4,148.6,28.4z"/>
	<path class="st0" d="M158.9,28.4V10.9h2.5V22l1-3.9l2.2-7.2h3.3v17.5h-2.7V16.1l-1.1,4.3l-2.3,8C161.8,28.4,158.9,28.4,158.9,28.4z
		"/>
	<path class="st0" d="M169.6,11h2.5v11l1-3.9l2.2-7.2h3v17.5h-2.5l0.1-12.3l-1.1,4.3l-2.4,8h-2.8V11z M171.8,9.1
		c0.5,0.5,1.2,0.7,2.1,0.7c1,0,1.7-0.2,2.2-0.7s0.7-1.2,0.7-2h-1.7c0,0.4-0.2,0.7-0.4,0.9s-0.5,0.2-0.9,0.2S173.1,8.1,173,8
		c-0.2-0.2-0.3-0.5-0.3-0.9H171C171.1,7.9,171.4,8.6,171.8,9.1z"/>
	<path class="st0" d="M184.2,28.4V10.9h4.2c1.4,0,2.4,0.3,3.1,1c0.7,0.7,1,1.7,1,3v0.6c0,1.8-0.6,3-1.8,3.5c1.4,0.5,2.1,1.8,2.1,3.7
		v1.4c0,1.4-0.4,2.4-1.1,3.1c-0.7,0.7-1.7,1.1-3.1,1.1L184.2,28.4L184.2,28.4z M186.9,18.1h1.1c0.5,0,1-0.1,1.2-0.4
		c0.3-0.3,0.4-0.8,0.4-1.4v-1c0-0.6-0.1-1.1-0.3-1.4c-0.2-0.3-0.6-0.4-1.1-0.4h-1.3L186.9,18.1L186.9,18.1z M186.9,25.9h1.6
		c0.5,0,0.8-0.1,1.1-0.4c0.2-0.3,0.4-0.7,0.4-1.3v-1.5c0-0.8-0.1-1.4-0.4-1.7c-0.3-0.3-0.7-0.5-1.4-0.5H187v5.4H186.9z"/>
	<path class="st0" d="M194.2,24.2v-1.9h2.7v2.1c0,1.2,0.5,1.7,1.4,1.7c0.5,0,0.8-0.1,1.1-0.4c0.2-0.3,0.4-0.8,0.4-1.5v-1.4
		c0-0.8-0.1-1.4-0.4-1.7c-0.3-0.3-0.7-0.5-1.4-0.5h-0.7v-2.5h0.8c0.5,0,1-0.1,1.2-0.4c0.3-0.3,0.4-0.8,0.4-1.4v-1
		c0-0.7-0.1-1.3-0.4-1.6c-0.2-0.3-0.6-0.4-1.1-0.4c-1,0-1.4,0.6-1.4,1.7v1.4h-2.7v-1.3c0-1.4,0.4-2.5,1.1-3.2
		c0.7-0.7,1.8-1.1,3.1-1.1s2.4,0.4,3.1,1.1c0.7,0.8,1,1.8,1,3.3v0.5c0,1.9-0.6,3.1-1.9,3.6c1.3,0.6,1.9,1.8,1.9,3.7v1.4
		c0,1.4-0.3,2.5-1,3.3s-1.7,1.1-3.1,1.1c-1.3,0-2.4-0.4-3.1-1.1C194.5,26.7,194.2,25.7,194.2,24.2z"/>
	<path class="st0" d="M204.2,28.4V10.9h7.3v2.5H207v15H204.2z"/>
	<path class="st0" d="M212.6,28.5V26c0.3,0,0.6,0,0.8,0s0.3-0.1,0.5-0.2c0.1-0.1,0.2-0.3,0.3-0.5s0.1-0.6,0.1-1l0.3-13.2h7.9v17.5
		h-2.7v-15h-2.4L217,24c0,1.6-0.4,2.7-1,3.4c-0.6,0.7-1.6,1-3,1h-0.4V28.5z"/>
	<path class="st0" d="M224.1,28.4c0.2-0.5,0.3-1.2,0.3-2.1v-2.7c0-1,0.1-1.8,0.4-2.4c0.3-0.6,0.7-1.1,1.4-1.3
		c-1.2-0.6-1.8-1.7-1.8-3.6V15c0-1.4,0.3-2.4,1-3c0.7-0.7,1.7-1,3.1-1h4.2v17.5H230v-7.1h-1c-0.6,0-1.1,0.2-1.4,0.5
		c-0.3,0.3-0.4,0.9-0.4,1.7v2.7c0,0.4,0,0.8,0,1.1c0,0.3-0.1,0.5-0.1,0.6s-0.1,0.3-0.1,0.5h-2.9V28.4z M227.1,17
		c0,0.7,0.1,1.2,0.4,1.4c0.3,0.3,0.7,0.4,1.2,0.4h1.1v-5.4h-1.3c-0.5,0-0.8,0.1-1.1,0.4c-0.2,0.3-0.3,0.7-0.3,1.4L227.1,17L227.1,17
		z"/>
	<path class="st0" d="M233.9,30.8V26h1.1c0.2-0.3,0.4-0.6,0.5-0.9s0.2-0.8,0.2-1.3l0.5-12.8h7.8v15h1.2v4.8h-2.7v-2.3h-5.8v2.3
		H233.9z M237.7,26h3.6V13.4H239l-0.5,10.2c0,0.6-0.1,1.1-0.2,1.5S238,25.7,237.7,26z"/>
</g>
<g>
	<path class="st0" d="M14.3,36.4l-11-11c-3.1-3.1-3.1-8.2,0-11.3l11-11c3.1-3.1,8.2-3.1,11.3,0l11,11c3.1,3.1,3.1,8.2,0,11.3l-11,11
		C22.5,39.6,17.4,39.6,14.3,36.4z"/>
	<path id="XMLID_22_" class="st1" d="M13,30.3l-3.6-3.6c-3.8-3.8-3.8-10.1,0-13.9L13,9.1c3.8-3.8,10.1-3.8,13.9,0l3.6,3.6
		c3.8,3.8,3.8,10.1,0,13.9l-3.6,3.6C23.1,34.2,16.9,34.2,13,30.3z"/>
	<path class="st0" d="M9.7,24.7V14.6c0-2.9,2.4-5.2,5.2-5.2H25c2.9,0,5.2,2.4,5.2,5.2v10.1c0,2.9-2.4,5.2-5.2,5.2H14.9
		C12,30,9.6,27.6,9.7,24.7z"/>
	<path id="XMLID_1_" class="st1" d="M11.9,21.3V18c0-3.5,2.9-6.4,6.4-6.4l3.4,0c3.5,0,6.4,2.9,6.4,6.4v3.3c0,3.5-2.9,6.4-6.4,6.4
		h-3.3C14.7,27.8,11.9,24.9,11.9,21.3z"/>
	<path class="st0" d="M17.5,26.7L12.8,22c-1.3-1.3-1.3-3.5,0-4.8l4.7-4.7c1.3-1.3,3.5-1.3,4.8,0l4.7,4.7c1.3,1.3,1.3,3.5,0,4.8
		l-4.7,4.7C21,28.1,18.9,28.1,17.5,26.7z"/>
	<path id="XMLID_2_" class="st1" d="M17,24.1l-1.5-1.5c-1.6-1.6-1.6-4.3,0-5.9l1.5-1.6c1.6-1.6,4.3-1.6,5.9,0l1.5,1.5
		c1.6,1.6,1.6,4.3,0,5.9l-1.5,1.5C21.3,25.8,18.6,25.8,17,24.1z"/>
	<path class="st0" d="M15.4,21.9v-4.5c0-1.3,1.1-2.3,2.3-2.3h4.5c1.3,0,2.3,1.1,2.3,2.3l0,4.5c0,1.3-1.1,2.3-2.3,2.3h-4.5
		C16.4,24.2,15.3,23.2,15.4,21.9z"/>
	<path id="XMLID_3_" class="st1" d="M16.3,20.4v-1.5c0-1.6,1.3-2.9,2.9-2.9l1.5,0c1.6,0,2.9,1.3,2.9,2.9v1.5c0,1.6-1.3,2.9-2.9,2.9
		h-1.5C17.6,23.3,16.3,22,16.3,20.4z"/>
	<path class="st0" d="M18.9,22.8l-2.1-2.1c-0.6-0.6-0.6-1.6,0-2.1l2.1-2.1c0.6-0.6,1.6-0.6,2.1,0l2.1,2.1c0.6,0.6,0.6,1.6,0,2.1
		L21,22.8C20.4,23.4,19.5,23.4,18.9,22.8z"/>
	<path id="XMLID_4_" class="st1" d="M18.6,21.6L17.9,21c-0.7-0.7-0.7-1.9,0-2.6l0.7-0.7c0.7-0.7,1.9-0.7,2.6,0l0.7,0.7
		c0.7,0.7,0.7,1.9,0,2.6l-0.7,0.7C20.6,22.4,19.4,22.4,18.6,21.6z"/>
	<path class="st0" d="M18,20.6v-1.9c0-0.5,0.5-1,1-1h1.9c0.5,0,1,0.5,1,1v1.9c0,0.5-0.5,1-1,1H19C18.4,21.6,18,21.2,18,20.6z"/>
	<path id="XMLID_5_" class="st1" d="M18.4,19.9v-0.6c0-0.7,0.6-1.2,1.2-1.2l0.6,0c0.7,0,1.2,0.6,1.2,1.2v0.6c0,0.7-0.6,1.2-1.2,1.2
		h-0.6C18.9,21.2,18.4,20.6,18.4,19.9z"/>
</g>
</svg>
