<?xml version="1.0" encoding="utf-8"?>
<!-- Generator: Adobe Illustrator 21.0.0, SVG Export Plug-In . SVG Version: 6.00 Build 0)  -->
<svg version="1.1" id="Слой_1" xmlns="http://www.w3.org/2000/svg" xmlns:xlink="http://www.w3.org/1999/xlink" x="0px" y="0px"
	 width="330px" height="50px" viewBox="0 0 330 50" style="enable-background:new 0 0 330 50;" xml:space="preserve">
<style type="text/css">
	.st0{fill:#451414;}
	.st1{fill:#FFFFFF;}
</style>
<g>
	<circle class="st0" cx="25.5" cy="25" r="24.5"/>
	<g>
		<g>
			<g>
				<polygon class="st1" points="10.2,17.2 7.6,16.8 7.7,34.1 21.2,36.8 10.1,31.9 				"/>
				<polygon class="st1" points="14.4,15 11.7,13.7 11.8,30.8 22.9,35.9 14.3,30 				"/>
				<polygon class="st1" points="39.3,13.7 36.6,15 36.6,30 28.1,35.9 39.2,30.8 				"/>
				<polygon class="st1" points="40.7,17.2 40.8,31.9 29.8,36.8 43.2,34.1 43.3,16.8 				"/>
			</g>
		</g>
		<polygon class="st1" points="34.2,19.4 26.4,19.4 26.4,11.7 24.5,11.7 24.5,19.4 16.7,19.4 16.7,21.3 24.5,21.3 24.5,45.5 
			26.4,45.5 26.4,21.3 34.2,21.3 		"/>
	</g>
</g>
<g>
	<path class="st0" d="M67.1,36.3V13.9h5.2c1.7,0,3,0.5,3.9,1.4c0.9,0.9,1.3,2.3,1.3,4.1v2.9c0,1.8-0.4,3.2-1.3,4.1
		c-0.9,0.9-2.2,1.4-3.9,1.4h-1.7v8.4H67.1z M70.7,24.7h1.7c0.6,0,1-0.2,1.3-0.5c0.3-0.3,0.4-0.9,0.4-1.6v-3.4c0-0.8-0.1-1.3-0.4-1.6
		c-0.3-0.3-0.7-0.5-1.3-0.5h-1.7V24.7z"/>
	<path class="st0" d="M79.2,36.3V13.9h9.6v3.2h-6.1v6.3h4.8v3.2h-4.8v6.6h6.1v3.2H79.2z"/>
	<path class="st0" d="M90.7,28.3v-6.1c0-1.8,0.4-3.2,1.3-4.1c0.9-0.9,2.2-1.4,3.9-1.4h1.3v-2.8h3.5v2.8h1.3c1.7,0,3.1,0.5,3.9,1.4
		c0.9,0.9,1.3,2.3,1.3,4.1v6.1c0,1.8-0.4,3.2-1.3,4.1c-0.9,0.9-2.2,1.4-3.9,1.4h-1.3v2.5h-3.5v-2.5h-1.3c-1.7,0-3-0.5-3.9-1.4
		C91.1,31.4,90.7,30.1,90.7,28.3z M94.2,28.5c0,1.5,0.6,2.3,1.7,2.3h1.3v-11h-1.3c-0.6,0-1,0.2-1.3,0.5c-0.3,0.3-0.4,0.9-0.4,1.7
		V28.5z M100.8,30.7h1.3c1.2,0,1.8-0.8,1.8-2.3v-6.6c0-1.5-0.6-2.2-1.8-2.2h-1.3V30.7z"/>
	<path class="st0" d="M109.3,31V19.3c0-1.8,0.5-3.2,1.4-4.2c0.9-1,2.2-1.5,4-1.5s3,0.5,4,1.5c0.9,1,1.4,2.4,1.4,4.2V31
		c0,1.8-0.5,3.2-1.4,4.2c-0.9,1-2.2,1.5-4,1.5s-3-0.5-4-1.5C109.8,34.1,109.3,32.7,109.3,31z M112.8,31.2c0,1.5,0.6,2.2,1.8,2.2
		c1.2,0,1.8-0.7,1.8-2.2V19.1c0-1.5-0.6-2.2-1.8-2.2c-1.2,0-1.8,0.7-1.8,2.2V31.2z"/>
	<path class="st0" d="M122.3,36.3V13.9h5.2c1.7,0,3,0.5,3.9,1.4c0.9,0.9,1.3,2.3,1.3,4.1v2.9c0,1.8-0.4,3.2-1.3,4.1
		c-0.9,0.9-2.2,1.4-3.9,1.4h-1.7v8.4H122.3z M125.8,24.7h1.7c0.6,0,1-0.2,1.3-0.5c0.3-0.3,0.4-0.9,0.4-1.6v-3.4
		c0-0.8-0.1-1.3-0.4-1.6c-0.3-0.3-0.7-0.5-1.3-0.5h-1.7V24.7z"/>
	<path class="st0" d="M134.3,36.3V13.9h4.9l2.6,16l2.4-16h5.1v22.4h-3.5V20.3l-2.4,16.1H140l-2.6-15.8v15.8H134.3z"/>
	<path class="st0" d="M150.7,36.3l3.6-22.4h5.4l3.6,22.4h-3.5l-0.6-4.1h-4.3l-0.6,4.1H150.7z M155.3,29.2h3.4L157,17.9L155.3,29.2z"
		/>
	<path class="st0" d="M163.6,17.1v-3.2h10.9v3.2h-3.7v19.2h-3.5V17.1H163.6z"/>
	<path class="st0" d="M175.8,31V19.3c0-1.8,0.4-3.2,1.3-4.2c0.9-1,2.2-1.5,3.9-1.5s3.1,0.5,4,1.5c0.9,1,1.4,2.4,1.4,4.2v2.2h-3.5
		v-2.4c0-1.5-0.6-2.2-1.8-2.2c-1.2,0-1.8,0.7-1.8,2.2v12.1c0,1.5,0.6,2.2,1.8,2.2c1.2,0,1.8-0.7,1.8-2.2V28h3.5v3
		c0,1.8-0.5,3.2-1.4,4.2c-0.9,1-2.3,1.5-4,1.5s-3-0.5-3.9-1.5C176.2,34.1,175.8,32.8,175.8,31z"/>
	<path class="st0" d="M188.4,36.3V13.9h3.5v9.8l4.6-9.8h3.5l-4.9,10l4.9,12.4h-3.6l-3.4-8.9l-1.1,2v6.9H188.4z"/>
	<path class="st0" d="M201.6,36.3V13.9h3.1v14.2l1.3-4.9l2.9-9.3h4.2v22.4h-3.5V20.6l-1.4,5.5l-3,10.3H201.6z"/>
	<path class="st0" d="M215.3,14h3.1v14.2l1.3-4.9l2.9-9.2h3.9v22.4h-3.2l0.1-15.8l-1.4,5.5l-3.1,10.2h-3.6V14z M218.2,11.6
		c0.6,0.6,1.5,0.9,2.7,0.9c1.2,0,2.2-0.3,2.8-0.9c0.6-0.6,1-1.5,1-2.6h-2.1c0,0.6-0.2,0.9-0.5,1.2c-0.3,0.2-0.6,0.3-1.2,0.3
		c-0.5,0-0.9-0.1-1.1-0.3c-0.2-0.2-0.4-0.6-0.4-1.2h-2.2C217.3,10.1,217.6,10.9,218.2,11.6z"/>
	<path class="st0" d="M234,36.3V13.9h5.3c1.8,0,3.1,0.4,4,1.3c0.8,0.8,1.3,2.1,1.3,3.9v0.8c0,2.3-0.8,3.8-2.3,4.5
		c1.8,0.7,2.6,2.3,2.6,4.8V31c0,1.7-0.5,3-1.4,4s-2.2,1.4-4,1.4H234z M237.5,23h1.4c0.7,0,1.2-0.2,1.6-0.5c0.4-0.4,0.5-1,0.5-1.8
		v-1.3c0-0.8-0.1-1.4-0.4-1.8c-0.3-0.4-0.7-0.6-1.4-0.6h-1.7V23z M237.5,33.1h2c0.6,0,1.1-0.2,1.4-0.5c0.3-0.3,0.5-0.9,0.5-1.7v-2
		c0-1-0.2-1.7-0.5-2.1c-0.3-0.4-0.9-0.6-1.7-0.6h-1.6V33.1z"/>
	<path class="st0" d="M246.8,31v-2.5h3.5v2.7c0,1.5,0.6,2.2,1.8,2.2c0.6,0,1.1-0.2,1.4-0.6c0.3-0.4,0.5-1,0.5-2v-1.8
		c0-1-0.2-1.8-0.5-2.2s-0.9-0.7-1.8-0.7h-0.9V23h1.1c0.7,0,1.2-0.2,1.6-0.5c0.4-0.4,0.5-1,0.5-1.8v-1.3c0-1-0.2-1.6-0.5-2
		c-0.3-0.4-0.8-0.6-1.4-0.6c-1.2,0-1.8,0.7-1.8,2.2v1.8h-3.4v-1.7c0-1.8,0.5-3.2,1.4-4.1c0.9-1,2.2-1.4,4-1.4c1.7,0,3,0.5,3.9,1.5
		c0.9,1,1.3,2.4,1.3,4.2v0.6c0,2.4-0.8,3.9-2.5,4.6c1.6,0.7,2.5,2.3,2.5,4.7V31c0,1.8-0.4,3.2-1.3,4.2c-0.9,1-2.2,1.5-3.9,1.5
		c-1.7,0-3-0.5-4-1.5C247.2,34.1,246.8,32.8,246.8,31z"/>
	<path class="st0" d="M259.6,36.3V13.9h9.3v3.2h-5.8v19.2H259.6z"/>
	<path class="st0" d="M270.3,36.4v-3.2c0.4,0,0.8,0,1-0.1c0.2,0,0.4-0.1,0.6-0.3c0.2-0.2,0.3-0.4,0.4-0.7c0.1-0.3,0.1-0.7,0.1-1.2
		l0.4-16.9h10.1v22.4h-3.5V17.1h-3L276,30.7c-0.1,2-0.5,3.5-1.3,4.4s-2.1,1.3-3.8,1.3H270.3z"/>
	<path class="st0" d="M285.1,36.3c0.2-0.6,0.3-1.5,0.3-2.7v-3.5c0-1.2,0.2-2.3,0.5-3c0.4-0.8,1-1.4,1.8-1.7
		c-1.5-0.7-2.3-2.2-2.3-4.5v-1.8c0-1.8,0.4-3,1.3-3.9c0.8-0.8,2.2-1.3,4-1.3h5.3v22.4h-3.5v-9.1h-1.2c-0.8,0-1.4,0.2-1.8,0.7
		c-0.4,0.4-0.5,1.2-0.5,2.2v3.5c0,0.6,0,1-0.1,1.4c0,0.4-0.1,0.6-0.1,0.8c0,0.1-0.1,0.3-0.2,0.6H285.1z M289,21.6
		c0,0.9,0.2,1.5,0.5,1.8c0.4,0.4,0.9,0.5,1.6,0.5h1.4v-6.9h-1.7c-0.6,0-1.1,0.2-1.4,0.6c-0.3,0.4-0.4,1-0.4,1.8V21.6z"/>
	<path class="st0" d="M297.7,39.3v-6.2h1.4c0.3-0.4,0.5-0.8,0.6-1.2c0.1-0.4,0.2-1,0.2-1.7l0.6-16.3h10v19.2h1.5v6.2h-3.5v-3h-7.5v3
		H297.7z M302.5,33.1h4.6v-16h-3l-0.6,13.1c0,0.8-0.1,1.4-0.3,1.9C303.1,32.5,302.8,32.8,302.5,33.1z"/>
</g>
</svg>
