<?xml version="1.0" encoding="utf-8"?>
<!-- Generator: Adobe Illustrator 21.0.0, SVG Export Plug-In . SVG Version: 6.00 Build 0)  -->
<svg version="1.1" id="Слой_1" xmlns="http://www.w3.org/2000/svg" xmlns:xlink="http://www.w3.org/1999/xlink" x="0px" y="0px"
	 width="330px" height="50px" viewBox="0 0 330 50" style="enable-background:new 0 0 330 50;" xml:space="preserve">
<style type="text/css">
	.st0{fill:#451414;}
	.st1{fill:#FFFFFF;}
</style>
<g>
	<circle class="st0" cx="25.5" cy="25" r="24.5"/>
	<g>
		<g>
			<g>
				<polygon class="st1" points="10.2,17.2 7.6,16.8 7.7,34.1 21.2,36.8 10.1,31.9 				"/>
				<polygon class="st1" points="14.4,15 11.7,13.7 11.8,30.8 22.9,35.9 14.3,30 				"/>
				<polygon class="st1" points="39.3,13.7 36.6,15 36.6,30 28.1,35.9 39.2,30.8 				"/>
				<polygon class="st1" points="40.7,17.2 40.8,31.9 29.8,36.8 43.2,34.1 43.3,16.8 				"/>
			</g>
		</g>
		<polygon class="st1" points="34.2,19.4 26.4,19.4 26.4,11.7 24.5,11.7 24.5,19.4 16.7,19.4 16.7,21.3 24.5,21.3 24.5,45.5 
			26.4,45.5 26.4,21.3 34.2,21.3 		"/>
	</g>
</g>
<g>
	<path class="st0" d="M69.6,36.3V13.9h5.3c1.8,0,3.1,0.4,4,1.3c0.8,0.8,1.3,2.1,1.3,3.9v1.8c0,2.3-0.8,3.8-2.3,4.5
		c0.8,0.4,1.4,0.9,1.8,1.7c0.4,0.8,0.5,1.8,0.5,3v3.5c0,1.2,0.1,2.1,0.3,2.7h-3.5c-0.1-0.3-0.1-0.5-0.2-0.6c0-0.1-0.1-0.4-0.1-0.8
		c0-0.4-0.1-0.8-0.1-1.4V30c0-1-0.2-1.8-0.5-2.2c-0.4-0.4-0.9-0.7-1.8-0.7h-1.2v9.1H69.6z M73.1,24h1.4c0.7,0,1.2-0.2,1.6-0.5
		c0.4-0.4,0.5-1,0.5-1.8v-2.2c0-0.8-0.1-1.4-0.4-1.8c-0.3-0.4-0.7-0.6-1.4-0.6h-1.7V24z"/>
	<path class="st0" d="M82.9,36.3V13.9h9.6v3.2h-6.1v6.3h4.8v3.2h-4.8v6.6h6.1v3.2H82.9z"/>
	<path class="st0" d="M95.2,36.3V13.9h9.3v3.2h-5.8v6.8h4.5V27h-4.5v9.3H95.2z"/>
	<path class="st0" d="M106.3,30.9V19.3c0-1.8,0.5-3.2,1.4-4.2c0.9-1,2.2-1.5,4-1.5s3,0.5,4,1.5c0.9,1,1.4,2.4,1.4,4.2v11.7
		c0,1.8-0.5,3.2-1.4,4.2c-0.9,1-2.2,1.5-4,1.5s-3-0.5-4-1.5C106.8,34.1,106.3,32.7,106.3,30.9z M109.9,31.1c0,1.5,0.6,2.2,1.8,2.2
		c1.2,0,1.8-0.7,1.8-2.2V19c0-1.5-0.6-2.2-1.8-2.2c-1.2,0-1.8,0.7-1.8,2.2V31.1z"/>
	<path class="st0" d="M119.8,36.3V13.9h5.3c1.8,0,3.1,0.4,4,1.3c0.8,0.8,1.3,2.1,1.3,3.9v1.8c0,2.3-0.8,3.8-2.3,4.5
		c0.8,0.4,1.4,0.9,1.8,1.7c0.4,0.8,0.5,1.8,0.5,3v3.5c0,1.2,0.1,2.1,0.3,2.7h-3.5c-0.1-0.3-0.1-0.5-0.2-0.6c0-0.1-0.1-0.4-0.1-0.8
		c0-0.4-0.1-0.8-0.1-1.4V30c0-1-0.2-1.8-0.5-2.2c-0.4-0.4-0.9-0.7-1.8-0.7h-1.2v9.1H119.8z M123.3,24h1.4c0.7,0,1.2-0.2,1.6-0.5
		c0.4-0.4,0.5-1,0.5-1.8v-2.2c0-0.8-0.1-1.4-0.4-1.8c-0.3-0.4-0.7-0.6-1.4-0.6h-1.7V24z"/>
	<path class="st0" d="M133.1,36.3V13.9h4.9l2.6,16l2.4-16h5.1v22.4h-3.5V20.2l-2.4,16.1h-3.3l-2.6-15.8v15.8H133.1z"/>
	<path class="st0" d="M150.9,36.3V13.9h9.6v3.2h-6.1v6.3h4.8v3.2h-4.8v6.6h6.1v3.2H150.9z"/>
	<path class="st0" d="M163.2,36.3V13.9h5.6c1.7,0,3,0.5,3.9,1.4c0.9,0.9,1.3,2.3,1.3,4.1v11.3c0,1.8-0.4,3.2-1.3,4.1
		c-0.9,0.9-2.2,1.4-3.9,1.4H163.2z M166.7,33.1h2c0.6,0,1-0.2,1.3-0.5c0.3-0.3,0.5-0.9,0.5-1.7V19.3c0-0.8-0.2-1.3-0.5-1.7
		c-0.3-0.3-0.8-0.5-1.3-0.5h-2V33.1z"/>
	<path class="st0" d="M182.1,36.3V13.9h5.2c1.7,0,3,0.5,3.9,1.4c0.9,0.9,1.3,2.3,1.3,4.1v2.9c0,1.8-0.4,3.2-1.3,4.1
		c-0.9,0.9-2.2,1.4-3.9,1.4h-1.7v8.4H182.1z M185.6,24.7h1.7c0.6,0,1-0.2,1.3-0.5c0.3-0.3,0.4-0.9,0.4-1.6v-3.4
		c0-0.8-0.1-1.3-0.4-1.6c-0.3-0.3-0.7-0.5-1.3-0.5h-1.7V24.7z"/>
	<path class="st0" d="M194.8,36.3V13.9h9.6v3.2h-6.1v6.3h4.8v3.2h-4.8v6.6h6.1v3.2H194.8z"/>
	<path class="st0" d="M207.1,36.3V13.9h5.3c1.8,0,3.1,0.4,4,1.3c0.8,0.8,1.3,2.1,1.3,3.9v1.8c0,2.3-0.8,3.8-2.3,4.5
		c0.8,0.4,1.4,0.9,1.8,1.7c0.4,0.8,0.5,1.8,0.5,3v3.5c0,1.2,0.1,2.1,0.3,2.7h-3.5c-0.1-0.3-0.1-0.5-0.2-0.6c0-0.1-0.1-0.4-0.1-0.8
		c0-0.4-0.1-0.8-0.1-1.4V30c0-1-0.2-1.8-0.5-2.2c-0.4-0.4-0.9-0.7-1.8-0.7h-1.2v9.1H207.1z M210.6,24h1.4c0.7,0,1.2-0.2,1.6-0.5
		c0.4-0.4,0.5-1,0.5-1.8v-2.2c0-0.8-0.1-1.4-0.4-1.8c-0.3-0.4-0.7-0.6-1.4-0.6h-1.7V24z"/>
	<path class="st0" d="M219.9,30.9v-1.4h3.6v1.6c0,1.5,0.6,2.2,1.7,2.2s1.7-0.7,1.7-2.2c0-0.6-0.1-1.2-0.4-1.8c-0.3-0.6-0.6-1-1-1.5
		c-0.4-0.4-0.8-0.9-1.3-1.3c-0.5-0.4-1-0.9-1.5-1.4s-1-1-1.4-1.5c-0.4-0.5-0.7-1.2-1-1.9s-0.4-1.6-0.4-2.4c0-1.8,0.5-3.2,1.4-4.2
		c1-1,2.2-1.5,3.9-1.5c1.6,0,2.9,0.5,3.8,1.5c0.9,1,1.3,2.4,1.3,4.2V20H227V19c0-1.5-0.6-2.2-1.8-2.2c-0.6,0-1,0.2-1.3,0.5
		c-0.3,0.3-0.4,0.9-0.4,1.7c0,0.6,0.1,1.2,0.4,1.8c0.3,0.6,0.6,1,1,1.5c0.4,0.4,0.9,0.9,1.3,1.3c0.5,0.4,1,0.9,1.5,1.4
		c0.5,0.5,0.9,1,1.3,1.5c0.4,0.5,0.7,1.2,1,1.9c0.3,0.8,0.4,1.6,0.4,2.4c0,1.8-0.4,3.2-1.3,4.2c-0.9,1-2.2,1.5-3.8,1.5
		c-1.6,0-2.9-0.5-3.9-1.5C220.3,34.1,219.9,32.7,219.9,30.9z"/>
	<path class="st0" d="M232.8,36.3V13.9h5.2c1.7,0,3,0.5,3.9,1.4c0.9,0.9,1.3,2.3,1.3,4.1v2.9c0,1.8-0.4,3.2-1.3,4.1
		c-0.9,0.9-2.2,1.4-3.9,1.4h-1.7v8.4H232.8z M236.4,24.7h1.7c0.6,0,1-0.2,1.3-0.5c0.3-0.3,0.4-0.9,0.4-1.6v-3.4
		c0-0.8-0.1-1.3-0.4-1.6c-0.3-0.3-0.7-0.5-1.3-0.5h-1.7V24.7z"/>
	<path class="st0" d="M245.5,36.3V13.9h9.6v3.2h-6.1v6.3h4.8v3.2h-4.8v6.6h6.1v3.2H245.5z"/>
	<path class="st0" d="M257.5,30.9V19.3c0-1.8,0.4-3.2,1.3-4.2c0.9-1,2.2-1.5,3.9-1.5s3.1,0.5,4,1.5c0.9,1,1.4,2.4,1.4,4.2v2.2h-3.5
		V19c0-1.5-0.6-2.2-1.8-2.2c-1.2,0-1.8,0.7-1.8,2.2v12.1c0,1.5,0.6,2.2,1.8,2.2c1.2,0,1.8-0.7,1.8-2.2v-3.2h3.5v3
		c0,1.8-0.5,3.2-1.4,4.2c-0.9,1-2.3,1.5-4,1.5s-3-0.5-3.9-1.5C257.9,34.1,257.5,32.7,257.5,30.9z"/>
	<path class="st0" d="M269.6,17.1v-3.2h10.9v3.2h-3.7v19.2h-3.5V17.1H269.6z"/>
	<path class="st0" d="M282.5,36.3V13.9h3.5v22.4H282.5z"/>
	<path class="st0" d="M288.1,13.9h3.5l2.7,18.3l2.7-18.3h3.5l-3.5,22.4h-5.5L288.1,13.9z"/>
	<path class="st0" d="M302.4,36.3V13.9h9.6v3.2h-6.1v6.3h4.8v3.2h-4.8v6.6h6.1v3.2H302.4z"/>
</g>
</svg>
