<?xml version="1.0" encoding="utf-8"?>
<!-- Generator: Adobe Illustrator 21.0.0, SVG Export Plug-In . SVG Version: 6.00 Build 0)  -->
<svg version="1.1" id="Слой_1" xmlns="http://www.w3.org/2000/svg" xmlns:xlink="http://www.w3.org/1999/xlink" x="0px" y="0px"
	 viewBox="0 0 50 50" style="enable-background:new 0 0 50 50;" xml:space="preserve">
<style type="text/css">
	.st0{fill:#F2F2F2;}
</style>
<path class="st0" d="M25,0C11.2,0,0,11.2,0,25s11.2,25,25,25s25-11.2,25-25S38.8,0,25,0z M6.8,34.3L6.7,16.6L9.4,17L9.3,32l11.3,5
	L6.8,34.3z M11,30.9l-0.1-17.4l2.8,1.3l-0.1,15.3l8.8,6L11,30.9z M25.9,41.8H24V17.1h-8v-1.9h8V7.3h1.9v7.9h8v1.9h-8V41.8z
	 M36.3,30.1V14.8l2.8-1.3L39,30.9l-11.3,5.2L36.3,30.1z M29.4,37l11.2-5l-0.1-15l2.7-0.4l-0.1,17.7L29.4,37z"/>
</svg>
