<?xml version="1.0" encoding="utf-8"?>
<!-- Generator: Adobe Illustrator 21.0.0, SVG Export Plug-In . SVG Version: 6.00 Build 0)  -->
<svg version="1.1" id="Слой_1" xmlns="http://www.w3.org/2000/svg" xmlns:xlink="http://www.w3.org/1999/xlink" x="0px" y="0px"
	 width="330px" height="50px" viewBox="0 0 330 50" style="enable-background:new 0 0 330 50;" xml:space="preserve">
<style type="text/css">
	.st0{fill:#451414;}
	.st1{fill:#FFFFFF;}
</style>
<circle class="st0" cx="25.5" cy="25" r="24.5"/>
<g>
	<g>
		<polygon class="st1" points="10.2,17.2 7.6,16.8 7.7,34.1 21.2,36.8 10.1,31.9 		"/>
		<polygon class="st1" points="14.4,15 11.7,13.7 11.8,30.8 22.9,35.9 14.3,30 		"/>
		<polygon class="st1" points="39.3,13.7 36.6,15 36.6,30 28.1,35.9 39.2,30.8 		"/>
		<polygon class="st1" points="40.7,17.2 40.8,31.9 29.8,36.8 43.2,34.1 43.3,16.8 		"/>
	</g>
</g>
<polygon class="st1" points="34.2,15.4 26.4,15.4 26.4,7.7 24.5,7.7 24.5,15.4 16.7,15.4 16.7,17.3 24.5,17.3 24.5,41.5 26.4,41.5 
	26.4,17.3 34.2,17.3 "/>
<g>
	<path class="st0" d="M69,35.9V13.5h5.2c1.7,0,3,0.5,3.9,1.4c0.9,0.9,1.3,2.3,1.3,4.1v2.9c0,1.8-0.4,3.2-1.3,4.1
		c-0.9,0.9-2.2,1.4-3.9,1.4h-1.7v8.4H69z M72.5,24.3h1.7c0.6,0,1-0.2,1.3-0.5c0.3-0.3,0.4-0.9,0.4-1.6v-3.4c0-0.8-0.1-1.3-0.4-1.6
		c-0.3-0.3-0.7-0.5-1.3-0.5h-1.7V24.3z"/>
	<path class="st0" d="M81.1,35.9V13.5h9.6v3.2h-6.1v6.3h4.8v3.2h-4.8v6.6h6.1v3.2H81.1z"/>
	<path class="st0" d="M92.5,27.8v-6.1c0-1.8,0.4-3.2,1.3-4.1c0.9-0.9,2.2-1.4,3.9-1.4h1.3v-2.8h3.5v2.8h1.3c1.7,0,3.1,0.5,3.9,1.4
		c0.9,0.9,1.3,2.3,1.3,4.1v6.1c0,1.8-0.4,3.2-1.3,4.1c-0.9,0.9-2.2,1.4-3.9,1.4h-1.3v2.5h-3.5v-2.5h-1.3c-1.7,0-3-0.5-3.9-1.4
		C93,31,92.5,29.6,92.5,27.8z M96.1,28.1c0,1.5,0.6,2.3,1.7,2.3h1.3v-11h-1.3c-0.6,0-1,0.2-1.3,0.5c-0.3,0.3-0.4,0.9-0.4,1.7V28.1z
		 M102.6,30.3h1.3c1.2,0,1.8-0.8,1.8-2.3v-6.6c0-1.5-0.6-2.2-1.8-2.2h-1.3V30.3z"/>
	<path class="st0" d="M111.2,30.5V18.9c0-1.8,0.5-3.2,1.4-4.2c0.9-1,2.2-1.5,4-1.5c1.7,0,3,0.5,4,1.5c0.9,1,1.4,2.4,1.4,4.2v11.7
		c0,1.8-0.5,3.2-1.4,4.2s-2.2,1.5-4,1.5c-1.7,0-3-0.5-4-1.5C111.6,33.7,111.2,32.3,111.2,30.5z M114.7,30.7c0,1.5,0.6,2.2,1.8,2.2
		c1.2,0,1.8-0.7,1.8-2.2V18.6c0-1.5-0.6-2.2-1.8-2.2c-1.2,0-1.8,0.7-1.8,2.2V30.7z"/>
	<path class="st0" d="M124.1,35.9V13.5h5.2c1.7,0,3,0.5,3.9,1.4c0.9,0.9,1.3,2.3,1.3,4.1v2.9c0,1.8-0.4,3.2-1.3,4.1
		c-0.9,0.9-2.2,1.4-3.9,1.4h-1.7v8.4H124.1z M127.7,24.3h1.7c0.6,0,1-0.2,1.3-0.5c0.3-0.3,0.4-0.9,0.4-1.6v-3.4
		c0-0.8-0.1-1.3-0.4-1.6c-0.3-0.3-0.7-0.5-1.3-0.5h-1.7V24.3z"/>
	<path class="st0" d="M136.2,35.9V13.5h4.9l2.6,16l2.4-16h5.1v22.4h-3.5V19.8l-2.4,16.1h-3.3l-2.6-15.8v15.8H136.2z"/>
	<path class="st0" d="M152.6,35.9l3.6-22.4h5.4l3.6,22.4h-3.5l-0.6-4.1h-4.3l-0.6,4.1H152.6z M157.2,28.8h3.4l-1.7-11.3L157.2,28.8z
		"/>
	<path class="st0" d="M165.5,16.7v-3.2h10.9v3.2h-3.7v19.2h-3.5V16.7H165.5z"/>
	<path class="st0" d="M177.6,30.5V18.9c0-1.8,0.4-3.2,1.3-4.2c0.9-1,2.2-1.5,3.9-1.5s3.1,0.5,4,1.5c0.9,1,1.4,2.4,1.4,4.2v2.2h-3.5
		v-2.4c0-1.5-0.6-2.2-1.8-2.2c-1.2,0-1.8,0.7-1.8,2.2v12.1c0,1.5,0.6,2.2,1.8,2.2c1.2,0,1.8-0.7,1.8-2.2v-3.2h3.5v3
		c0,1.8-0.5,3.2-1.4,4.2c-0.9,1-2.3,1.5-4,1.5s-3-0.5-3.9-1.5C178.1,33.7,177.6,32.3,177.6,30.5z"/>
	<path class="st0" d="M190.3,35.9V13.5h3.5v9.8l4.6-9.8h3.5l-4.9,10l4.9,12.4h-3.6l-3.4-8.9l-1.1,2v6.9H190.3z"/>
	<path class="st0" d="M203.5,35.9V13.5h3.1v14.2l1.3-4.9l2.9-9.3h4.2v22.4h-3.5V20.2l-1.4,5.5l-3,10.3H203.5z"/>
	<path class="st0" d="M217.1,13.5h3.1v14.2l1.3-4.9l2.9-9.2h3.9v22.4h-3.2l0.1-15.8l-1.4,5.5l-3.1,10.2h-3.6V13.5z M220.1,11.1
		c0.6,0.6,1.5,0.9,2.7,0.9c1.2,0,2.2-0.3,2.8-0.9c0.6-0.6,1-1.5,1-2.6h-2.1c0,0.6-0.2,0.9-0.5,1.2c-0.3,0.2-0.6,0.3-1.2,0.3
		c-0.5,0-0.9-0.1-1.1-0.3c-0.2-0.2-0.4-0.6-0.4-1.2h-2.2C219.1,9.6,219.4,10.5,220.1,11.1z"/>
	<path class="st0" d="M235.8,35.9V13.5h5.3c1.8,0,3.1,0.4,4,1.3c0.8,0.8,1.3,2.1,1.3,3.9v0.8c0,2.3-0.8,3.8-2.3,4.5
		c1.8,0.7,2.6,2.3,2.6,4.8v1.8c0,1.7-0.5,3-1.4,4s-2.2,1.4-4,1.4H235.8z M239.3,22.6h1.4c0.7,0,1.2-0.2,1.6-0.5
		c0.4-0.4,0.5-1,0.5-1.8V19c0-0.8-0.1-1.4-0.4-1.8c-0.3-0.4-0.7-0.6-1.4-0.6h-1.7V22.6z M239.3,32.7h2c0.6,0,1.1-0.2,1.4-0.5
		c0.3-0.3,0.5-0.9,0.5-1.7v-2c0-1-0.2-1.7-0.5-2.1c-0.3-0.4-0.9-0.6-1.7-0.6h-1.6V32.7z"/>
	<path class="st0" d="M248.6,30.5v-2.5h3.5v2.7c0,1.5,0.6,2.2,1.8,2.2c0.6,0,1.1-0.2,1.4-0.6c0.3-0.4,0.5-1,0.5-2v-1.8
		c0-1-0.2-1.8-0.5-2.2s-0.9-0.7-1.8-0.7h-0.9v-3.2h1.1c0.7,0,1.2-0.2,1.6-0.5c0.4-0.4,0.5-1,0.5-1.8V19c0-1-0.2-1.6-0.5-2
		c-0.3-0.4-0.8-0.6-1.4-0.6c-1.2,0-1.8,0.7-1.8,2.2v1.8h-3.4v-1.7c0-1.8,0.5-3.2,1.4-4.1c0.9-1,2.2-1.4,4-1.4c1.7,0,3,0.5,3.9,1.5
		c0.9,1,1.3,2.4,1.3,4.2v0.6c0,2.4-0.8,3.9-2.5,4.6c1.6,0.7,2.5,2.3,2.5,4.7v1.8c0,1.8-0.4,3.2-1.3,4.2s-2.2,1.5-3.9,1.5
		c-1.7,0-3-0.5-4-1.5C249.1,33.7,248.6,32.3,248.6,30.5z"/>
	<path class="st0" d="M261.5,35.9V13.5h9.3v3.2H265v19.2H261.5z"/>
	<path class="st0" d="M272.2,35.9v-3.2c0.4,0,0.8,0,1-0.1s0.4-0.1,0.6-0.3c0.2-0.2,0.3-0.4,0.4-0.7s0.1-0.7,0.1-1.2l0.4-16.9h10.1
		v22.4h-3.5V16.7h-3l-0.4,13.5c-0.1,2-0.5,3.5-1.3,4.4s-2.1,1.3-3.8,1.3H272.2z"/>
	<path class="st0" d="M287,35.9c0.2-0.6,0.3-1.5,0.3-2.7v-3.5c0-1.2,0.2-2.3,0.5-3c0.4-0.8,1-1.4,1.8-1.7c-1.5-0.7-2.3-2.2-2.3-4.5
		v-1.8c0-1.8,0.4-3,1.3-3.9c0.8-0.8,2.2-1.3,4-1.3h5.3v22.4h-3.5v-9.1h-1.2c-0.8,0-1.4,0.2-1.8,0.7c-0.4,0.4-0.5,1.2-0.5,2.2v3.5
		c0,0.6,0,1-0.1,1.4c0,0.4-0.1,0.6-0.1,0.8s-0.1,0.3-0.2,0.6H287z M290.8,21.2c0,0.9,0.2,1.5,0.5,1.8c0.4,0.4,0.9,0.5,1.6,0.5h1.4
		v-6.9h-1.7c-0.6,0-1.1,0.2-1.4,0.6c-0.3,0.4-0.4,1-0.4,1.8V21.2z"/>
	<path class="st0" d="M299.6,38.9v-6.2h1.4c0.3-0.4,0.5-0.8,0.6-1.2c0.1-0.4,0.2-1,0.2-1.7l0.6-16.3h10v19.2h1.5v6.2h-3.5v-3h-7.5v3
		H299.6z M304.4,32.7h4.6v-16h-3l-0.6,13.1c0,0.8-0.1,1.4-0.3,1.9C304.9,32.1,304.7,32.4,304.4,32.7z"/>
</g>
</svg>
