<?xml version="1.0" encoding="utf-8"?>
<!-- Generator: Adobe Illustrator 21.0.0, SVG Export Plug-In . SVG Version: 6.00 Build 0)  -->
<svg version="1.1" id="Слой_1" xmlns="http://www.w3.org/2000/svg" xmlns:xlink="http://www.w3.org/1999/xlink" x="0px" y="0px"
	 width="330px" height="50px" viewBox="0 0 330 50" style="enable-background:new 0 0 330 50;" xml:space="preserve">
<style type="text/css">
	.st0{fill:#451414;}
	.st1{fill:#FFFFFF;}
</style>
<g>
	<circle class="st0" cx="25.5" cy="25" r="24.5"/>
	<g>
		<g>
			<g>
				<polygon class="st1" points="10.2,17.2 7.6,16.8 7.7,34.1 21.2,36.8 10.1,31.9 				"/>
				<polygon class="st1" points="14.4,15 11.7,13.7 11.8,30.8 22.9,35.9 14.3,30 				"/>
				<polygon class="st1" points="39.3,13.7 36.6,15 36.6,30 28.1,35.9 39.2,30.8 				"/>
				<polygon class="st1" points="40.7,17.2 40.8,31.9 29.8,36.8 43.2,34.1 43.3,16.8 				"/>
			</g>
		</g>
		<polygon class="st1" points="34.2,19.4 26.4,19.4 26.4,11.7 24.5,11.7 24.5,19.4 16.7,19.4 16.7,21.3 24.5,21.3 24.5,45.5 
			26.4,45.5 26.4,21.3 34.2,21.3 		"/>
	</g>
</g>
<g>
	<path class="st0" d="M67.1,36.3V13.9h5.3c1.8,0,3.1,0.4,4,1.3c0.8,0.8,1.3,2.1,1.3,3.9v1.8c0,2.3-0.8,3.8-2.3,4.5
		c0.8,0.4,1.4,0.9,1.8,1.7c0.4,0.8,0.5,1.8,0.5,3v3.5c0,1.2,0.1,2.1,0.3,2.7h-3.5c-0.1-0.3-0.1-0.5-0.2-0.6c0-0.1-0.1-0.4-0.1-0.8
		c0-0.4-0.1-0.8-0.1-1.4v-3.5c0-1-0.2-1.8-0.5-2.2c-0.4-0.4-0.9-0.7-1.8-0.7h-1.2v9.1H67.1z M70.7,24H72c0.7,0,1.2-0.2,1.6-0.5
		c0.4-0.4,0.5-1,0.5-1.8v-2.2c0-0.8-0.1-1.4-0.4-1.8c-0.3-0.4-0.7-0.6-1.4-0.6h-1.7V24z"/>
	<path class="st0" d="M80.5,36.3V13.9h9.6v3.2H84v6.3h4.8v3.2H84v6.6h6.1v3.2H80.5z"/>
	<path class="st0" d="M92.7,36.3V13.9h9.3v3.2h-5.8v6.8h4.5v3.2h-4.5v9.3H92.7z"/>
	<path class="st0" d="M103.9,31V19.3c0-1.8,0.5-3.2,1.4-4.2c0.9-1,2.2-1.5,4-1.5s3,0.5,4,1.5c0.9,1,1.4,2.4,1.4,4.2V31
		c0,1.8-0.5,3.2-1.4,4.2c-0.9,1-2.2,1.5-4,1.5s-3-0.5-4-1.5C104.4,34.1,103.9,32.7,103.9,31z M107.4,31.2c0,1.5,0.6,2.2,1.8,2.2
		c1.2,0,1.8-0.7,1.8-2.2V19.1c0-1.5-0.6-2.2-1.8-2.2c-1.2,0-1.8,0.7-1.8,2.2V31.2z"/>
	<path class="st0" d="M117.4,36.3V13.9h5.3c1.8,0,3.1,0.4,4,1.3c0.8,0.8,1.3,2.1,1.3,3.9v1.8c0,2.3-0.8,3.8-2.3,4.5
		c0.8,0.4,1.4,0.9,1.8,1.7c0.4,0.8,0.5,1.8,0.5,3v3.5c0,1.2,0.1,2.1,0.3,2.7h-3.5c-0.1-0.3-0.1-0.5-0.2-0.6c0-0.1-0.1-0.4-0.1-0.8
		c0-0.4-0.1-0.8-0.1-1.4v-3.5c0-1-0.2-1.8-0.5-2.2c-0.4-0.4-0.9-0.7-1.8-0.7h-1.2v9.1H117.4z M120.9,24h1.4c0.7,0,1.2-0.2,1.6-0.5
		c0.4-0.4,0.5-1,0.5-1.8v-2.2c0-0.8-0.1-1.4-0.4-1.8c-0.3-0.4-0.7-0.6-1.4-0.6h-1.7V24z"/>
	<path class="st0" d="M130.7,36.3V13.9h4.9l2.6,16l2.4-16h5.1v22.4h-3.5V20.3l-2.4,16.1h-3.3l-2.6-15.8v15.8H130.7z"/>
	<path class="st0" d="M148.5,36.3V13.9h9.6v3.2H152v6.3h4.8v3.2H152v6.6h6.1v3.2H148.5z"/>
	<path class="st0" d="M160.7,36.3V13.9h5.6c1.7,0,3,0.5,3.9,1.4c0.9,0.9,1.3,2.3,1.3,4.1v11.3c0,1.8-0.4,3.2-1.3,4.1
		c-0.9,0.9-2.2,1.4-3.9,1.4H160.7z M164.2,33.1h2c0.6,0,1-0.2,1.3-0.5c0.3-0.3,0.5-0.9,0.5-1.7V19.3c0-0.8-0.2-1.3-0.5-1.7
		c-0.3-0.3-0.8-0.5-1.3-0.5h-2V33.1z"/>
	<path class="st0" d="M179.7,36.3V13.9h5.2c1.7,0,3,0.5,3.9,1.4c0.9,0.9,1.3,2.3,1.3,4.1v2.9c0,1.8-0.4,3.2-1.3,4.1
		c-0.9,0.9-2.2,1.4-3.9,1.4h-1.7v8.4H179.7z M183.2,24.7h1.7c0.6,0,1-0.2,1.3-0.5c0.3-0.3,0.4-0.9,0.4-1.6v-3.4
		c0-0.8-0.1-1.3-0.4-1.6c-0.3-0.3-0.7-0.5-1.3-0.5h-1.7V24.7z"/>
	<path class="st0" d="M192.4,36.3V13.9h9.6v3.2h-6.1v6.3h4.8v3.2h-4.8v6.6h6.1v3.2H192.4z"/>
	<path class="st0" d="M204.6,36.3V13.9h5.3c1.8,0,3.1,0.4,4,1.3c0.8,0.8,1.3,2.1,1.3,3.9v1.8c0,2.3-0.8,3.8-2.3,4.5
		c0.8,0.4,1.4,0.9,1.8,1.7c0.4,0.8,0.5,1.8,0.5,3v3.5c0,1.2,0.1,2.1,0.3,2.7H212c-0.1-0.3-0.1-0.5-0.2-0.6c0-0.1-0.1-0.4-0.1-0.8
		c0-0.4-0.1-0.8-0.1-1.4v-3.5c0-1-0.2-1.8-0.5-2.2c-0.4-0.4-0.9-0.7-1.8-0.7h-1.2v9.1H204.6z M208.1,24h1.4c0.7,0,1.2-0.2,1.6-0.5
		c0.4-0.4,0.5-1,0.5-1.8v-2.2c0-0.8-0.1-1.4-0.4-1.8c-0.3-0.4-0.7-0.6-1.4-0.6h-1.7V24z"/>
	<path class="st0" d="M217.4,31v-1.4h3.6v1.6c0,1.5,0.6,2.2,1.7,2.2s1.7-0.7,1.7-2.2c0-0.6-0.1-1.2-0.4-1.8c-0.3-0.6-0.6-1-1-1.5
		c-0.4-0.4-0.8-0.9-1.3-1.3c-0.5-0.4-1-0.9-1.5-1.4s-1-1-1.4-1.5c-0.4-0.5-0.7-1.2-1-1.9s-0.4-1.6-0.4-2.4c0-1.8,0.5-3.2,1.4-4.2
		c1-1,2.2-1.5,3.9-1.5c1.6,0,2.9,0.5,3.8,1.5c0.9,1,1.3,2.4,1.3,4.2V20h-3.3v-0.9c0-1.5-0.6-2.2-1.8-2.2c-0.6,0-1,0.2-1.3,0.5
		c-0.3,0.3-0.4,0.9-0.4,1.7c0,0.6,0.1,1.2,0.4,1.8c0.3,0.6,0.6,1,1,1.5c0.4,0.4,0.9,0.9,1.3,1.3c0.5,0.4,1,0.9,1.5,1.4
		c0.5,0.5,0.9,1,1.3,1.5c0.4,0.5,0.7,1.2,1,1.9c0.3,0.8,0.4,1.6,0.4,2.4c0,1.8-0.4,3.2-1.3,4.2c-0.9,1-2.2,1.5-3.8,1.5
		c-1.6,0-2.9-0.5-3.9-1.5C217.9,34.1,217.4,32.8,217.4,31z"/>
	<path class="st0" d="M230.4,36.3V13.9h5.2c1.7,0,3,0.5,3.9,1.4c0.9,0.9,1.3,2.3,1.3,4.1v2.9c0,1.8-0.4,3.2-1.3,4.1
		c-0.9,0.9-2.2,1.4-3.9,1.4h-1.7v8.4H230.4z M233.9,24.7h1.7c0.6,0,1-0.2,1.3-0.5c0.3-0.3,0.4-0.9,0.4-1.6v-3.4
		c0-0.8-0.1-1.3-0.4-1.6c-0.3-0.3-0.7-0.5-1.3-0.5h-1.7V24.7z"/>
	<path class="st0" d="M243.1,36.3V13.9h9.6v3.2h-6.1v6.3h4.8v3.2h-4.8v6.6h6.1v3.2H243.1z"/>
	<path class="st0" d="M255.1,31V19.3c0-1.8,0.4-3.2,1.3-4.2c0.9-1,2.2-1.5,3.9-1.5s3.1,0.5,4,1.5c0.9,1,1.4,2.4,1.4,4.2v2.2h-3.5
		v-2.4c0-1.5-0.6-2.2-1.8-2.2c-1.2,0-1.8,0.7-1.8,2.2v12.1c0,1.5,0.6,2.2,1.8,2.2c1.2,0,1.8-0.7,1.8-2.2V28h3.5v3
		c0,1.8-0.5,3.2-1.4,4.2c-0.9,1-2.3,1.5-4,1.5s-3-0.5-3.9-1.5C255.5,34.1,255.1,32.8,255.1,31z"/>
	<path class="st0" d="M267.1,17.1v-3.2H278v3.2h-3.7v19.2h-3.5V17.1H267.1z"/>
	<path class="st0" d="M280,36.3V13.9h3.5v22.4H280z"/>
	<path class="st0" d="M285.7,13.9h3.5l2.7,18.3l2.7-18.3h3.5l-3.5,22.4h-5.5L285.7,13.9z"/>
	<path class="st0" d="M299.9,36.3V13.9h9.6v3.2h-6.1v6.3h4.8v3.2h-4.8v6.6h6.1v3.2H299.9z"/>
</g>
</svg>
