<?xml version="1.0" encoding="utf-8"?>
<!-- Generator: Adobe Illustrator 21.0.0, SVG Export Plug-In . SVG Version: 6.00 Build 0)  -->
<svg version="1.1" id="Слой_1" xmlns="http://www.w3.org/2000/svg" xmlns:xlink="http://www.w3.org/1999/xlink" x="0px" y="0px"
	 viewBox="0 0 260 40" style="enable-background:new 0 0 260 40;" xml:space="preserve">
<style type="text/css">
	.st0{fill:#631212;}
	.st1{fill:#FFFFFF;}
</style>
<g>
	<path class="st0" d="M14.3,36.4l-11-11c-3.1-3.1-3.1-8.2,0-11.3l11-11c3.1-3.1,8.2-3.1,11.3,0l11,11c3.1,3.1,3.1,8.2,0,11.3l-11,11
		C22.5,39.6,17.4,39.6,14.3,36.4z"/>
	<path id="XMLID_22_" class="st1" d="M13,30.3l-3.6-3.6c-3.8-3.8-3.8-10.1,0-13.9L13,9.1c3.8-3.8,10.1-3.8,13.9,0l3.6,3.6
		c3.8,3.8,3.8,10.1,0,13.9l-3.6,3.6C23.1,34.2,16.9,34.2,13,30.3z"/>
	<path class="st0" d="M9.7,24.7V14.6c0-2.9,2.4-5.2,5.2-5.2H25c2.9,0,5.2,2.4,5.2,5.2v10.1c0,2.9-2.4,5.2-5.2,5.2H14.9
		C12,30,9.6,27.6,9.7,24.7z"/>
	<path id="XMLID_1_" class="st1" d="M11.9,21.3V18c0-3.5,2.9-6.4,6.4-6.4l3.4,0c3.5,0,6.4,2.9,6.4,6.4v3.3c0,3.5-2.9,6.4-6.4,6.4
		h-3.3C14.7,27.8,11.9,24.9,11.9,21.3z"/>
	<path class="st0" d="M17.5,26.7L12.8,22c-1.3-1.3-1.3-3.5,0-4.8l4.7-4.7c1.3-1.3,3.5-1.3,4.8,0l4.7,4.7c1.3,1.3,1.3,3.5,0,4.8
		l-4.7,4.7C21,28.1,18.9,28.1,17.5,26.7z"/>
	<path id="XMLID_2_" class="st1" d="M17,24.1l-1.5-1.5c-1.6-1.6-1.6-4.3,0-5.9l1.5-1.6c1.6-1.6,4.3-1.6,5.9,0l1.5,1.5
		c1.6,1.6,1.6,4.3,0,5.9l-1.5,1.5C21.3,25.8,18.6,25.8,17,24.1z"/>
	<path class="st0" d="M15.4,21.9v-4.5c0-1.3,1.1-2.3,2.3-2.3h4.5c1.3,0,2.3,1.1,2.3,2.3l0,4.5c0,1.3-1.1,2.3-2.3,2.3h-4.5
		C16.4,24.2,15.3,23.2,15.4,21.9z"/>
	<path id="XMLID_3_" class="st1" d="M16.3,20.4v-1.5c0-1.6,1.3-2.9,2.9-2.9l1.5,0c1.6,0,2.9,1.3,2.9,2.9v1.5c0,1.6-1.3,2.9-2.9,2.9
		h-1.5C17.6,23.3,16.3,22,16.3,20.4z"/>
	<path class="st0" d="M18.9,22.8l-2.1-2.1c-0.6-0.6-0.6-1.6,0-2.1l2.1-2.1c0.6-0.6,1.6-0.6,2.1,0l2.1,2.1c0.6,0.6,0.6,1.6,0,2.1
		L21,22.8C20.4,23.4,19.5,23.4,18.9,22.8z"/>
	<path id="XMLID_4_" class="st1" d="M18.6,21.6L17.9,21c-0.7-0.7-0.7-1.9,0-2.6l0.7-0.7c0.7-0.7,1.9-0.7,2.6,0l0.7,0.7
		c0.7,0.7,0.7,1.9,0,2.6l-0.7,0.7C20.6,22.4,19.4,22.4,18.6,21.6z"/>
	<path class="st0" d="M18,20.6v-1.9c0-0.5,0.5-1,1-1h1.9c0.5,0,1,0.5,1,1v1.9c0,0.5-0.5,1-1,1H19C18.4,21.6,18,21.2,18,20.6z"/>
	<path id="XMLID_5_" class="st1" d="M18.4,19.9v-0.6c0-0.7,0.6-1.2,1.2-1.2l0.6,0c0.7,0,1.2,0.6,1.2,1.2v0.6c0,0.7-0.6,1.2-1.2,1.2
		h-0.6C18.9,21.2,18.4,20.6,18.4,19.9z"/>
</g>
<g>
	<path class="st0" d="M55.8,28.5V11h4.1c1.4,0,2.4,0.3,3.1,1s1,1.7,1,3v1.4c0,1.8-0.6,3-1.8,3.6c0.7,0.3,1.1,0.7,1.4,1.3
		s0.4,1.4,0.4,2.4v2.7c0,1,0.1,1.7,0.3,2.1h-2.7c-0.1-0.2-0.1-0.4-0.1-0.5c0-0.1-0.1-0.3-0.1-0.6c0-0.3,0-0.7,0-1.1v-2.7
		c0-0.8-0.1-1.4-0.4-1.7c-0.3-0.3-0.7-0.5-1.4-0.5h-1v7.1H55.8z M58.5,18.9h1.1c0.5,0,1-0.1,1.2-0.4c0.3-0.3,0.4-0.8,0.4-1.4v-1.7
		c0-0.6-0.1-1.1-0.3-1.4c-0.2-0.3-0.6-0.4-1.1-0.4h-1.3V18.9z"/>
	<path class="st0" d="M66.2,28.5V11h7.5v2.5H69v4.9h3.8v2.5H69V26h4.7v2.5H66.2z"/>
	<path class="st0" d="M75.8,28.5V11h7.3v2.5h-4.5v5.3h3.6v2.5h-3.6v7.2H75.8z"/>
	<path class="st0" d="M84.5,24.3v-9.1c0-1.4,0.4-2.5,1.1-3.2c0.7-0.8,1.8-1.1,3.1-1.1c1.3,0,2.4,0.4,3.1,1.1
		c0.7,0.8,1.1,1.8,1.1,3.2v9.1c0,1.4-0.4,2.5-1.1,3.2s-1.7,1.1-3.1,1.1c-1.3,0-2.4-0.4-3.1-1.1S84.5,25.7,84.5,24.3z M87.3,24.5
		c0,1.2,0.5,1.7,1.4,1.7c0.9,0,1.4-0.6,1.4-1.7V15c0-1.1-0.5-1.7-1.4-1.7c-1,0-1.4,0.6-1.4,1.7V24.5z"/>
	<path class="st0" d="M95,28.5V11h4.1c1.4,0,2.4,0.3,3.1,1s1,1.7,1,3v1.4c0,1.8-0.6,3-1.8,3.6c0.7,0.3,1.1,0.7,1.4,1.3
		s0.4,1.4,0.4,2.4v2.7c0,1,0.1,1.7,0.3,2.1h-2.7c-0.1-0.2-0.1-0.4-0.1-0.5c0-0.1-0.1-0.3-0.1-0.6c0-0.3,0-0.7,0-1.1v-2.7
		c0-0.8-0.1-1.4-0.4-1.7c-0.3-0.3-0.7-0.5-1.4-0.5h-1v7.1H95z M97.8,18.9h1.1c0.5,0,1-0.1,1.2-0.4c0.3-0.3,0.4-0.8,0.4-1.4v-1.7
		c0-0.6-0.1-1.1-0.3-1.4c-0.2-0.3-0.6-0.4-1.1-0.4h-1.3V18.9z"/>
	<path class="st0" d="M105.4,28.5V11h3.8l2,12.5l1.9-12.5h4v17.5h-2.7V16l-1.9,12.5h-2.6l-2.1-12.3v12.3H105.4z"/>
	<path class="st0" d="M119.3,28.5V11h7.5v2.5h-4.7v4.9h3.8v2.5h-3.8V26h4.7v2.5H119.3z"/>
	<path class="st0" d="M128.9,28.5V11h4.3c1.4,0,2.4,0.4,3.1,1.1c0.7,0.7,1,1.8,1,3.2v8.9c0,1.4-0.3,2.5-1,3.2
		c-0.7,0.7-1.7,1.1-3.1,1.1H128.9z M131.7,26h1.5c0.5,0,0.8-0.1,1-0.4c0.2-0.3,0.4-0.7,0.4-1.3v-9.1c0-0.6-0.1-1-0.4-1.3
		c-0.2-0.3-0.6-0.4-1-0.4h-1.5V26z"/>
	<path class="st0" d="M143.7,28.5V11h4c1.4,0,2.4,0.4,3.1,1.1c0.7,0.7,1,1.8,1,3.2v2.3c0,1.4-0.3,2.5-1,3.2
		c-0.7,0.7-1.7,1.1-3.1,1.1h-1.3v6.6H143.7z M146.5,19.4h1.3c0.5,0,0.8-0.1,1-0.4c0.2-0.3,0.3-0.7,0.3-1.3v-2.6c0-0.6-0.1-1-0.3-1.3
		c-0.2-0.2-0.6-0.4-1-0.4h-1.3V19.4z"/>
	<path class="st0" d="M153.6,28.5V11h7.5v2.5h-4.7v4.9h3.8v2.5h-3.8V26h4.7v2.5H153.6z"/>
	<path class="st0" d="M163.2,28.5V11h4.1c1.4,0,2.4,0.3,3.1,1s1,1.7,1,3v1.4c0,1.8-0.6,3-1.8,3.6c0.7,0.3,1.1,0.7,1.4,1.3
		s0.4,1.4,0.4,2.4v2.7c0,1,0.1,1.7,0.3,2.1H169c-0.1-0.2-0.1-0.4-0.1-0.5c0-0.1-0.1-0.3-0.1-0.6c0-0.3,0-0.7,0-1.1v-2.7
		c0-0.8-0.1-1.4-0.4-1.7c-0.3-0.3-0.7-0.5-1.4-0.5h-1v7.1H163.2z M166,18.9h1.1c0.5,0,1-0.1,1.2-0.4c0.3-0.3,0.4-0.8,0.4-1.4v-1.7
		c0-0.6-0.1-1.1-0.3-1.4c-0.2-0.3-0.6-0.4-1.1-0.4H166V18.9z"/>
	<path class="st0" d="M173.2,24.3v-1.1h2.8v1.2c0,1.1,0.4,1.7,1.3,1.7s1.3-0.6,1.3-1.7c0-0.5-0.1-0.9-0.3-1.4
		c-0.2-0.4-0.4-0.8-0.8-1.2c-0.3-0.3-0.6-0.7-1-1c-0.4-0.3-0.8-0.7-1.2-1.1c-0.4-0.4-0.8-0.8-1.1-1.2c-0.3-0.4-0.6-0.9-0.8-1.5
		s-0.3-1.2-0.3-1.9c0-1.4,0.4-2.5,1.1-3.3c0.7-0.8,1.8-1.1,3-1.1s2.2,0.4,2.9,1.1c0.7,0.8,1,1.8,1,3.3v0.6h-2.6V15
		c0-1.1-0.5-1.7-1.4-1.7c-0.5,0-0.8,0.1-1,0.4c-0.2,0.3-0.3,0.7-0.3,1.3c0,0.5,0.1,0.9,0.3,1.4c0.2,0.4,0.5,0.8,0.8,1.2
		c0.3,0.3,0.7,0.7,1,1c0.4,0.3,0.8,0.7,1.2,1.1c0.4,0.4,0.7,0.8,1,1.2c0.3,0.4,0.6,0.9,0.8,1.5s0.3,1.2,0.3,1.9
		c0,1.4-0.4,2.5-1.1,3.3c-0.7,0.8-1.7,1.1-3,1.1c-1.3,0-2.3-0.4-3.1-1.1C173.6,26.8,173.2,25.7,173.2,24.3z"/>
	<path class="st0" d="M183.3,28.5V11h4c1.4,0,2.4,0.4,3.1,1.1c0.7,0.7,1,1.8,1,3.2v2.3c0,1.4-0.3,2.5-1,3.2
		c-0.7,0.7-1.7,1.1-3.1,1.1h-1.3v6.6H183.3z M186.1,19.4h1.3c0.5,0,0.8-0.1,1-0.4c0.2-0.3,0.3-0.7,0.3-1.3v-2.6c0-0.6-0.1-1-0.3-1.3
		c-0.2-0.2-0.6-0.4-1-0.4h-1.3V19.4z"/>
	<path class="st0" d="M193.3,28.5V11h7.5v2.5H196v4.9h3.8v2.5H196V26h4.7v2.5H193.3z"/>
	<path class="st0" d="M202.6,24.3v-9.1c0-1.4,0.3-2.5,1-3.3c0.7-0.8,1.7-1.1,3.1-1.1c1.3,0,2.4,0.4,3.1,1.1c0.7,0.8,1.1,1.8,1.1,3.3
		v1.7h-2.7V15c0-1.1-0.5-1.7-1.4-1.7c-1,0-1.4,0.6-1.4,1.7v9.4c0,1.1,0.5,1.7,1.4,1.7c0.9,0,1.4-0.6,1.4-1.7V22h2.7v2.3
		c0,1.4-0.4,2.5-1.1,3.3s-1.8,1.1-3.1,1.1c-1.3,0-2.4-0.4-3.1-1.1C202.9,26.8,202.6,25.7,202.6,24.3z"/>
	<path class="st0" d="M212,13.5V11h8.5v2.5h-2.9v15h-2.7v-15H212z"/>
	<path class="st0" d="M222.1,28.5V11h2.7v17.5H222.1z"/>
	<path class="st0" d="M226.5,11h2.7l2.1,14.3l2.1-14.3h2.7l-2.7,17.5h-4.3L226.5,11z"/>
	<path class="st0" d="M237.7,28.5V11h7.5v2.5h-4.7v4.9h3.8v2.5h-3.8V26h4.7v2.5H237.7z"/>
</g>
</svg>
