<?xml version="1.0" encoding="utf-8"?>
<!-- Generator: Adobe Illustrator 21.0.0, SVG Export Plug-In . SVG Version: 6.00 Build 0)  -->
<svg version="1.1" id="Слой_1" xmlns="http://www.w3.org/2000/svg" xmlns:xlink="http://www.w3.org/1999/xlink" x="0px" y="0px"
	 width="312px" height="120px" viewBox="0 0 312 120" style="enable-background:new 0 0 312 120;" xml:space="preserve">
<style type="text/css">
	.st0{fill:#FFFFFF;}
</style>
<path id="XMLID_136_" class="st0" d="M66.5,93.3c0,0.4,0.1,0.8,0.2,1.1c-4-0.4-7.6-1.6-10.8-3.5c7.8-5.2,12.9-14,12.9-24.2
	c0-10.2-5.2-19.1-13.1-24.2c3.2-1.9,7-3.2,10.9-3.5c-0.1,0.4-0.2,0.7-0.2,1.1c0,1.3,1.1,2.4,2.4,2.4c2-0.1,3.1-2.3,9.5-4.8
	c-0.6,0-8,0-9.5,0c-5.3,0-10.3,1.4-14.5,4c-4-2.3-8.4-3.6-13.2-3.8v-1.2c0-6,2-11.5,5.5-16.1c1,0.6,2.4,0.6,3.5,0
	c0.6-0.4,1.8-1.1,1.8-1.2c-0.5-0.7-1-1.4-1.3-1.9c0-0.1-0.1-0.1-0.1-0.2c0.5,0.4,1,0.5,1.6,0.5c1.3,0,2.4-1,2.4-2.2c0-0.6,0-2,0-2.2
	l0,0v-2.6c-6,3.5-10.5,8.6-13.2,14.6V9.1l4-4L40.1,0L35,5.2l4,4v16.3c-2.6-6-7.3-11.1-13.2-14.6v2.6l0,0c0,0.1,0,1.6,0,2.2
	c0,1.2,1.1,2.2,2.4,2.2c0.6,0,1.1-0.2,1.6-0.5c0,0-0.1,0.1-0.1,0.2c-0.4,0.6-0.8,1.2-1.3,1.9c-0.1,0.1,1.2,0.8,1.8,1.2
	c1,0.6,2.5,0.6,3.5,0c3.5,4.6,5.5,10.2,5.5,16.1v1.2c-4.8,0.2-9.4,1.6-13.2,3.8c-4.3-2.5-9.2-4-14.5-4c-1.3,0-8.8,0-9.5,0
	c6.4,2.6,7.4,4.8,9.5,4.8c1.3,0,2.4-1.1,2.4-2.4c0-0.4-0.1-0.8-0.2-1.1c4,0.4,7.7,1.6,10.9,3.5c-7.9,5.2-13.1,14.1-13.1,24.2
	S16.5,85.7,24.3,91c-3.2,1.9-7,3.1-10.8,3.5c0.1-0.4,0.2-0.7,0.2-1.1c0-1.3-1.1-2.4-2.4-2.4c-2,0.1-3.1,2.3-9.5,4.8c0.6,0,8,0,9.5,0
	c5.3,0,10.2-1.4,14.4-3.8c4,2.3,8.5,3.7,13.3,3.8v15.1l-4,4l5.2,5.2l5.2-5.2l-4-4V95.8c4.8-0.2,9.4-1.6,13.3-3.8
	c4.2,2.4,9.2,3.8,14.4,3.8c1.3,0,8.8,0,9.5,0c-6.4-2.6-7.4-4.8-9.5-4.8C67.6,90.9,66.5,91.9,66.5,93.3z M66.5,66.8
	c0,0.1,0,0.2,0,0.4c-1.8-3.1-5.2-5.3-9-5.3c-1.7,0-3,1.3-3,3c0,1.7,1.3,3,3,3s3-1.3,3-3c0-0.2,0-0.5-0.1-0.7
	c3.2,1.2,5.5,4.3,5.5,7.9c-1.6,7.3-6,13.5-12.2,17.4c-4.6-3.4-8-8.2-10-13.7l1-1l-0.6-0.6v-5.8l1.2-1.2l0,0v-4.8h1v-1.8h-3l1.4-1.4
	l-1.1-1.1c1.8-5.8,5.3-10.7,10-14C61.2,48.7,66.5,57.2,66.5,66.8z M52,43.2c-4.6,3.2-8.2,7.8-10.2,13.1l-0.7-0.7V40.3
	C45.1,40.4,48.8,41.5,52,43.2z M38.7,40.3v15.2L38,56.2c-2-5.3-5.6-9.8-10.2-13.1C31,41.5,34.7,40.4,38.7,40.3z M13.9,72.2
	c0-3.6,2.3-6.7,5.5-7.9c0,0.2-0.1,0.5-0.1,0.7c0,1.7,1.3,3,3,3s3-1.3,3-3c0-1.7-1.3-3-3-3c-3.8,0-7.2,2.2-9,5.3c0-0.1,0-0.2,0-0.4
	c0-9.7,5.2-18.1,12.9-22.8c4.6,3.4,8.2,8.3,10,14l-1.1,1.1l1.4,1.4h-3v1.8h1v4.8l0,0l1.2,1.2v5.8l-0.6,0.6l1,1
	c-1.8,5.6-5.4,10.4-10,13.7C19.9,85.7,15.3,79.5,13.9,72.2z M27.7,90.4c4.4-3.2,8-7.7,10.2-12.8l0.8,0.8v14.9
	C34.7,93.1,31,92.2,27.7,90.4z M41.1,93.4V78.5l0.8-0.8c2,5.2,5.6,9.6,10.2,12.8C48.8,92.2,45.1,93.1,41.1,93.4z"/>
<g>
	<path class="st0" d="M119.6,41.6h-4.7V46h5.3v1.3h-6.8V35.1h6.6v1.3h-5v3.8h4.7V41.6z"/>
	<path class="st0" d="M130.3,38.7c0.6-0.1,1.8-0.2,2.8-0.2c1.5,0,3.9,0.3,3.9,2.2c0,1.1-0.8,1.8-1.8,2v0c1.3,0.2,2.2,0.9,2.2,2.1
		c0,2.3-2.9,2.6-4.6,2.6c-1,0-2-0.1-2.5-0.1V38.7z M131.8,46.3c0.5,0,0.8,0.1,1.3,0.1c1.1,0,2.7-0.2,2.7-1.5c0-1.3-1.3-1.5-2.8-1.5
		h-1.2V46.3z M131.9,42.2h1.2c1.2,0,2.4-0.3,2.4-1.4c0-0.9-0.8-1.3-2.3-1.3c-0.5,0-0.9,0-1.2,0.1V42.2z"/>
	<path class="st0" d="M153.7,45.2c0,0.8,0,1.5,0.1,2.1h-1.4l-0.1-1.1h-0.1c-0.5,0.7-1.4,1.3-2.7,1.3c-1.8,0-2.7-1.2-2.7-2.5
		c0-2.1,1.9-3.3,5.2-3.2v-0.2c0-0.7-0.2-2-2-2c-0.8,0-1.7,0.2-2.3,0.6l-0.4-1.1c0.7-0.5,1.8-0.8,2.9-0.8c2.7,0,3.3,1.8,3.3,3.5V45.2
		z M152.2,42.8c-1.7,0-3.7,0.3-3.7,2c0,1,0.7,1.5,1.5,1.5c1.2,0,1.9-0.7,2.1-1.5c0.1-0.2,0.1-0.4,0.1-0.5V42.8z"/>
	<path class="st0" d="M166,38.6v3.5h4.1v-3.5h1.6v8.7h-1.6v-3.9H166v3.9h-1.6v-8.7H166z"/>
	<path class="st0" d="M187.8,38.6v1.3H184v7.5h-1.6v-8.7H187.8z"/>
	<path class="st0" d="M198.2,43.2c0,2.1,1.4,3,3,3c1.1,0,1.8-0.2,2.4-0.5l0.3,1.1c-0.6,0.3-1.5,0.6-2.9,0.6c-2.7,0-4.3-1.8-4.3-4.4
		s1.5-4.7,4.1-4.7c2.9,0,3.6,2.5,3.6,4.1c0,0.3,0,0.6-0.1,0.7H198.2z M202.8,42.1c0-1-0.4-2.6-2.2-2.6c-1.6,0-2.3,1.5-2.4,2.6H202.8
		z"/>
	<path class="st0" d="M221.1,38.6v8.7h-1.6v-7.5h-3V42c0,2.4-0.2,4.1-1.4,4.8c-0.4,0.3-0.9,0.5-1.7,0.5l-0.2-1.2
		c0.3-0.1,0.6-0.2,0.9-0.4c0.8-0.6,0.9-1.8,0.9-3.8v-3.5H221.1z"/>
	<path class="st0" d="M233.5,38.6v2.9c0.4-0.1,1-0.1,1.4-0.1c2,0,4,0.6,4,3c0,0.9-0.4,1.5-0.9,2c-1,0.8-2.5,1-3.8,1
		c-0.9,0-1.7-0.1-2.3-0.1v-8.7H233.5z M233.4,46.2c0.3,0.1,0.7,0.1,1.2,0.1c1.2,0,2.7-0.4,2.7-1.8c0-1.5-1.6-1.9-2.8-1.9
		c-0.4,0-0.8,0-1.1,0.1V46.2z"/>
	<path class="st0" d="M255.3,47c-0.4,0.2-1.3,0.5-2.5,0.5c-2.6,0-4.3-1.8-4.3-4.4c0-2.7,1.8-4.6,4.7-4.6c0.9,0,1.8,0.2,2.2,0.5
		l-0.4,1.2c-0.4-0.2-1-0.4-1.8-0.4c-2,0-3.1,1.5-3.1,3.3c0,2,1.3,3.3,3,3.3c0.9,0,1.5-0.2,1.9-0.4L255.3,47z"/>
	<path class="st0" d="M266.9,38.6v3.8h0.4l3.3-3.8h1.9l-3.8,3.9c1.4,0.2,2.3,1.1,2.9,2.7c0.2,0.6,0.5,1.4,0.9,2.1h-1.7
		c-0.2-0.4-0.5-1.1-0.8-1.8c-0.6-1.4-1.4-2.1-2.9-2.1h-0.3v3.8h-1.6v-8.7H266.9z"/>
	<path class="st0" d="M288.5,45.2c0,0.8,0,1.5,0.1,2.1h-1.4l-0.1-1.1H287c-0.5,0.7-1.4,1.3-2.7,1.3c-1.8,0-2.7-1.2-2.7-2.5
		c0-2.1,1.9-3.3,5.2-3.2v-0.2c0-0.7-0.2-2-2-2c-0.8,0-1.7,0.2-2.3,0.6l-0.4-1.1c0.7-0.5,1.8-0.8,2.9-0.8c2.7,0,3.3,1.8,3.3,3.5V45.2
		z M287,42.8c-1.7,0-3.7,0.3-3.7,2c0,1,0.7,1.5,1.5,1.5c1.2,0,1.9-0.7,2.1-1.5c0.1-0.2,0.1-0.4,0.1-0.5V42.8z"/>
	<path class="st0" d="M305.7,47.3h-1.6v-3.7H303c-0.7,0-1.1,0.2-1.4,0.5c-0.7,0.5-0.9,1.6-1.2,2.4c-0.1,0.3-0.2,0.5-0.4,0.7h-1.7
		c0.2-0.3,0.4-0.6,0.5-1c0.4-0.8,0.6-2,1.4-2.6c0.3-0.2,0.6-0.4,1-0.5v0c-1.1-0.1-2.3-0.8-2.3-2.2c0-0.9,0.5-1.5,1.2-1.9
		c0.7-0.4,1.8-0.6,2.9-0.6c1,0,2,0.1,2.8,0.2V47.3z M304.2,39.6c-0.4-0.1-0.8-0.1-1.3-0.1c-1.1,0-2.4,0.3-2.4,1.5
		c0,1.1,1.4,1.5,2.3,1.5c0.7,0,1,0,1.4,0V39.6z"/>
	<path class="st0" d="M113.8,65.5c0-1.5,0-2.7-0.1-3.8h1.9l0.1,2h0c0.8-1.4,2.2-2.2,4.1-2.2c2.8,0,4.9,2.4,4.9,5.9
		c0,4.2-2.6,6.2-5.3,6.2c-1.5,0-2.9-0.7-3.6-1.8h0V78h-2.1V65.5z M115.8,68.6c0,0.3,0,0.6,0.1,0.9c0.4,1.5,1.7,2.5,3.2,2.5
		c2.2,0,3.5-1.8,3.5-4.5c0-2.3-1.2-4.3-3.5-4.3c-1.4,0-2.8,1-3.2,2.6c-0.1,0.3-0.1,0.6-0.1,0.8V68.6z"/>
	<path class="st0" d="M132.7,67.9c0,2.9,1.8,4,4,4c1.5,0,2.4-0.3,3.2-0.6l0.4,1.5c-0.7,0.3-2,0.7-3.9,0.7c-3.6,0-5.7-2.4-5.7-5.9
		c0-3.5,2.1-6.2,5.4-6.2c3.8,0,4.8,3.3,4.8,5.4c0,0.4,0,0.7-0.1,1H132.7z M138.8,66.3c0-1.3-0.6-3.4-2.9-3.4c-2.2,0-3.1,1.9-3.2,3.4
		H138.8z"/>
	<path class="st0" d="M154.6,56.3l0,5.2c3.4,0.3,5.8,2.4,5.8,6c0,3.8-2.6,5.8-5.8,6l0,4.5h-2l0-4.5c-3.4-0.2-5.8-2.3-5.8-6
		c0-3.8,2.6-5.8,5.8-6.1l0-5.2H154.6z M152.7,62.9c-2.3,0.3-3.7,2.2-3.7,4.6c0,2.4,1.4,4.2,3.7,4.5V62.9z M154.6,72.1
		c2.3-0.3,3.7-2.3,3.7-4.6c0-2.4-1.4-4.2-3.7-4.5V72.1z"/>
	<path class="st0" d="M177.7,67.4c0,4.3-3,6.2-5.8,6.2c-3.1,0-5.6-2.3-5.6-6c0-3.9,2.6-6.1,5.8-6.1
		C175.4,61.4,177.7,63.8,177.7,67.4z M168.5,67.5c0,2.5,1.4,4.5,3.5,4.5c2,0,3.5-1.9,3.5-4.5c0-2-1-4.4-3.5-4.4
		C169.5,63,168.5,65.3,168.5,67.5z"/>
	<path class="st0" d="M184.4,65.5c0-1.5,0-2.7-0.1-3.8h1.9l0.1,2h0c0.8-1.4,2.2-2.2,4.1-2.2c2.8,0,4.9,2.4,4.9,5.9
		c0,4.2-2.6,6.2-5.3,6.2c-1.5,0-2.9-0.7-3.6-1.8h0V78h-2.1V65.5z M186.5,68.6c0,0.3,0,0.6,0.1,0.9c0.4,1.5,1.7,2.5,3.2,2.5
		c2.2,0,3.5-1.8,3.5-4.5c0-2.3-1.2-4.3-3.5-4.3c-1.4,0-2.8,1-3.2,2.6c-0.1,0.3-0.1,0.6-0.1,0.8V68.6z"/>
	<path class="st0" d="M202.2,61.7h2.6l2.1,5.9c0.3,0.9,0.8,2.3,1.1,3.2h0c0.3-0.9,0.9-2.7,1.4-4l1.8-5.1h2.6l0.8,11.6h-2l-0.3-5.5
		c0-1.3-0.1-2.7-0.2-4.2h-0.1c-0.3,1.1-0.6,2-1.3,3.8l-2.2,5.9h-1.5l-2.1-5.8c-0.4-1.1-0.9-2.8-1.2-3.8h-0.1c0,1.4-0.1,2.9-0.2,4.2
		l-0.3,5.5h-1.9L202.2,61.7z"/>
	<path class="st0" d="M229.7,70.5c0,1,0,2,0.2,2.8h-1.9l-0.2-1.5h-0.1c-0.6,0.9-1.9,1.7-3.6,1.7c-2.4,0-3.6-1.7-3.6-3.3
		c0-2.8,2.5-4.3,7-4.3v-0.2c0-0.9-0.3-2.7-2.6-2.7c-1.1,0-2.2,0.3-3,0.9l-0.5-1.4c1-0.6,2.4-1,3.8-1c3.6,0,4.4,2.4,4.4,4.7V70.5z
		 M227.6,67.4c-2.3,0-4.9,0.4-4.9,2.6c0,1.4,0.9,2,2,2c1.5,0,2.5-1,2.9-1.9c0.1-0.2,0.1-0.5,0.1-0.7V67.4z"/>
	<path class="st0" d="M244.8,61.7v1.7h-3.6v10h-2.1v-10h-3.6v-1.7H244.8z"/>
	<path class="st0" d="M258.7,72.9c-0.6,0.3-1.8,0.7-3.3,0.7c-3.5,0-5.8-2.4-5.8-5.9c0-3.6,2.4-6.2,6.2-6.2c1.2,0,2.4,0.3,2.9,0.6
		l-0.5,1.6c-0.5-0.3-1.3-0.6-2.4-0.6c-2.7,0-4.1,2-4.1,4.4c0,2.7,1.7,4.3,4,4.3c1.2,0,2-0.3,2.6-0.6L258.7,72.9z"/>
	<path class="st0" d="M267.3,61.7v5h0.5l4.3-5h2.6l-5,5.2c1.9,0.2,3,1.5,3.9,3.6c0.3,0.8,0.7,1.9,1.2,2.8h-2.2
		c-0.3-0.5-0.7-1.4-1.1-2.4c-0.8-1.9-1.9-2.7-3.8-2.7h-0.4v5.1h-2.1V61.7H267.3z"/>
	<path class="st0" d="M289.2,70.5c0,1,0,2,0.2,2.8h-1.9l-0.2-1.5h-0.1c-0.6,0.9-1.9,1.7-3.6,1.7c-2.4,0-3.6-1.7-3.6-3.3
		c0-2.8,2.5-4.3,7-4.3v-0.2c0-0.9-0.3-2.7-2.6-2.7c-1.1,0-2.2,0.3-3,0.9l-0.5-1.4c1-0.6,2.4-1,3.8-1c3.6,0,4.4,2.4,4.4,4.7V70.5z
		 M287.2,67.4c-2.3,0-4.9,0.4-4.9,2.6c0,1.4,0.9,2,2,2c1.5,0,2.5-1,2.9-1.9c0.1-0.2,0.1-0.5,0.1-0.7V67.4z"/>
	<path class="st0" d="M305.3,73.3h-2.1v-4.9h-1.6c-0.9,0-1.5,0.2-1.9,0.7c-0.9,0.7-1.2,2.1-1.7,3.2c-0.1,0.4-0.3,0.7-0.5,1h-2.3
		c0.3-0.4,0.5-0.8,0.7-1.3c0.5-1.1,0.8-2.6,1.8-3.5c0.4-0.3,0.8-0.6,1.3-0.7v0c-1.5-0.2-3.1-1.1-3.1-2.9c0-1.2,0.6-2,1.5-2.5
		c1-0.6,2.4-0.8,3.9-0.8c1.4,0,2.7,0.1,3.7,0.2V73.3z M303.2,63.1c-0.5-0.1-1-0.1-1.8-0.1c-1.4,0-3.1,0.4-3.1,2c0,1.5,1.8,2,3.1,2
		c0.9,0,1.3,0,1.8,0V63.1z"/>
	<path class="st0" d="M119.5,96c-0.4,0.2-1.3,0.5-2.5,0.5c-2.6,0-4.3-1.8-4.3-4.4c0-2.7,1.8-4.6,4.7-4.6c0.9,0,1.8,0.2,2.2,0.5
		l-0.4,1.2c-0.4-0.2-1-0.4-1.8-0.4c-2,0-3.1,1.5-3.1,3.3c0,2,1.3,3.3,3,3.3c0.9,0,1.5-0.2,1.9-0.4L119.5,96z"/>
	<path class="st0" d="M124.5,92.2c0,2.1,1.4,3,3,3c1.1,0,1.8-0.2,2.4-0.5l0.3,1.1c-0.6,0.3-1.5,0.6-2.9,0.6c-2.7,0-4.3-1.8-4.3-4.4
		s1.5-4.7,4.1-4.7c2.9,0,3.6,2.5,3.6,4.1c0,0.3,0,0.6-0.1,0.7H124.5z M129.1,91.1c0-1-0.4-2.6-2.2-2.6c-1.6,0-2.3,1.5-2.4,2.6H129.1
		z"/>
	<path class="st0" d="M135,87.6h1.9l1.6,4.4c0.2,0.6,0.6,1.7,0.8,2.4h0c0.2-0.7,0.7-2,1-3l1.4-3.8h2l0.6,8.7h-1.5l-0.2-4.2
		c0-1-0.1-2.1-0.1-3.1h-0.1c-0.2,0.8-0.5,1.5-1,2.8l-1.7,4.4h-1.1l-1.5-4.3c-0.3-0.8-0.7-2.1-0.9-2.9h-0.1c0,1-0.1,2.2-0.1,3.1
		l-0.2,4.1h-1.5L135,87.6z"/>
	<path class="st0" d="M150.2,87.6v3.7c0,1.4,0,2.3-0.1,3.5l0.1,0c0.5-1.1,0.8-1.7,1.4-2.7l2.7-4.5h1.9v8.7h-1.5v-3.7
		c0-1.4,0-2.2,0.1-3.6h0c-0.6,1.1-0.9,1.8-1.5,2.7c-0.8,1.3-1.8,3-2.7,4.6h-1.8v-8.7H150.2z"/>
	<path class="st0" d="M162.5,87.6v3.5h4.1v-3.5h1.6v8.7h-1.6v-3.9h-4.1v3.9h-1.6v-8.7H162.5z"/>
	<path class="st0" d="M179.2,94.2c0,0.8,0,1.5,0.1,2.1h-1.4l-0.1-1.1h-0.1c-0.5,0.7-1.4,1.3-2.7,1.3c-1.8,0-2.7-1.2-2.7-2.5
		c0-2.1,1.9-3.3,5.2-3.2v-0.2c0-0.7-0.2-2-2-2c-0.8,0-1.7,0.2-2.3,0.6l-0.4-1.1c0.7-0.5,1.8-0.8,2.9-0.8c2.7,0,3.3,1.8,3.3,3.5V94.2
		z M177.7,91.8c-1.7,0-3.7,0.3-3.7,2c0,1,0.7,1.5,1.5,1.5c1.2,0,1.9-0.7,2.1-1.5c0.1-0.2,0.1-0.4,0.1-0.5V91.8z"/>
	<path class="st0" d="M184.1,90.4c0-1.1,0-2-0.1-2.8h1.4l0.1,1.5h0c0.6-1.1,1.7-1.7,3.1-1.7c2.1,0,3.7,1.8,3.7,4.4
		c0,3.1-1.9,4.7-4,4.7c-1.2,0-2.2-0.5-2.7-1.4h0v4.7h-1.6V90.4z M185.7,92.7c0,0.2,0,0.5,0.1,0.6c0.3,1.1,1.2,1.9,2.4,1.9
		c1.7,0,2.6-1.4,2.6-3.4c0-1.7-0.9-3.2-2.6-3.2c-1.1,0-2.1,0.8-2.4,1.9c-0.1,0.2-0.1,0.4-0.1,0.6V92.7z"/>
	<path class="st0" d="M198.1,87.6v3.7c0,1.4,0,2.3-0.1,3.5l0.1,0c0.5-1.1,0.8-1.7,1.4-2.7l2.7-4.5h1.9v8.7h-1.5v-3.7
		c0-1.4,0-2.2,0.1-3.6h0c-0.6,1.1-0.9,1.8-1.5,2.7c-0.8,1.3-1.8,3-2.7,4.6h-1.8v-8.7H198.1z"/>
	<path class="st0" d="M215.3,96.3h-1.6v-3.7h-1.2c-0.7,0-1.1,0.2-1.4,0.5c-0.7,0.5-0.9,1.6-1.2,2.4c-0.1,0.3-0.2,0.5-0.4,0.7h-1.7
		c0.2-0.3,0.4-0.6,0.5-1c0.4-0.8,0.6-2,1.4-2.6c0.3-0.2,0.6-0.4,1-0.5v0c-1.1-0.1-2.3-0.8-2.3-2.2c0-0.9,0.5-1.5,1.2-1.9
		c0.7-0.4,1.8-0.6,2.9-0.6c1,0,2,0.1,2.8,0.2V96.3z M213.8,88.6c-0.4-0.1-0.8-0.1-1.3-0.1c-1.1,0-2.4,0.3-2.4,1.5
		c0,1.1,1.4,1.5,2.3,1.5c0.7,0,1,0,1.4,0V88.6z"/>
	<path class="st0" d="M226.8,84.1l2.4,5.2c0.3,0.7,0.6,1.4,0.9,2.1h0.1c0.2-0.6,0.4-1.3,0.7-2.2l1.9-5.1h1.7l-2.6,6.3
		c-0.6,1.6-1.4,3.5-2.3,4.6c-0.8,1-1.7,1.5-2.7,1.5c-0.4,0-0.7,0-0.9-0.1l0.1-1.3c0.1,0,0.3,0.1,0.6,0.1c1.2,0,2-1.2,2.4-2.1
		c0.1-0.3,0.1-0.5-0.1-0.7l-4-8.2H226.8z"/>
	<path class="st0" d="M239.2,87.6v3.8h0.4l3.3-3.8h1.9l-3.8,3.9c1.4,0.2,2.3,1.1,2.9,2.7c0.2,0.6,0.5,1.4,0.9,2.1h-1.7
		c-0.2-0.4-0.5-1.1-0.8-1.8c-0.6-1.4-1.4-2.1-2.9-2.1h-0.3v3.8h-1.6v-8.7H239.2z"/>
	<path class="st0" d="M248.5,90.4c0-1.1,0-2-0.1-2.8h1.4l0.1,1.5h0c0.6-1.1,1.7-1.7,3.1-1.7c2.1,0,3.7,1.8,3.7,4.4
		c0,3.1-1.9,4.7-4,4.7c-1.2,0-2.2-0.5-2.7-1.4h0v4.7h-1.6V90.4z M250.1,92.7c0,0.2,0,0.5,0.1,0.6c0.3,1.1,1.2,1.9,2.4,1.9
		c1.7,0,2.6-1.4,2.6-3.4c0-1.7-0.9-3.2-2.6-3.2c-1.1,0-2.1,0.8-2.4,1.9c-0.1,0.2-0.1,0.4-0.1,0.6V92.7z"/>
	<path class="st0" d="M267.2,94.2c0,0.8,0,1.5,0.1,2.1h-1.4l-0.1-1.1h-0.1c-0.5,0.7-1.4,1.3-2.7,1.3c-1.8,0-2.7-1.2-2.7-2.5
		c0-2.1,1.9-3.3,5.2-3.2v-0.2c0-0.7-0.2-2-2-2c-0.8,0-1.7,0.2-2.3,0.6l-0.4-1.1c0.7-0.5,1.8-0.8,2.9-0.8c2.7,0,3.3,1.8,3.3,3.5V94.2
		z M265.6,91.8c-1.7,0-3.7,0.3-3.7,2c0,1,0.7,1.5,1.5,1.5c1.2,0,1.9-0.7,2.1-1.5c0.1-0.2,0.1-0.4,0.1-0.5V91.8z"/>
	<path class="st0" d="M273.5,87.6v3.7c0,1.4,0,2.3-0.1,3.5l0.1,0c0.5-1.1,0.8-1.7,1.4-2.7l2.7-4.5h1.9v8.7h-1.5v-3.7
		c0-1.4,0-2.2,0.1-3.6h0c-0.6,1.1-0.9,1.8-1.5,2.7c-0.8,1.3-1.8,3-2.7,4.6H272v-8.7H273.5z"/>
	<path class="st0" d="M285.8,87.6v3.5h4.1v-3.5h1.6v8.7H290v-3.9h-4.1v3.9h-1.6v-8.7H285.8z"/>
	<path class="st0" d="M298,87.6v3c0.3-0.1,0.8-0.1,1.4-0.1c1.9,0,3.8,0.8,3.8,2.9c0,0.9-0.4,1.5-0.9,2c-1,0.8-2.4,1-3.5,1
		c-0.9,0-1.7-0.1-2.3-0.1v-8.7H298z M298,95.2c0.3,0.1,0.7,0.1,1.1,0.1c1.2,0,2.5-0.5,2.5-1.9c0-1.4-1.3-1.8-2.4-1.8
		c-0.4,0-0.8,0-1.2,0.1V95.2z M305.8,87.6v8.7h-1.6v-8.7H305.8z"/>
</g>
</svg>
