<?xml version="1.0" encoding="utf-8"?>
<!-- Generator: Adobe Illustrator 21.0.0, SVG Export Plug-In . SVG Version: 6.00 Build 0)  -->
<svg version="1.1" id="Слой_1" xmlns="http://www.w3.org/2000/svg" xmlns:xlink="http://www.w3.org/1999/xlink" x="0px" y="0px"
	 viewBox="0 0 851 441" style="enable-background:new 0 0 851 441;" xml:space="preserve">
<style type="text/css">
	.st0{opacity:0.85;fill:#631213;}
	.st1{opacity:0.75;fill:#748391;}
	.st2{opacity:0.85;fill:#441519;}
	.st3{fill:#748391;}
	.st4{fill:#631213;}
	.st5{fill:#4D1417;}
	.st6{fill:#FFFFFF;}
	.st7{fill:#8DC63F;}
</style>
<g>
	<g>
		<g>
			<rect x="585" y="104" class="st0" width="266" height="62"/>
			<rect x="585" y="46" class="st1" width="260" height="58"/>
			<rect x="585" y="166" class="st1" width="260" height="206"/>
			<polyline class="st2" points="851,166 845,166 845,172 			"/>
		</g>
		<g>
			<rect x="-1" y="104" class="st0" width="266" height="62"/>
			<rect x="5" y="46" class="st1" width="260" height="58"/>
			<rect x="5" y="166" class="st1" width="260" height="206"/>
			<polyline class="st2" points="-1,166 5,166 5,172 			"/>
		</g>
		<g>
			<rect x="265" class="st3" width="320" height="441"/>
			<g>
				<rect x="259" y="70.5" class="st4" width="332" height="116"/>
				<polyline class="st5" points="591,186.5 585,186.5 585,192.5 				"/>
				<polyline class="st5" points="259,186.5 265,186.5 265,192.5 				"/>
			</g>
		</g>
	</g>
	<g>
		<path class="st6" d="M371,46.5c-0.8,0.4-2.5,0.8-4.7,0.8c-5.8,0-9.3-3.6-9.3-9.2c0-6,4.2-9.6,9.7-9.6c2.2,0,3.7,0.5,4.4,0.8
			l-0.7,2.6c-0.9-0.4-2.1-0.7-3.6-0.7c-3.7,0-6.4,2.3-6.4,6.7c0,4,2.3,6.6,6.3,6.6c1.3,0,2.7-0.3,3.6-0.6L371,46.5z"/>
		<path class="st6" d="M375.5,41.4c0.1,2.4,1.9,3.4,4,3.4c1.5,0,2.6-0.2,3.6-0.6l0.5,2.3c-1.1,0.5-2.7,0.8-4.6,0.8
			c-4.3,0-6.8-2.6-6.8-6.6c0-3.6,2.2-7.1,6.4-7.1c4.3,0,5.7,3.5,5.7,6.4c0,0.6-0.1,1.1-0.1,1.4H375.5z M381.2,39
			c0-1.2-0.5-3.2-2.7-3.2c-2.1,0-2.9,1.9-3.1,3.2H381.2z"/>
		<path class="st6" d="M387.4,33.9h4.2l1.9,5.7c0.3,0.8,0.7,2.3,1,3.4h0.1c0.3-0.9,0.8-2.7,1.3-4l1.7-5.2h4.2l0.9,13.1h-3.1
			l-0.2-5.7c-0.1-1.3-0.2-3.1-0.2-4.6h-0.1c-0.4,1.5-0.6,2.2-1.3,4.3l-2.1,5.9h-2.4l-1.9-5.8c-0.4-1.2-0.9-3.2-1.2-4.4h-0.1
			c0,1.6-0.1,3.4-0.2,4.7l-0.3,5.6h-3L387.4,33.9z"/>
		<path class="st6" d="M408.6,33.9v4.7c0,2.1-0.1,3.5-0.2,5.3h0.1c0.7-1.5,1.1-2.5,1.8-3.9l3.2-6.2h4V47h-3.2v-4.7
			c0-2.1,0.1-3.1,0.2-5.6h-0.1c-0.6,1.6-1.1,2.5-1.7,3.8c-1,1.9-2.2,4.3-3.3,6.5h-4V33.9H408.6z"/>
		<path class="st6" d="M424.4,33.9v5h5.1v-5h3.3V47h-3.3v-5.5h-5.1V47h-3.3V33.9H424.4z"/>
		<path class="st6" d="M446.5,43.8c0,1.2,0.1,2.3,0.2,3.2h-3l-0.2-1.5h-0.1c-0.8,1-2.2,1.8-3.9,1.8c-2.6,0-4.1-1.9-4.1-3.9
			c0-3.3,2.9-5,7.8-5v-0.2c0-0.9-0.4-2.3-2.7-2.3c-1.3,0-2.6,0.4-3.5,1l-0.6-2.2c1-0.6,2.7-1.2,4.8-1.2c4.2,0,5.4,2.7,5.4,5.6V43.8z
			 M443.3,40.6c-2.3,0-4.6,0.5-4.6,2.5c0,1.3,0.8,1.9,1.9,1.9c1.3,0,2.3-0.9,2.6-1.8c0.1-0.2,0.1-0.5,0.1-0.7V40.6z"/>
		<path class="st6" d="M450,38.2c0-1.7-0.1-3.1-0.1-4.4h2.9l0.2,2h0.1c1-1.5,2.5-2.3,4.5-2.3c3,0,5.5,2.6,5.5,6.7c0,4.8-3,7-6,7
			c-1.6,0-3-0.7-3.7-1.8h-0.1v6.8H450V38.2z M453.4,41.5c0,0.3,0,0.6,0.1,0.9c0.4,1.3,1.5,2.3,2.9,2.3c2.1,0,3.3-1.8,3.3-4.3
			c0-2.3-1.1-4.2-3.3-4.2c-1.4,0-2.6,1-3,2.5c-0.1,0.3-0.1,0.6-0.1,0.8V41.5z"/>
		<path class="st6" d="M469,33.9v4.7c0,2.1-0.1,3.5-0.2,5.3h0.1c0.7-1.5,1.1-2.5,1.8-3.9l3.2-6.2h4V47h-3.2v-4.7
			c0-2.1,0.1-3.1,0.2-5.6h-0.1c-0.6,1.6-1.1,2.5-1.7,3.8c-1,1.9-2.2,4.3-3.3,6.5h-4V33.9H469z"/>
		<path class="st6" d="M492.2,47h-3.3v-5.2h-1.2c-0.9,0-1.6,0.4-2,0.9c-0.8,0.7-1.2,2.1-1.6,3.3c-0.2,0.4-0.3,0.7-0.5,1.1H480
			c0.3-0.4,0.6-0.9,0.8-1.5c0.5-1.1,0.9-2.9,1.9-3.8c0.4-0.4,0.9-0.7,1.6-0.9v-0.1c-1.6-0.2-3.4-1.2-3.4-3.3c0-1.5,0.8-2.4,2-3
			c1.1-0.6,2.9-0.8,4.6-0.8c1.8,0,3.5,0.1,4.7,0.3V47z M488.9,35.9c-0.5-0.1-0.9-0.1-1.6-0.1c-1.5,0-2.9,0.5-2.9,2
			c0,1.4,1.6,2,2.9,2c0.8,0,1.2,0,1.6,0V35.9z"/>
	</g>
	<g>
		<path class="st6" d="M92.4,69.2v6.4h0.4l4.6-6.4h3.3l-5.4,6.7c2.2,0.4,3.1,1.8,3.7,3.7c0.5,1.6,1,3.1,1.7,4.5h-2.9
			c-0.5-1-0.9-2.2-1.2-3.4c-0.6-1.8-1.4-3.1-3.5-3.1h-0.6V84h-2.7V69.2H92.4z"/>
		<path class="st6" d="M112.3,78.5c0,3.9-2.8,5.7-5.5,5.7c-3,0-5.4-2.1-5.4-5.5c0-3.5,2.3-5.7,5.5-5.7
			C110.2,73,112.3,75.3,112.3,78.5z M104.3,78.7c0,2.1,1,3.6,2.7,3.6c1.5,0,2.6-1.5,2.6-3.7c0-1.7-0.7-3.6-2.6-3.6
			C105,75,104.3,76.9,104.3,78.7z"/>
		<path class="st6" d="M123.3,73.3V84h-2.7v-8.6h-2.9v2.3c0,2.8-0.3,4.7-1.6,5.6c-0.6,0.6-1.4,0.9-2.7,0.9l-0.3-2.1
			c0.5-0.1,0.9-0.3,1.1-0.5c0.8-0.7,0.9-1.9,0.9-4v-4.3H123.3z"/>
		<path class="st6" d="M135,73.3V84h-2.7v-8.6h-2.9v2.3c0,2.8-0.3,4.7-1.6,5.6c-0.6,0.6-1.4,0.9-2.7,0.9l-0.3-2.1
			c0.5-0.1,0.9-0.3,1.1-0.5c0.8-0.7,0.9-1.9,0.9-4v-4.3H135z"/>
		<path class="st6" d="M139.8,79.4c0.1,1.9,1.6,2.8,3.3,2.8c1.3,0,2.1-0.2,3-0.5l0.4,1.8c-0.9,0.4-2.2,0.7-3.7,0.7
			c-3.5,0-5.5-2.1-5.5-5.4c0-3,1.8-5.8,5.2-5.8c3.5,0,4.6,2.9,4.6,5.2c0,0.5,0,0.9-0.1,1.1H139.8z M144.5,77.5c0-1-0.4-2.6-2.2-2.6
			c-1.7,0-2.4,1.5-2.5,2.6H144.5z"/>
		<path class="st6" d="M158.4,73.3V82l1.1,0l-0.1,5.3h-2.1l-0.1-3.4h-7l-0.1,3.4H148l-0.1-5.3l0.9-0.1c0.5-0.7,0.8-1.4,1.1-2.2
			c0.4-1.2,0.6-2.5,0.6-3.9v-2.7H158.4z M152.9,76.8c0,1.1-0.2,2.3-0.5,3.3c-0.2,0.7-0.5,1.3-0.8,1.9h4.2v-6.7h-2.9V76.8z"/>
		<path class="st6" d="M163.5,73.3l2.9,4.5h0.4v-4.5h2.6v4.5h0.4l2.9-4.5h3l-4,4.7c1.4,0.2,2.3,1.3,2.8,2.8c0.4,1.1,0.8,2.3,1.3,3.2
			h-2.7c-0.3-0.6-0.6-1.5-0.9-2.4c-0.5-1.5-1.3-2-2.5-2h-0.3V84h-2.6v-4.5h-0.3c-1.2,0-2,0.6-2.5,2c-0.4,1-0.6,1.8-1,2.4h-2.7
			c0.5-0.9,0.8-2.1,1.3-3.2c0.5-1.5,1.4-2.6,2.8-2.8l-4-4.7H163.5z"/>
	</g>
	<g>
		<path class="st6" d="M679.8,69.2l4.1,6.4h0.4v-6.4h2.6v6.4h0.4l4.1-6.4h3.1l-5.1,6.7c2.2,0.2,3.1,1.7,3.8,3.7
			c0.5,1.5,0.9,3,1.5,4.4H692c-0.5-1-0.8-2.3-1.1-3.4c-0.6-1.8-1.3-3.1-3.4-3.1H687V84h-2.6v-6.5h-0.6c-2.1,0-2.8,1.3-3.4,3.1
			c-0.3,1.1-0.6,2.4-1.1,3.4h-2.7c0.6-1.4,1-2.9,1.5-4.4c0.7-2,1.6-3.4,3.8-3.8l-5.1-6.7H679.8z"/>
		<path class="st6" d="M697.6,73.3l1.9,5.7c0.2,0.7,0.5,1.5,0.6,2.1h0.1c0.2-0.6,0.4-1.4,0.6-2.1l1.7-5.7h2.9l-2.7,7.3
			c-1.5,4-2.5,5.8-3.7,6.9c-1.1,0.9-2.2,1.3-2.8,1.4l-0.6-2.3c0.5-0.1,1-0.4,1.6-0.7c0.5-0.3,1.1-1,1.5-1.7c0.1-0.2,0.2-0.4,0.2-0.5
			c0-0.1,0-0.3-0.1-0.5l-3.9-9.8H697.6z"/>
		<path class="st6" d="M706.8,76.8c0-1.4,0-2.6-0.1-3.6h2.4l0.1,1.6h0c0.8-1.2,2-1.9,3.7-1.9c2.5,0,4.5,2.1,4.5,5.5
			c0,3.9-2.4,5.7-4.9,5.7c-1.3,0-2.5-0.6-3-1.4h0v5.5h-2.7V76.8z M709.5,79.5c0,0.3,0,0.5,0.1,0.7c0.3,1.1,1.2,1.9,2.4,1.9
			c1.7,0,2.7-1.4,2.7-3.5c0-1.9-0.9-3.4-2.7-3.4c-1.1,0-2.2,0.8-2.4,2c0,0.2-0.1,0.5-0.1,0.7V79.5z"/>
		<path class="st6" d="M722.4,73.3v4.1h4.1v-4.1h2.7V84h-2.7v-4.5h-4.1V84h-2.7V73.3H722.4z"/>
		<path class="st6" d="M740.4,81.4c0,1,0,1.9,0.2,2.6h-2.4l-0.2-1.2h-0.1c-0.6,0.8-1.8,1.4-3.2,1.4c-2.2,0-3.4-1.6-3.4-3.2
			c0-2.7,2.4-4.1,6.4-4v-0.2c0-0.7-0.3-1.9-2.2-1.9c-1.1,0-2.2,0.3-2.9,0.8l-0.5-1.8c0.8-0.5,2.2-0.9,3.9-0.9c3.4,0,4.4,2.2,4.4,4.5
			V81.4z M737.8,78.8c-1.9,0-3.7,0.4-3.7,2c0,1.1,0.7,1.5,1.5,1.5c1.1,0,1.9-0.7,2.1-1.5c0.1-0.2,0.1-0.4,0.1-0.6V78.8z"/>
		<path class="st6" d="M752.2,73.3V84h-2.7v-8.6h-2.9v2.3c0,2.8-0.3,4.7-1.6,5.6c-0.6,0.6-1.4,0.9-2.7,0.9l-0.3-2.1
			c0.5-0.1,0.9-0.3,1.1-0.5c0.8-0.7,0.9-1.9,0.9-4v-4.3H752.2z"/>
	</g>
	<g>
		<path class="st6" d="M97.2,117.9V130H95v-10.3h-4.9V130h-2.2v-12.1H97.2z"/>
		<path class="st6" d="M108,125.5c0,3.2-2.3,4.7-4.5,4.7c-2.5,0-4.4-1.7-4.4-4.5c0-2.9,1.9-4.6,4.5-4.6
			C106.2,121,108,122.9,108,125.5z M101.4,125.6c0,1.7,0.8,3,2.2,3c1.3,0,2.1-1.2,2.1-3c0-1.4-0.6-3-2.1-3
			C102,122.6,101.4,124.2,101.4,125.6z"/>
		<path class="st6" d="M117,121.2v8.8h-2.2v-7.1h-2.4v1.9c0,2.3-0.3,3.8-1.3,4.6c-0.5,0.5-1.2,0.7-2.2,0.7l-0.2-1.7
			c0.4-0.1,0.7-0.2,0.9-0.4c0.6-0.6,0.7-1.6,0.7-3.3v-3.5H117z"/>
		<path class="st6" d="M121.5,121.2v3.3h3.4v-3.3h2.2v8.8h-2.2v-3.7h-3.4v3.7h-2.2v-8.8H121.5z"/>
		<path class="st6" d="M137.8,125.5c0,3.2-2.3,4.7-4.5,4.7c-2.5,0-4.4-1.7-4.4-4.5c0-2.9,1.9-4.6,4.5-4.6
			C136.1,121,137.8,122.9,137.8,125.5z M131.2,125.6c0,1.7,0.8,3,2.2,3c1.3,0,2.1-1.2,2.1-3c0-1.4-0.6-3-2.1-3
			C131.8,122.6,131.2,124.2,131.2,125.6z"/>
		<path class="st6" d="M146.1,129.7c-0.5,0.2-1.4,0.5-2.5,0.5c-2.7,0-4.5-1.8-4.5-4.5c0-2.6,1.8-4.7,4.9-4.7c0.8,0,1.6,0.2,2.1,0.4
			l-0.4,1.7c-0.4-0.2-0.9-0.3-1.7-0.3c-1.7,0-2.7,1.2-2.7,2.8c0,1.8,1.2,2.8,2.7,2.8c0.8,0,1.3-0.2,1.7-0.3L146.1,129.7z"/>
		<path class="st6" d="M154.5,121.2v1.7h-2.6v7.1h-2.2v-7.1H147v-1.7H154.5z"/>
		<path class="st6" d="M157.9,121.2v2.8c0.4-0.1,0.9-0.1,1.4-0.1c2,0,4.1,0.7,4.1,3c0,1-0.4,1.7-1.1,2.2c-1,0.8-2.7,1-4,1
			c-0.9,0-1.9-0.1-2.7-0.1v-8.7H157.9z M157.9,128.5c0.3,0,0.6,0.1,1,0.1c1,0,2.3-0.3,2.3-1.6c0-1.3-1.4-1.6-2.3-1.6
			c-0.4,0-0.7,0-1,0.1V128.5z"/>
		<path class="st6" d="M167.4,121.2v3.5h1.3c0.4-2.2,1.9-3.7,4-3.7c2.4,0,4,1.8,4,4.5c0,3-1.9,4.7-4.1,4.7c-2.1,0-3.7-1.5-4-3.9
			h-1.3v3.7h-2.2v-8.8H167.4z M174.6,125.6c0-1.5-0.6-3-1.9-3c-1.3,0-1.9,1.5-1.9,3c0,1.5,0.6,3,1.9,3
			C174,128.6,174.6,127.2,174.6,125.6z"/>
		<path class="st6" d="M36.8,143.2v7.2l0.9,0l-0.1,4.4H36l-0.1-2.8h-5.8l-0.1,2.8h-1.7l-0.1-4.4l0.8-0.1c0.4-0.5,0.7-1.2,0.9-1.8
			c0.3-1,0.5-2.1,0.5-3.2v-2.2H36.8z M32.3,146.1c0,0.9-0.1,1.9-0.4,2.7c-0.2,0.6-0.4,1.1-0.6,1.6h3.4v-5.5h-2.4V146.1z"/>
		<path class="st6" d="M41.5,143.2v3.2c0,1.4-0.1,2.3-0.1,3.5h0.1c0.5-1,0.7-1.7,1.2-2.6l2.1-4.1h2.7v8.8h-2.1v-3.1
			c0-1.4,0.1-2.1,0.1-3.7h-0.1c-0.4,1-0.7,1.7-1.2,2.5c-0.7,1.3-1.5,2.9-2.2,4.3h-2.6v-8.8H41.5z"/>
		<path class="st6" d="M56.3,151.7c-0.5,0.2-1.4,0.5-2.5,0.5c-2.7,0-4.5-1.8-4.5-4.5c0-2.6,1.8-4.7,4.9-4.7c0.8,0,1.6,0.2,2.1,0.4
			l-0.4,1.7c-0.4-0.2-0.9-0.3-1.7-0.3c-1.7,0-2.7,1.2-2.7,2.8c0,1.8,1.2,2.8,2.7,2.8c0.8,0,1.3-0.2,1.7-0.3L56.3,151.7z"/>
		<path class="st6" d="M64.7,143.2v1.7H62v7.1h-2.2v-7.1h-2.6v-1.7H64.7z"/>
		<path class="st6" d="M72.6,149.9c0,0.8,0,1.6,0.1,2.1h-2l-0.2-1h-0.1c-0.5,0.7-1.4,1.2-2.6,1.2c-1.8,0-2.8-1.3-2.8-2.6
			c0-2.2,2-3.3,5.2-3.3v-0.1c0-0.6-0.2-1.5-1.8-1.5c-0.9,0-1.8,0.3-2.4,0.6l-0.4-1.4c0.6-0.4,1.8-0.8,3.2-0.8c2.8,0,3.6,1.8,3.6,3.7
			V149.9z M70.5,147.7c-1.6,0-3.1,0.3-3.1,1.6c0,0.9,0.6,1.3,1.3,1.3c0.9,0,1.5-0.6,1.7-1.2c0.1-0.2,0.1-0.3,0.1-0.5V147.7z"/>
		<path class="st6" d="M77.2,143.2v3.3h3.4v-3.3h2.2v8.8h-2.2v-3.7h-3.4v3.7h-2.2v-8.8H77.2z"/>
		<path class="st6" d="M87.3,143.2v7.1h3.3v-7.1h2.2v7.2l0.9,0l-0.1,4.4H92l-0.1-2.8h-6.8v-8.8H87.3z"/>
		<path class="st6" d="M97.5,143.2v3.2c0,1.4-0.1,2.3-0.1,3.5h0.1c0.5-1,0.7-1.7,1.2-2.6l2.1-4.1h2.7v8.8h-2.1v-3.1
			c0-1.4,0.1-2.1,0.1-3.7h-0.1c-0.4,1-0.7,1.7-1.2,2.5c-0.7,1.3-1.5,2.9-2.2,4.3h-2.6v-8.8H97.5z"/>
		<path class="st6" d="M114.2,147.5c0,3.2-2.3,4.7-4.5,4.7c-2.5,0-4.4-1.7-4.4-4.5c0-2.9,1.9-4.6,4.5-4.6
			C112.4,143,114.2,144.9,114.2,147.5z M107.5,147.6c0,1.7,0.8,3,2.2,3c1.3,0,2.1-1.2,2.1-3c0-1.4-0.6-3-2.1-3
			C108.2,144.6,107.5,146.2,107.5,147.6z"/>
		<path class="st6" d="M118.2,143.2v3.3h3.4v-3.3h2.2v8.8h-2.2v-3.7h-3.4v3.7H116v-8.8H118.2z"/>
		<path class="st6" d="M128.3,143.2v3.3h3.4v-3.3h2.2v8.8h-2.2v-3.7h-3.4v3.7h-2.2v-8.8H128.3z"/>
		<path class="st6" d="M144.6,147.5c0,3.2-2.3,4.7-4.5,4.7c-2.5,0-4.4-1.7-4.4-4.5c0-2.9,1.9-4.6,4.5-4.6
			C142.9,143,144.6,144.9,144.6,147.5z M138,147.6c0,1.7,0.8,3,2.2,3c1.3,0,2.1-1.2,2.1-3c0-1.4-0.6-3-2.1-3
			C138.6,144.6,138,146.2,138,147.6z"/>
		<path class="st6" d="M148,148.2c0.1,1.6,1.3,2.3,2.7,2.3c1,0,1.7-0.2,2.4-0.4l0.3,1.5c-0.8,0.3-1.8,0.6-3.1,0.6
			c-2.8,0-4.5-1.7-4.5-4.4c0-2.4,1.5-4.7,4.3-4.7c2.8,0,3.8,2.3,3.8,4.3c0,0.4,0,0.7-0.1,0.9H148z M151.8,146.7
			c0-0.8-0.3-2.1-1.8-2.1c-1.4,0-1.9,1.2-2,2.1H151.8z"/>
		<path class="st6" d="M167.8,147.5c0,3.2-2.3,4.7-4.5,4.7c-2.5,0-4.4-1.7-4.4-4.5c0-2.9,1.9-4.6,4.5-4.6
			C166,143,167.8,144.9,167.8,147.5z M161.2,147.6c0,1.7,0.8,3,2.2,3c1.3,0,2.1-1.2,2.1-3c0-1.4-0.6-3-2.1-3
			C161.8,144.6,161.2,146.2,161.2,147.6z"/>
		<path class="st6" d="M176.8,140.8c-0.5,0.2-1.4,0.3-2,0.4c-1.4,0.2-2.3,0.6-2.9,1.4c-0.5,0.7-0.9,1.7-1,2.5h0.1
			c0.6-1.1,1.7-1.8,3-1.8c2.3,0,3.8,1.7,3.8,4.4c0,2.8-1.7,4.6-4.3,4.6c-3.1,0-4.4-2.7-4.4-5.8c0-2.2,0.5-3.9,1.6-5.1
			c0.9-1,2.1-1.6,3.7-1.8c0.8-0.1,1.8-0.2,2.4-0.4L176.8,140.8z M173.4,144.8c-0.7,0-1.3,0.4-1.6,0.9c-0.3,0.5-0.5,1.1-0.5,1.8
			c0,1.3,0.6,3.1,2.1,3.1c1.5,0,2-1.5,2-2.9C175.5,146.4,175,144.8,173.4,144.8z"/>
		<path class="st6" d="M180.7,143.2l1.6,4.7c0.2,0.5,0.4,1.2,0.5,1.7h0.1c0.1-0.5,0.3-1.2,0.5-1.7l1.4-4.7h2.4l-2.2,6
			c-1.2,3.3-2,4.7-3,5.6c-0.9,0.8-1.8,1-2.3,1.1l-0.5-1.9c0.4-0.1,0.8-0.3,1.3-0.6c0.4-0.3,0.9-0.8,1.2-1.4c0.1-0.2,0.1-0.3,0.1-0.4
			c0-0.1,0-0.2-0.1-0.4l-3.2-8H180.7z"/>
		<path class="st6" d="M190.4,143.2v2.8c0,1,0.4,1.6,1.5,1.6c0.6,0,1.1-0.2,1.5-0.5v-4h2.2v8.9h-2.2v-3.4h0
			c-0.6,0.4-1.5,0.6-2.3,0.6c-1.8,0-2.9-1-2.9-3v-3.1H190.4z"/>
		<path class="st6" d="M199.5,148.2c0.1,1.6,1.3,2.3,2.7,2.3c1,0,1.7-0.2,2.4-0.4l0.3,1.5c-0.8,0.3-1.8,0.6-3.1,0.6
			c-2.8,0-4.5-1.7-4.5-4.4c0-2.4,1.5-4.7,4.3-4.7c2.8,0,3.8,2.3,3.8,4.3c0,0.4,0,0.7-0.1,0.9H199.5z M203.4,146.7
			c0-0.8-0.3-2.1-1.8-2.1c-1.4,0-1.9,1.2-2,2.1H203.4z"/>
		<path class="st6" d="M209.4,143.2v3.3h3.4v-3.3h2.2v8.8h-2.2v-3.7h-3.4v3.7h-2.2v-8.8H209.4z"/>
		<path class="st6" d="M219.5,143.2v3.2c0,1.4-0.1,2.3-0.1,3.5h0.1c0.5-1,0.7-1.7,1.2-2.6l2.1-4.1h2.7v8.8h-2.1v-3.1
			c0-1.4,0.1-2.1,0.1-3.7h-0.1c-0.4,1-0.7,1.7-1.2,2.5c-0.7,1.3-1.5,2.9-2.2,4.3h-2.6v-8.8H219.5z"/>
		<path class="st6" d="M229.4,148.2c0.1,1.6,1.3,2.3,2.7,2.3c1,0,1.7-0.2,2.4-0.4l0.3,1.5c-0.8,0.3-1.8,0.6-3.1,0.6
			c-2.8,0-4.5-1.7-4.5-4.4c0-2.4,1.5-4.7,4.3-4.7c2.8,0,3.8,2.3,3.8,4.3c0,0.4,0,0.7-0.1,0.9H229.4z M233.2,146.7
			c0-0.8-0.3-2.1-1.8-2.1c-1.4,0-1.9,1.2-2,2.1H233.2z"/>
	</g>
	<g>
		<path class="st6" d="M45,203.4v1.8h-5.3v2.6c0.4-0.1,1-0.1,1.5-0.1c1.2,0,2.4,0.3,3.3,0.9c0.9,0.6,1.5,1.6,1.5,2.9
			c0,1.2-0.4,2.1-1.1,2.7c-1.1,1-2.9,1.4-4.6,1.4c-1.2,0-2.1-0.1-2.7-0.2v-12.1H45z M39.7,213.9c0.3,0.1,0.7,0.1,1.2,0.1
			c0.8,0,1.6-0.3,2.1-0.8c0.4-0.4,0.6-0.9,0.6-1.6c0-0.8-0.3-1.3-0.8-1.7c-0.5-0.4-1.3-0.6-2-0.6c-0.3,0-0.7,0-1.1,0.1V213.9z"/>
		<path class="st6" d="M49.9,206.7v3.2c0,1.4-0.1,2.3-0.1,3.5h0.1c0.5-1,0.7-1.7,1.2-2.6l2.1-4.1h2.7v8.8h-2.1v-3.1
			c0-1.4,0.1-2.1,0.1-3.7h-0.1c-0.4,1-0.7,1.7-1.2,2.5c-0.7,1.3-1.5,2.9-2.2,4.3h-2.6v-8.8H49.9z"/>
		<path class="st6" d="M65.4,204.3c-0.5,0.2-1.4,0.3-2,0.4c-1.4,0.2-2.3,0.6-2.9,1.4c-0.5,0.7-0.9,1.7-1,2.5h0.1
			c0.6-1.1,1.7-1.8,3-1.8c2.3,0,3.8,1.7,3.8,4.4c0,2.8-1.7,4.6-4.3,4.6c-3.1,0-4.4-2.7-4.4-5.8c0-2.2,0.5-3.9,1.6-5.1
			c0.9-1,2.1-1.6,3.7-1.8c0.8-0.1,1.8-0.2,2.4-0.4L65.4,204.3z M62,208.3c-0.7,0-1.3,0.4-1.6,0.9c-0.3,0.5-0.5,1.1-0.5,1.8
			c0,1.3,0.6,3.1,2.1,3.1s2-1.5,2-2.9C64.1,209.9,63.6,208.3,62,208.3z"/>
		<path class="st6" d="M75.4,206.7v8.8h-2.2v-7.1h-2.4v1.9c0,2.3-0.3,3.8-1.3,4.6c-0.5,0.5-1.2,0.7-2.2,0.7l-0.2-1.7
			c0.4-0.1,0.7-0.2,0.9-0.4c0.6-0.6,0.7-1.6,0.7-3.3v-3.5H75.4z"/>
		<path class="st6" d="M79.3,211.7c0.1,1.6,1.3,2.3,2.7,2.3c1,0,1.7-0.2,2.4-0.4l0.3,1.5c-0.8,0.3-1.8,0.6-3.1,0.6
			c-2.8,0-4.5-1.7-4.5-4.4c0-2.4,1.5-4.7,4.3-4.7c2.8,0,3.8,2.3,3.8,4.3c0,0.4,0,0.7-0.1,0.9H79.3z M83.1,210.2
			c0-0.8-0.3-2.1-1.8-2.1c-1.4,0-1.9,1.2-2,2.1H83.1z"/>
		<path class="st6" d="M89.1,206.7v3.2c0,1.4-0.1,2.3-0.1,3.5H89c0.5-1,0.7-1.7,1.2-2.6l2.1-4.1H95v8.8h-2.1v-3.1
			c0-1.4,0.1-2.1,0.1-3.7H93c-0.4,1-0.7,1.7-1.2,2.5c-0.7,1.3-1.5,2.9-2.2,4.3H87v-8.8H89.1z M90,203.1c0,0.8,0.4,1.3,1,1.3
			c0.6,0,1-0.5,1-1.3h1.5c-0.1,1.6-1.1,2.4-2.5,2.4c-1.6,0-2.3-1-2.4-2.4H90z"/>
		<path class="st6" d="M103.8,215.2c-0.5,0.2-1.4,0.5-2.5,0.5c-2.7,0-4.5-1.8-4.5-4.5c0-2.6,1.8-4.7,4.9-4.7c0.8,0,1.6,0.2,2.1,0.4
			l-0.4,1.7c-0.4-0.2-0.9-0.3-1.7-0.3c-1.7,0-2.7,1.2-2.7,2.8c0,1.8,1.2,2.8,2.7,2.8c0.8,0,1.3-0.2,1.7-0.3L103.8,215.2z"/>
		<path class="st6" d="M107.7,206.7v3.6h0.3l2.7-3.6h2.6l-3.5,3.9c1.2,0.2,1.9,1.1,2.5,2.5c0.3,0.7,0.6,1.6,1,2.4h-2.3
			c-0.2-0.4-0.5-1-0.8-1.9c-0.5-1.2-1.2-1.8-2.3-1.8h-0.3v3.7h-2.2v-8.8H107.7z"/>
		<path class="st6" d="M122.8,211c0,3.2-2.3,4.7-4.5,4.7c-2.5,0-4.4-1.7-4.4-4.5c0-2.9,1.9-4.6,4.5-4.6
			C121.1,206.5,122.8,208.4,122.8,211z M116.2,211.1c0,1.7,0.8,3,2.2,3c1.3,0,2.1-1.2,2.1-3c0-1.4-0.6-3-2.1-3
			C116.8,208.1,116.2,209.7,116.2,211.1z"/>
		<path class="st6" d="M126.2,211.7c0.1,1.6,1.3,2.3,2.7,2.3c1,0,1.7-0.2,2.4-0.4l0.3,1.5c-0.8,0.3-1.8,0.6-3.1,0.6
			c-2.8,0-4.5-1.7-4.5-4.4c0-2.4,1.5-4.7,4.3-4.7c2.8,0,3.8,2.3,3.8,4.3c0,0.4,0,0.7-0.1,0.9H126.2z M130,210.2
			c0-0.8-0.3-2.1-1.8-2.1c-1.4,0-1.9,1.2-2,2.1H130z"/>
		<path class="st6" d="M146,211c0,3.2-2.3,4.7-4.5,4.7c-2.5,0-4.4-1.7-4.4-4.5c0-2.9,1.9-4.6,4.5-4.6C144.2,206.5,146,208.4,146,211
			z M139.4,211.1c0,1.7,0.8,3,2.2,3c1.3,0,2.1-1.2,2.1-3c0-1.4-0.6-3-2.1-3C140,208.1,139.4,209.7,139.4,211.1z"/>
		<path class="st6" d="M154.2,215.2c-0.5,0.2-1.4,0.5-2.5,0.5c-2.7,0-4.5-1.8-4.5-4.5c0-2.6,1.8-4.7,4.9-4.7c0.8,0,1.6,0.2,2.1,0.4
			l-0.4,1.7c-0.4-0.2-0.9-0.3-1.7-0.3c-1.7,0-2.7,1.2-2.7,2.8c0,1.8,1.2,2.8,2.7,2.8c0.8,0,1.3-0.2,1.7-0.3L154.2,215.2z"/>
		<path class="st6" d="M158.1,206.7v3.3h3.4v-3.3h2.2v8.8h-2.2v-3.7h-3.4v3.7h-2.2v-8.8H158.1z"/>
		<path class="st6" d="M174.4,211c0,3.2-2.3,4.7-4.5,4.7c-2.5,0-4.4-1.7-4.4-4.5c0-2.9,1.9-4.6,4.5-4.6
			C172.6,206.5,174.4,208.4,174.4,211z M167.8,211.1c0,1.7,0.8,3,2.2,3c1.3,0,2.1-1.2,2.1-3c0-1.4-0.6-3-2.1-3
			C168.4,208.1,167.8,209.7,167.8,211.1z"/>
		<path class="st6" d="M176.2,206.8c0.6-0.1,2-0.2,3.2-0.2c1.5,0,4.1,0.2,4.1,2.2c0,1.1-0.9,1.7-1.8,1.9v0c1.3,0.2,2.2,0.9,2.2,2.1
			c0,2.4-3.2,2.6-4.9,2.6c-1.1,0-2.3-0.1-2.8-0.1V206.8z M178.3,214.2c0.4,0,0.6,0,1.1,0c1,0,2.2-0.3,2.2-1.3c0-1-1-1.3-2.4-1.3
			h-0.9V214.2z M178.3,210.3h0.9c1.1,0,2.1-0.3,2.1-1.2c0-0.7-0.6-1.1-1.9-1.1c-0.5,0-0.7,0-1.1,0.1V210.3z"/>
		<path class="st6" d="M192.5,213.4c0,0.8,0,1.6,0.1,2.1h-2l-0.2-1h-0.1c-0.5,0.7-1.4,1.2-2.6,1.2c-1.8,0-2.8-1.3-2.8-2.6
			c0-2.2,2-3.3,5.2-3.3v-0.1c0-0.6-0.2-1.5-1.8-1.5c-0.9,0-1.8,0.3-2.4,0.6l-0.4-1.4c0.6-0.4,1.8-0.8,3.2-0.8c2.8,0,3.6,1.8,3.6,3.7
			V213.4z M190.4,211.2c-1.6,0-3.1,0.3-3.1,1.6c0,0.9,0.6,1.3,1.3,1.3c0.9,0,1.5-0.6,1.7-1.2c0.1-0.2,0.1-0.3,0.1-0.5V211.2z"/>
		<path class="st6" d="M197.1,206.7v3.3h3.4v-3.3h2.2v8.8h-2.2v-3.7h-3.4v3.7h-2.2v-8.8H197.1z"/>
		<path class="st6" d="M207.1,206.7v3.2c0,1.4-0.1,2.3-0.1,3.5h0.1c0.5-1,0.7-1.7,1.2-2.6l2.1-4.1h2.7v8.8H211v-3.1
			c0-1.4,0.1-2.1,0.1-3.7H211c-0.4,1-0.7,1.7-1.2,2.5c-0.7,1.3-1.5,2.9-2.2,4.3H205v-8.8H207.1z"/>
		<path class="st6" d="M217,211.7c0.1,1.6,1.3,2.3,2.7,2.3c1,0,1.7-0.2,2.4-0.4l0.3,1.5c-0.8,0.3-1.8,0.6-3.1,0.6
			c-2.8,0-4.5-1.7-4.5-4.4c0-2.4,1.5-4.7,4.3-4.7c2.8,0,3.8,2.3,3.8,4.3c0,0.4,0,0.7-0.1,0.9H217z M220.9,210.2
			c0-0.8-0.3-2.1-1.8-2.1c-1.4,0-1.9,1.2-2,2.1H220.9z"/>
		<path class="st6" d="M224.5,214.3c0-0.8,0.6-1.4,1.4-1.4c0.8,0,1.4,0.6,1.4,1.4c0,0.8-0.5,1.4-1.4,1.4
			C225,215.7,224.5,215.1,224.5,214.3z"/>
		<path class="st6" d="M78.2,225.4v1.8h-4.7v10.3h-2.2v-12.1H78.2z"/>
		<path class="st6" d="M80.3,228.7v3.2c0,1.4-0.1,2.3-0.1,3.5h0.1c0.5-1,0.7-1.7,1.2-2.6l2.1-4.1h2.7v8.8h-2.1v-3.1
			c0-1.4,0.1-2.1,0.1-3.7h-0.1c-0.4,1-0.7,1.7-1.2,2.5c-0.7,1.3-1.5,2.9-2.2,4.3h-2.6v-8.8H80.3z"/>
		<path class="st6" d="M95.8,226.3c-0.5,0.2-1.4,0.3-2,0.4c-1.4,0.2-2.3,0.6-2.9,1.4c-0.5,0.7-0.9,1.7-1,2.5H90
			c0.6-1.1,1.7-1.8,3-1.8c2.3,0,3.8,1.7,3.8,4.4c0,2.8-1.7,4.6-4.3,4.6c-3.1,0-4.4-2.7-4.4-5.8c0-2.2,0.5-3.9,1.6-5.1
			c0.9-1,2.1-1.6,3.7-1.8c0.8-0.1,1.8-0.2,2.4-0.4L95.8,226.3z M92.5,230.3c-0.7,0-1.3,0.4-1.6,0.9c-0.3,0.5-0.5,1.1-0.5,1.8
			c0,1.3,0.6,3.1,2.1,3.1c1.5,0,2-1.5,2-2.9C94.6,231.9,94.1,230.3,92.5,230.3z"/>
		<path class="st6" d="M100.9,228.7v3.6h0.3l2.7-3.6h2.6l-3.5,3.9c1.2,0.2,1.9,1.1,2.5,2.5c0.3,0.7,0.6,1.6,1,2.4h-2.3
			c-0.2-0.4-0.5-1-0.8-1.9c-0.5-1.2-1.2-1.8-2.3-1.8h-0.3v3.7h-2.2v-8.8H100.9z"/>
		<path class="st6" d="M109.9,228.7v3.2c0,1.4-0.1,2.3-0.1,3.5h0.1c0.5-1,0.7-1.7,1.2-2.6l2.1-4.1h2.7v8.8h-2.1v-3.1
			c0-1.4,0.1-2.1,0.1-3.7h-0.1c-0.4,1-0.7,1.7-1.2,2.5c-0.7,1.3-1.5,2.9-2.2,4.3h-2.6v-8.8H109.9z"/>
		<path class="st6" d="M120.3,228.7v3.2c0,1.4-0.1,2.3-0.1,3.5h0.1c0.5-1,0.7-1.7,1.2-2.6l2.1-4.1h2.7v8.8h-2.1v-3.1
			c0-1.4,0.1-2.1,0.1-3.7h-0.1c-0.4,1-0.7,1.7-1.2,2.5c-0.7,1.3-1.5,2.9-2.2,4.3h-2.6v-8.8H120.3z M121.2,225.1c0,0.8,0.4,1.3,1,1.3
			c0.6,0,1-0.5,1-1.3h1.5c-0.1,1.6-1.1,2.4-2.5,2.4c-1.6,0-2.3-1-2.4-2.4H121.2z"/>
		<path class="st6" d="M138.1,228.7v1.7h-3.6v7h-2.2v-8.8H138.1z"/>
		<path class="st6" d="M139.4,231.6c0-1.2,0-2.1-0.1-2.9h1.9l0.1,1.4h0c0.6-1,1.7-1.5,3-1.5c2,0,3.7,1.7,3.7,4.5c0,3.2-2,4.7-4,4.7
			c-1.1,0-2-0.5-2.5-1.2h0v4.5h-2.2V231.6z M141.6,233.8c0,0.2,0,0.4,0.1,0.6c0.2,0.9,1,1.5,2,1.5c1.4,0,2.2-1.2,2.2-2.9
			c0-1.5-0.8-2.8-2.2-2.8c-0.9,0-1.8,0.7-2,1.6c0,0.2-0.1,0.4-0.1,0.6V233.8z"/>
		<path class="st6" d="M156.8,235.4c0,0.8,0,1.6,0.1,2.1h-2l-0.2-1h-0.1c-0.5,0.7-1.4,1.2-2.6,1.2c-1.8,0-2.8-1.3-2.8-2.6
			c0-2.2,2-3.3,5.2-3.3v-0.1c0-0.6-0.2-1.5-1.8-1.5c-0.9,0-1.8,0.3-2.4,0.6l-0.4-1.4c0.6-0.4,1.8-0.8,3.2-0.8c2.8,0,3.6,1.8,3.6,3.7
			V235.4z M154.6,233.2c-1.6,0-3.1,0.3-3.1,1.6c0,0.9,0.6,1.3,1.3,1.3c0.9,0,1.5-0.6,1.7-1.2c0.1-0.2,0.1-0.3,0.1-0.5V233.2z"/>
		<path class="st6" d="M165.1,224.8l0,3.8c2.5,0.2,4.5,1.8,4.5,4.6c0,2.8-2.1,4.4-4.5,4.5l0,3.4h-2.1l0-3.4
			c-2.5-0.2-4.5-1.7-4.5-4.5c0-2.9,2-4.4,4.5-4.6l0-3.8H165.1z M163.1,230.1c-1.5,0.3-2.4,1.5-2.4,3.1c0,1.6,0.8,2.8,2.4,3.1V230.1z
			 M165.1,236.2c1.5-0.3,2.3-1.5,2.3-3.1c0-1.5-0.8-2.8-2.3-3V236.2z"/>
		<path class="st6" d="M173.5,228.7v3.2c0,1.4-0.1,2.3-0.1,3.5h0.1c0.5-1,0.7-1.7,1.2-2.6l2.1-4.1h2.7v8.8h-2.1v-3.1
			c0-1.4,0.1-2.1,0.1-3.7h-0.1c-0.4,1-0.7,1.7-1.2,2.5c-0.7,1.3-1.5,2.9-2.2,4.3h-2.6v-8.8H173.5z"/>
		<path class="st6" d="M184,228.7v3.6h0.3l2.7-3.6h2.6l-3.5,3.9c1.2,0.2,1.9,1.1,2.5,2.5c0.3,0.7,0.6,1.6,1,2.4h-2.3
			c-0.2-0.4-0.5-1-0.8-1.9c-0.5-1.2-1.2-1.8-2.3-1.8H184v3.7h-2.2v-8.8H184z"/>
		<path class="st6" d="M190.7,236.3c0-0.8,0.6-1.4,1.4-1.4c0.8,0,1.4,0.6,1.4,1.4c0,0.8-0.5,1.4-1.4,1.4
			C191.2,237.7,190.7,237.1,190.7,236.3z"/>
	</g>
	<g>
		<path class="st6" d="M629.9,212.1l-1,3.4h-2.3l3.9-12.1h2.8l3.9,12.1h-2.4l-1.1-3.4H629.9z M633.4,210.4l-1-3
			c-0.2-0.7-0.4-1.6-0.6-2.3h0c-0.2,0.7-0.4,1.5-0.6,2.3l-0.9,3H633.4z"/>
		<path class="st6" d="M641,206.7v3.6h0.3l2.7-3.6h2.6l-3.5,3.9c1.2,0.2,1.9,1.1,2.5,2.5c0.3,0.7,0.6,1.6,1,2.4h-2.3
			c-0.2-0.4-0.5-1-0.8-1.9c-0.5-1.2-1.2-1.8-2.3-1.8H641v3.7h-2.2v-8.8H641z"/>
		<path class="st6" d="M654.7,206.7v1.7h-2.6v7.1h-2.2v-7.1h-2.6v-1.7H654.7z"/>
		<path class="st6" d="M657.7,206.7l1.6,4.7c0.2,0.5,0.4,1.2,0.5,1.7h0.1c0.1-0.5,0.3-1.2,0.5-1.7l1.4-4.7h2.4l-2.2,6
			c-1.2,3.3-2,4.7-3,5.6c-0.9,0.8-1.8,1-2.3,1.1l-0.5-1.9c0.4-0.1,0.8-0.3,1.3-0.6c0.4-0.3,0.9-0.8,1.2-1.4c0.1-0.2,0.1-0.3,0.1-0.4
			c0-0.1,0-0.2-0.1-0.4l-3.2-8H657.7z"/>
		<path class="st6" d="M672,213.4c0,0.8,0,1.6,0.1,2.1h-2l-0.2-1h-0.1c-0.5,0.7-1.4,1.2-2.6,1.2c-1.8,0-2.8-1.3-2.8-2.6
			c0-2.2,2-3.3,5.2-3.3v-0.1c0-0.6-0.2-1.5-1.8-1.5c-0.9,0-1.8,0.3-2.4,0.6l-0.4-1.4c0.6-0.4,1.8-0.8,3.2-0.8c2.8,0,3.6,1.8,3.6,3.7
			V213.4z M669.8,211.2c-1.6,0-3.1,0.3-3.1,1.6c0,0.9,0.6,1.3,1.3,1.3c0.9,0,1.5-0.6,1.7-1.2c0.1-0.2,0.1-0.3,0.1-0.5V211.2z"/>
		<path class="st6" d="M681.6,206.7v8.8h-2.2v-7.1H677v1.9c0,2.3-0.3,3.8-1.3,4.6c-0.5,0.5-1.2,0.7-2.2,0.7l-0.2-1.7
			c0.4-0.1,0.7-0.2,0.9-0.4c0.6-0.6,0.7-1.6,0.7-3.3v-3.5H681.6z"/>
		<path class="st6" d="M686.1,206.7v2.8c0.4-0.1,0.9-0.1,1.4-0.1c2,0,4.1,0.7,4.1,3c0,1-0.4,1.7-1.1,2.2c-1,0.8-2.7,1-4,1
			c-0.9,0-1.9-0.1-2.7-0.1v-8.7H686.1z M686.1,214c0.3,0,0.6,0.1,1,0.1c1,0,2.3-0.3,2.3-1.6c0-1.3-1.4-1.6-2.3-1.6
			c-0.4,0-0.7,0-1,0.1V214z"/>
		<path class="st6" d="M695.6,206.7v3.3h3.4v-3.3h2.2v8.8H699v-3.7h-3.4v3.7h-2.2v-8.8H695.6z"/>
		<path class="st6" d="M711.9,211c0,3.2-2.3,4.7-4.5,4.7c-2.5,0-4.4-1.7-4.4-4.5c0-2.9,1.9-4.6,4.5-4.6
			C710.2,206.5,711.9,208.4,711.9,211z M705.3,211.1c0,1.7,0.8,3,2.2,3c1.3,0,2.1-1.2,2.1-3c0-1.4-0.6-3-2.1-3
			C706,208.1,705.3,209.7,705.3,211.1z"/>
		<path class="st6" d="M713.5,214.3c0-0.8,0.6-1.4,1.4-1.4c0.8,0,1.4,0.6,1.4,1.4c0,0.8-0.5,1.4-1.4,1.4
			C714,215.7,713.5,215.1,713.5,214.3z"/>
		<path class="st6" d="M723.9,203.4v3.7c0,1.5,0.8,2.3,2.3,2.3c0.7,0,1.5-0.2,2.1-0.6v-5.5h2.2v12.3h-2.2v-5.1h-0.1
			c-0.8,0.5-1.7,0.7-2.8,0.7c-1.9,0-3.7-1-3.7-3.7v-4.1H723.9z"/>
		<path class="st6" d="M739.3,206.7v1.7h-2.6v7.1h-2.2v-7.1h-2.6v-1.7H739.3z"/>
		<path class="st6" d="M748.7,211c0,3.2-2.3,4.7-4.5,4.7c-2.5,0-4.4-1.7-4.4-4.5c0-2.9,1.9-4.6,4.5-4.6
			C747,206.5,748.7,208.4,748.7,211z M742.1,211.1c0,1.7,0.8,3,2.2,3c1.3,0,2.1-1.2,2.1-3c0-1.4-0.6-3-2.1-3
			C742.7,208.1,742.1,209.7,742.1,211.1z"/>
		<path class="st6" d="M754.5,209.9v1.5h-4.6v-1.5H754.5z"/>
		<path class="st6" d="M762.7,206.7v1.7h-2.6v7.1h-2.2v-7.1h-2.6v-1.7H762.7z"/>
		<path class="st6" d="M772.1,211c0,3.2-2.3,4.7-4.5,4.7c-2.5,0-4.4-1.7-4.4-4.5c0-2.9,1.9-4.6,4.5-4.6
			C770.4,206.5,772.1,208.4,772.1,211z M765.5,211.1c0,1.7,0.8,3,2.2,3c1.3,0,2.1-1.2,2.1-3c0-1.4-0.6-3-2.1-3
			C766.1,208.1,765.5,209.7,765.5,211.1z"/>
		<path class="st6" d="M784.2,206.7v1.7h-2.6v7.1h-2.2v-7.1h-2.6v-1.7H784.2z"/>
		<path class="st6" d="M792.1,213.4c0,0.8,0,1.6,0.1,2.1h-2l-0.2-1H790c-0.5,0.7-1.4,1.2-2.6,1.2c-1.8,0-2.8-1.3-2.8-2.6
			c0-2.2,2-3.3,5.2-3.3v-0.1c0-0.6-0.2-1.5-1.8-1.5c-0.9,0-1.8,0.3-2.4,0.6l-0.4-1.4c0.6-0.4,1.8-0.8,3.2-0.8c2.8,0,3.6,1.8,3.6,3.7
			V213.4z M790,211.2c-1.6,0-3.1,0.3-3.1,1.6c0,0.9,0.6,1.3,1.3,1.3c0.9,0,1.5-0.6,1.7-1.2c0.1-0.2,0.1-0.3,0.1-0.5V211.2z"/>
		<path class="st6" d="M794.7,206.7h2.8l1.2,3.8c0.2,0.6,0.5,1.5,0.7,2.3h0c0.2-0.6,0.6-1.8,0.8-2.7l1.2-3.4h2.8l0.6,8.8h-2.1
			l-0.2-3.8c0-0.8-0.1-2.1-0.1-3.1h-0.1c-0.3,1-0.4,1.5-0.9,2.9l-1.4,3.9h-1.6l-1.3-3.9c-0.3-0.8-0.6-2.1-0.8-2.9h-0.1
			c0,1.1-0.1,2.3-0.1,3.1l-0.2,3.8h-2L794.7,206.7z"/>
		<path class="st6" d="M806.5,214.3c0-0.8,0.6-1.4,1.4-1.4c0.8,0,1.4,0.6,1.4,1.4c0,0.8-0.5,1.4-1.4,1.4
			C807,215.7,806.5,215.1,806.5,214.3z"/>
		<path class="st6" d="M652.7,232.1h-4.6v3.6h5.1v1.8h-7.3v-12.1h7.1v1.8h-4.8v3.1h4.6V232.1z"/>
		<path class="st6" d="M657.3,228.7v7.1h2.6v-7.1h2.2v7.1h2.5v-7.1h2.2v7.2l0.9,0l-0.1,4.4h-1.7l-0.1-2.8h-10.8v-8.8H657.3z"/>
		<path class="st6" d="M670.9,233.7c0.1,1.6,1.3,2.3,2.7,2.3c1,0,1.7-0.2,2.4-0.4l0.3,1.5c-0.8,0.3-1.8,0.6-3.1,0.6
			c-2.8,0-4.5-1.7-4.5-4.4c0-2.4,1.5-4.7,4.3-4.7c2.8,0,3.8,2.3,3.8,4.3c0,0.4,0,0.7-0.1,0.9H670.9z M674.7,232.2
			c0-0.8-0.3-2.1-1.8-2.1c-1.4,0-1.9,1.2-2,2.1H674.7z"/>
		<path class="st6" d="M684.4,228.7v3.2c0,1.4-0.1,2.3-0.1,3.5h0.1c0.5-1,0.7-1.7,1.2-2.6l2.1-4.1h2.7v8.8h-2.1v-3.1
			c0-1.4,0.1-2.1,0.1-3.7h-0.1c-0.4,1-0.7,1.7-1.2,2.5c-0.7,1.3-1.5,2.9-2.2,4.3h-2.6v-8.8H684.4z"/>
		<path class="st6" d="M698,233.7c0.1,1.6,1.3,2.3,2.7,2.3c1,0,1.7-0.2,2.4-0.4l0.3,1.5c-0.8,0.3-1.8,0.6-3.1,0.6
			c-2.8,0-4.5-1.7-4.5-4.4c0-2.4,1.5-4.7,4.3-4.7c2.8,0,3.8,2.3,3.8,4.3c0,0.4,0,0.7-0.1,0.9H698z M701.8,232.2
			c0-0.8-0.3-2.1-1.8-2.1c-1.4,0-1.9,1.2-2,2.1H701.8z"/>
		<path class="st6" d="M707.9,228.7v7.1h2.6v-7.1h2.2v7.1h2.5v-7.1h2.2v7.2l0.9,0l-0.1,4.4h-1.7l-0.1-2.8h-10.8v-8.8H707.9z"/>
		<path class="st6" d="M721.5,233.7c0.1,1.6,1.3,2.3,2.7,2.3c1,0,1.7-0.2,2.4-0.4l0.3,1.5c-0.8,0.3-1.8,0.6-3.1,0.6
			c-2.8,0-4.5-1.7-4.5-4.4c0-2.4,1.5-4.7,4.3-4.7c2.8,0,3.8,2.3,3.8,4.3c0,0.4,0,0.7-0.1,0.9H721.5z M725.3,232.2
			c0-0.8-0.3-2.1-1.8-2.1c-1.4,0-1.9,1.2-2,2.1H725.3z"/>
		<path class="st6" d="M735,228.7v3.2c0,1.4-0.1,2.3-0.1,3.5h0.1c0.5-1,0.7-1.7,1.2-2.6l2.1-4.1h2.7v8.8h-2.1v-3.1
			c0-1.4,0.1-2.1,0.1-3.7h-0.1c-0.4,1-0.7,1.7-1.2,2.5c-0.7,1.3-1.5,2.9-2.2,4.3h-2.6v-8.8H735z"/>
		<path class="st6" d="M748.6,233.7c0.1,1.6,1.3,2.3,2.7,2.3c1,0,1.7-0.2,2.4-0.4l0.3,1.5c-0.8,0.3-1.8,0.6-3.1,0.6
			c-2.8,0-4.5-1.7-4.5-4.4c0-2.4,1.5-4.7,4.3-4.7c2.8,0,3.8,2.3,3.8,4.3c0,0.4,0,0.7-0.1,0.9H748.6z M752.5,232.2
			c0-0.8-0.3-2.1-1.8-2.1c-1.4,0-1.9,1.2-2,2.1H752.5z"/>
		<path class="st6" d="M758.5,228.7v7.1h2.6v-7.1h2.2v7.1h2.5v-7.1h2.2v7.2l0.9,0l-0.1,4.4h-1.7l-0.1-2.8h-10.8v-8.8H758.5z"/>
		<path class="st6" d="M772.1,233.7c0.1,1.6,1.3,2.3,2.7,2.3c1,0,1.7-0.2,2.4-0.4l0.3,1.5c-0.8,0.3-1.8,0.6-3.1,0.6
			c-2.8,0-4.5-1.7-4.5-4.4c0-2.4,1.5-4.7,4.3-4.7c2.8,0,3.8,2.3,3.8,4.3c0,0.4,0,0.7-0.1,0.9H772.1z M775.9,232.2
			c0-0.8-0.3-2.1-1.8-2.1c-1.4,0-1.9,1.2-2,2.1H775.9z"/>
		<path class="st6" d="M779.5,236.3c0-0.8,0.6-1.4,1.4-1.4c0.8,0,1.4,0.6,1.4,1.4c0,0.8-0.5,1.4-1.4,1.4
			C780.1,237.7,779.5,237.1,779.5,236.3z"/>
		<path class="st6" d="M783.8,236.3c0-0.8,0.6-1.4,1.4-1.4c0.8,0,1.4,0.6,1.4,1.4c0,0.8-0.5,1.4-1.4,1.4
			C784.3,237.7,783.8,237.1,783.8,236.3z"/>
		<path class="st6" d="M788,236.3c0-0.8,0.6-1.4,1.4-1.4c0.8,0,1.4,0.6,1.4,1.4c0,0.8-0.5,1.4-1.4,1.4
			C788.6,237.7,788,237.1,788,236.3z"/>
	</g>
	<g>
		<path class="st6" d="M669.5,129.7c-0.5,0.3-1.7,0.5-3.2,0.5c-3.9,0-6.2-2.4-6.2-6.1c0-4,2.8-6.4,6.5-6.4c1.5,0,2.5,0.3,2.9,0.5
			l-0.5,1.8c-0.6-0.3-1.4-0.5-2.4-0.5c-2.5,0-4.2,1.5-4.2,4.5c0,2.7,1.5,4.4,4.2,4.4c0.9,0,1.8-0.2,2.4-0.4L669.5,129.7z"/>
		<path class="st6" d="M679.3,125.5c0,3.2-2.3,4.7-4.5,4.7c-2.5,0-4.4-1.7-4.4-4.5c0-2.9,1.9-4.6,4.5-4.6
			C677.5,121,679.3,122.9,679.3,125.5z M672.7,125.6c0,1.7,0.8,3,2.2,3c1.3,0,2.1-1.2,2.1-3c0-1.4-0.6-3-2.1-3
			C673.3,122.6,672.7,124.2,672.7,125.6z"/>
		<path class="st6" d="M681.1,121.3c0.6-0.1,2-0.2,3.2-0.2c1.5,0,4.1,0.2,4.1,2.2c0,1.1-0.9,1.7-1.8,1.9v0c1.3,0.2,2.2,0.9,2.2,2.1
			c0,2.4-3.2,2.6-4.9,2.6c-1.1,0-2.3-0.1-2.8-0.1V121.3z M683.2,128.7c0.4,0,0.6,0,1.1,0c1,0,2.2-0.3,2.2-1.3c0-1-1-1.3-2.4-1.3
			h-0.9V128.7z M683.2,124.8h0.9c1.1,0,2.1-0.3,2.1-1.2c0-0.7-0.6-1.1-1.9-1.1c-0.5,0-0.7,0-1.1,0.1V124.8z"/>
		<path class="st6" d="M690.6,124.1c0-1.2,0-2.1-0.1-2.9h1.9l0.1,1.4h0c0.6-1,1.7-1.5,3-1.5c2,0,3.7,1.7,3.7,4.5c0,3.2-2,4.7-4,4.7
			c-1.1,0-2-0.5-2.5-1.2h0v4.5h-2.2V124.1z M692.8,126.3c0,0.2,0,0.4,0.1,0.6c0.2,0.9,1,1.5,2,1.5c1.4,0,2.2-1.2,2.2-2.9
			c0-1.5-0.8-2.8-2.2-2.8c-0.9,0-1.8,0.7-2,1.6c0,0.2-0.1,0.4-0.1,0.6V126.3z"/>
		<path class="st6" d="M702.7,126.2c0.1,1.6,1.3,2.3,2.7,2.3c1,0,1.7-0.2,2.4-0.4l0.3,1.5c-0.8,0.3-1.8,0.6-3.1,0.6
			c-2.8,0-4.5-1.7-4.5-4.4c0-2.4,1.5-4.7,4.3-4.7c2.8,0,3.8,2.3,3.8,4.3c0,0.4,0,0.7-0.1,0.9H702.7z M706.5,124.7
			c0-0.8-0.3-2.1-1.8-2.1c-1.4,0-1.9,1.2-2,2.1H706.5z"/>
		<path class="st6" d="M710.6,121.2h2.8l1.2,3.8c0.2,0.6,0.5,1.5,0.7,2.3h0c0.2-0.6,0.6-1.8,0.8-2.7l1.2-3.4h2.8l0.6,8.8h-2.1
			l-0.2-3.8c0-0.8-0.1-2.1-0.1-3.1h-0.1c-0.3,1-0.4,1.5-0.9,2.9l-1.4,3.9h-1.6l-1.3-3.9c-0.3-0.8-0.6-2.1-0.8-2.9h-0.1
			c0,1.1-0.1,2.3-0.1,3.1L712,130h-2L710.6,121.2z"/>
		<path class="st6" d="M724.2,126.2c0.1,1.6,1.3,2.3,2.7,2.3c1,0,1.7-0.2,2.4-0.4l0.3,1.5c-0.8,0.3-1.8,0.6-3.1,0.6
			c-2.8,0-4.5-1.7-4.5-4.4c0-2.4,1.5-4.7,4.3-4.7c2.8,0,3.8,2.3,3.8,4.3c0,0.4,0,0.7-0.1,0.9H724.2z M728.1,124.7
			c0-0.8-0.3-2.1-1.8-2.1c-1.4,0-1.9,1.2-2,2.1H728.1z"/>
		<path class="st6" d="M734.1,121.2v3.3h3.4v-3.3h2.2v8.8h-2.2v-3.7h-3.4v3.7h-2.2v-8.8H734.1z"/>
		<path class="st6" d="M744.3,121.2v3.3h3.4v-3.3h2.2v8.8h-2.2v-3.7h-3.4v3.7h-2.2v-8.8H744.3z"/>
		<path class="st6" d="M760.6,125.5c0,3.2-2.3,4.7-4.5,4.7c-2.5,0-4.4-1.7-4.4-4.5c0-2.9,1.9-4.6,4.5-4.6
			C758.8,121,760.6,122.9,760.6,125.5z M754,125.6c0,1.7,0.8,3,2.2,3c1.3,0,2.1-1.2,2.1-3c0-1.4-0.6-3-2.1-3
			C754.6,122.6,754,124.2,754,125.6z"/>
		<path class="st6" d="M764,126.2c0.1,1.6,1.3,2.3,2.7,2.3c1,0,1.7-0.2,2.4-0.4l0.3,1.5c-0.8,0.3-1.8,0.6-3.1,0.6
			c-2.8,0-4.5-1.7-4.5-4.4c0-2.4,1.5-4.7,4.3-4.7c2.8,0,3.8,2.3,3.8,4.3c0,0.4,0,0.7-0.1,0.9H764z M767.8,124.7
			c0-0.8-0.3-2.1-1.8-2.1c-1.4,0-1.9,1.2-2,2.1H767.8z"/>
		<path class="st6" d="M608,146.1c0-1.2,0-2.1-0.1-2.9h1.9l0.1,1.4h0c0.6-1,1.7-1.5,3-1.5c2,0,3.7,1.7,3.7,4.5c0,3.2-2,4.7-4,4.7
			c-1.1,0-2-0.5-2.5-1.2h0v4.5H608V146.1z M610.2,148.3c0,0.2,0,0.4,0.1,0.6c0.2,0.9,1,1.5,2,1.5c1.4,0,2.2-1.2,2.2-2.9
			c0-1.5-0.8-2.8-2.2-2.8c-0.9,0-1.8,0.7-2,1.6c0,0.2-0.1,0.4-0.1,0.6V148.3z"/>
		<path class="st6" d="M620.1,148.2c0.1,1.6,1.3,2.3,2.7,2.3c1,0,1.7-0.2,2.4-0.4l0.3,1.5c-0.8,0.3-1.8,0.6-3.1,0.6
			c-2.8,0-4.5-1.7-4.5-4.4c0-2.4,1.5-4.7,4.3-4.7c2.8,0,3.8,2.3,3.8,4.3c0,0.4,0,0.7-0.1,0.9H620.1z M623.9,146.7
			c0-0.8-0.3-2.1-1.8-2.1c-1.4,0-1.9,1.2-2,2.1H623.9z"/>
		<path class="st6" d="M633.9,139.3l0,3.8c2.5,0.2,4.5,1.8,4.5,4.6c0,2.8-2.1,4.4-4.5,4.5l0,3.4h-2.1l0-3.4
			c-2.5-0.2-4.5-1.7-4.5-4.5c0-2.9,2-4.4,4.5-4.6l0-3.8H633.9z M631.8,144.6c-1.5,0.3-2.4,1.5-2.4,3.1c0,1.6,0.8,2.8,2.4,3.1V144.6z
			 M633.9,150.7c1.5-0.3,2.3-1.5,2.3-3.1c0-1.5-0.8-2.8-2.3-3V150.7z"/>
		<path class="st6" d="M648.5,147.5c0,3.2-2.3,4.7-4.5,4.7c-2.5,0-4.4-1.7-4.4-4.5c0-2.9,1.9-4.6,4.5-4.6
			C646.8,143,648.5,144.9,648.5,147.5z M641.9,147.6c0,1.7,0.8,3,2.2,3c1.3,0,2.1-1.2,2.1-3c0-1.4-0.6-3-2.1-3
			C642.5,144.6,641.9,146.2,641.9,147.6z"/>
		<path class="st6" d="M650.3,146.1c0-1.2,0-2.1-0.1-2.9h1.9l0.1,1.4h0c0.6-1,1.7-1.5,3-1.5c2,0,3.7,1.7,3.7,4.5c0,3.2-2,4.7-4,4.7
			c-1.1,0-2-0.5-2.5-1.2h0v4.5h-2.2V146.1z M652.5,148.3c0,0.2,0,0.4,0.1,0.6c0.2,0.9,1,1.5,2,1.5c1.4,0,2.2-1.2,2.2-2.9
			c0-1.5-0.8-2.8-2.2-2.8c-0.9,0-1.8,0.7-2,1.6c0,0.2-0.1,0.4-0.1,0.6V148.3z"/>
		<path class="st6" d="M661,143.2h2.8l1.2,3.8c0.2,0.6,0.5,1.5,0.7,2.3h0c0.2-0.6,0.6-1.8,0.8-2.7l1.2-3.4h2.8l0.6,8.8h-2.1
			l-0.2-3.8c0-0.8-0.1-2.1-0.1-3.1h-0.1c-0.3,1-0.4,1.5-0.9,2.9l-1.4,3.9h-1.6l-1.3-3.9c-0.3-0.8-0.6-2.1-0.8-2.9h-0.1
			c0,1.1-0.1,2.3-0.1,3.1l-0.2,3.8h-2L661,143.2z"/>
		<path class="st6" d="M679.9,149.9c0,0.8,0,1.6,0.1,2.1h-2l-0.2-1h-0.1c-0.5,0.7-1.4,1.2-2.6,1.2c-1.8,0-2.8-1.3-2.8-2.6
			c0-2.2,2-3.3,5.2-3.3v-0.1c0-0.6-0.2-1.5-1.8-1.5c-0.9,0-1.8,0.3-2.4,0.6l-0.4-1.4c0.6-0.4,1.8-0.8,3.2-0.8c2.8,0,3.6,1.8,3.6,3.7
			V149.9z M677.7,147.7c-1.6,0-3.1,0.3-3.1,1.6c0,0.9,0.6,1.3,1.3,1.3c0.9,0,1.5-0.6,1.7-1.2c0.1-0.2,0.1-0.3,0.1-0.5V147.7z"/>
		<path class="st6" d="M688.5,143.2v1.7h-2.6v7.1h-2.2v-7.1h-2.6v-1.7H688.5z"/>
		<path class="st6" d="M696.1,151.7c-0.5,0.2-1.4,0.5-2.5,0.5c-2.7,0-4.5-1.8-4.5-4.5c0-2.6,1.8-4.7,4.9-4.7c0.8,0,1.6,0.2,2.1,0.4
			l-0.4,1.7c-0.4-0.2-0.9-0.3-1.7-0.3c-1.7,0-2.7,1.2-2.7,2.8c0,1.8,1.2,2.8,2.7,2.8c0.8,0,1.3-0.2,1.7-0.3L696.1,151.7z"/>
		<path class="st6" d="M699.9,143.2v3.6h0.3l2.7-3.6h2.6l-3.5,3.9c1.2,0.2,1.9,1.1,2.5,2.5c0.3,0.7,0.6,1.6,1,2.4h-2.3
			c-0.2-0.4-0.5-1-0.8-1.9c-0.5-1.2-1.2-1.8-2.3-1.8h-0.3v3.7h-2.2v-8.8H699.9z"/>
		<path class="st6" d="M715,147.5c0,3.2-2.3,4.7-4.5,4.7c-2.5,0-4.4-1.7-4.4-4.5c0-2.9,1.9-4.6,4.5-4.6
			C713.3,143,715,144.9,715,147.5z M708.4,147.6c0,1.7,0.8,3,2.2,3c1.3,0,2.1-1.2,2.1-3c0-1.4-0.6-3-2.1-3
			C709.1,144.6,708.4,146.2,708.4,147.6z"/>
		<path class="st6" d="M718.4,148.2c0.1,1.6,1.3,2.3,2.7,2.3c1,0,1.7-0.2,2.4-0.4l0.3,1.5c-0.8,0.3-1.8,0.6-3.1,0.6
			c-2.8,0-4.5-1.7-4.5-4.4c0-2.4,1.5-4.7,4.3-4.7c2.8,0,3.8,2.3,3.8,4.3c0,0.4,0,0.7-0.1,0.9H718.4z M722.3,146.7
			c0-0.8-0.3-2.1-1.8-2.1c-1.4,0-1.9,1.2-2,2.1H722.3z"/>
		<path class="st6" d="M737,140.8c-0.5,0.2-1.4,0.3-2,0.4c-1.4,0.2-2.3,0.6-2.9,1.4c-0.5,0.7-0.9,1.7-1,2.5h0.1
			c0.6-1.1,1.7-1.8,3-1.8c2.3,0,3.8,1.7,3.8,4.4c0,2.8-1.7,4.6-4.3,4.6c-3.1,0-4.4-2.7-4.4-5.8c0-2.2,0.5-3.9,1.6-5.1
			c0.9-1,2.1-1.6,3.7-1.8c0.8-0.1,1.8-0.2,2.4-0.4L737,140.8z M733.7,144.8c-0.7,0-1.3,0.4-1.6,0.9c-0.3,0.5-0.5,1.1-0.5,1.8
			c0,1.3,0.6,3.1,2.1,3.1s2-1.5,2-2.9C735.8,146.4,735.3,144.8,733.7,144.8z"/>
		<path class="st6" d="M748.2,147.5c0,3.2-2.3,4.7-4.5,4.7c-2.5,0-4.4-1.7-4.4-4.5c0-2.9,1.9-4.6,4.5-4.6
			C746.4,143,748.2,144.9,748.2,147.5z M741.6,147.6c0,1.7,0.8,3,2.2,3c1.3,0,2.1-1.2,2.1-3c0-1.4-0.6-3-2.1-3
			C742.2,144.6,741.6,146.2,741.6,147.6z"/>
		<path class="st6" d="M755.8,143.2v1.7h-3.6v7H750v-8.8H755.8z"/>
		<path class="st6" d="M765.3,147.5c0,3.2-2.3,4.7-4.5,4.7c-2.5,0-4.4-1.7-4.4-4.5c0-2.9,1.9-4.6,4.5-4.6
			C763.5,143,765.3,144.9,765.3,147.5z M758.7,147.6c0,1.7,0.8,3,2.2,3c1.3,0,2.1-1.2,2.1-3c0-1.4-0.6-3-2.1-3
			C759.3,144.6,758.7,146.2,758.7,147.6z"/>
		<path class="st6" d="M773.5,151.7c-0.5,0.2-1.4,0.5-2.5,0.5c-2.7,0-4.5-1.8-4.5-4.5c0-2.6,1.8-4.7,4.9-4.7c0.8,0,1.6,0.2,2.1,0.4
			l-0.4,1.7c-0.4-0.2-0.9-0.3-1.7-0.3c-1.7,0-2.7,1.2-2.7,2.8c0,1.8,1.2,2.8,2.7,2.8c0.8,0,1.3-0.2,1.7-0.3L773.5,151.7z"/>
		<path class="st6" d="M782.7,143.2v8.8h-2.2v-7.1h-2.4v1.9c0,2.3-0.3,3.8-1.3,4.6c-0.5,0.5-1.2,0.7-2.2,0.7l-0.2-1.7
			c0.4-0.1,0.7-0.2,0.9-0.4c0.6-0.6,0.7-1.6,0.7-3.3v-3.5H782.7z"/>
		<path class="st6" d="M793.4,147.5c0,3.2-2.3,4.7-4.5,4.7c-2.5,0-4.4-1.7-4.4-4.5c0-2.9,1.9-4.6,4.5-4.6
			C791.6,143,793.4,144.9,793.4,147.5z M786.8,147.6c0,1.7,0.8,3,2.2,3c1.3,0,2.1-1.2,2.1-3c0-1.4-0.6-3-2.1-3
			C787.4,144.6,786.8,146.2,786.8,147.6z"/>
		<path class="st6" d="M795.2,143.3c0.6-0.1,2-0.2,3.2-0.2c1.5,0,4.1,0.2,4.1,2.2c0,1.1-0.9,1.7-1.8,1.9v0c1.3,0.2,2.2,0.9,2.2,2.1
			c0,2.4-3.2,2.6-4.9,2.6c-1.1,0-2.3-0.1-2.8-0.1V143.3z M797.4,150.7c0.4,0,0.6,0,1.1,0c1,0,2.2-0.3,2.2-1.3c0-1-1-1.3-2.4-1.3
			h-0.9V150.7z M797.4,146.8h0.9c1.1,0,2.1-0.3,2.1-1.2c0-0.7-0.6-1.1-1.9-1.1c-0.5,0-0.7,0-1.1,0.1V146.8z"/>
		<path class="st6" d="M806.8,143.2v3.2c0,1.4-0.1,2.3-0.1,3.5h0.1c0.5-1,0.7-1.7,1.2-2.6l2.1-4.1h2.7v8.8h-2.1v-3.1
			c0-1.4,0.1-2.1,0.1-3.7h-0.1c-0.4,1-0.7,1.7-1.2,2.5c-0.7,1.3-1.5,2.9-2.2,4.3h-2.6v-8.8H806.8z"/>
		<path class="st6" d="M816.7,148.2c0.1,1.6,1.3,2.3,2.7,2.3c1,0,1.7-0.2,2.4-0.4l0.3,1.5c-0.8,0.3-1.8,0.6-3.1,0.6
			c-2.8,0-4.5-1.7-4.5-4.4c0-2.4,1.5-4.7,4.3-4.7c2.8,0,3.8,2.3,3.8,4.3c0,0.4,0,0.7-0.1,0.9H816.7z M820.5,146.7
			c0-0.8-0.3-2.1-1.8-2.1c-1.4,0-1.9,1.2-2,2.1H820.5z"/>
	</g>
	<g>
		<path class="st6" d="M375.2,101.2c1-0.2,2.9-0.4,4.7-0.4c2.3,0,3.8,0.3,5,1.1c1.1,0.6,1.8,1.8,1.8,3.3c0,1.6-1,3.1-2.9,3.8v0.1
			c1.8,0.5,3.5,1.9,3.5,4.3c0,1.6-0.7,2.8-1.7,3.6c-1.2,1.1-3.3,1.6-6.5,1.6c-1.8,0-3.1-0.1-3.9-0.2V101.2z M378.4,108.2h1.6
			c2.2,0,3.5-1,3.5-2.5c0-1.7-1.2-2.4-3.3-2.4c-0.9,0-1.5,0.1-1.8,0.1V108.2z M378.4,116.2c0.4,0.1,1,0.1,1.7,0.1
			c2.1,0,3.9-0.8,3.9-2.9c0-2.1-1.8-2.9-4-2.9h-1.6V116.2z"/>
		<path class="st6" d="M393.2,105.8v4c0.5-0.1,1.2-0.2,2-0.2c2.8,0,5.6,1.1,5.6,4.3c0,1.5-0.6,2.5-1.6,3.2c-1.5,1.1-3.6,1.4-5.4,1.4
			c-1.4,0-2.7-0.1-3.8-0.2v-12.6H393.2z M393.2,116.3c0.4,0.1,0.8,0.1,1.4,0.1c1.5,0,3.1-0.6,3.1-2.3s-1.5-2.2-3-2.2
			c-0.6,0-1.1,0.1-1.5,0.1V116.3z M405.6,105.8v12.7h-3.2v-12.7H405.6z"/>
		<path class="st6" d="M418.3,118.1c-0.7,0.3-2,0.6-3.6,0.6c-4,0-6.5-2.5-6.5-6.5c0-3.8,2.6-6.7,7-6.7c1.2,0,2.4,0.3,3.1,0.6
			l-0.6,2.4c-0.5-0.3-1.3-0.5-2.4-0.5c-2.4,0-3.9,1.8-3.9,4.1c0,2.6,1.7,4.1,3.9,4.1c1.1,0,1.9-0.2,2.5-0.5L418.3,118.1z"/>
		<path class="st6" d="M432.5,112.1c0,4.7-3.3,6.7-6.5,6.7c-3.6,0-6.3-2.4-6.3-6.5c0-4.2,2.7-6.7,6.6-6.7
			C430,105.6,432.5,108.2,432.5,112.1z M422.9,112.2c0,2.4,1.2,4.3,3.1,4.3c1.8,0,3.1-1.8,3.1-4.3c0-2-0.9-4.3-3.1-4.3
			C423.9,107.9,422.9,110.1,422.9,112.2z"/>
		<path class="st6" d="M438.3,105.8v5.3h0.5l3.9-5.3h3.8l-5,5.6c1.7,0.3,2.8,1.6,3.7,3.6c0.4,1,0.8,2.3,1.4,3.5h-3.3
			c-0.3-0.5-0.7-1.5-1.2-2.7c-0.7-1.7-1.7-2.6-3.3-2.6h-0.4v5.3h-3.2v-12.7H438.3z"/>
		<path class="st6" d="M451.3,105.8v4.6c0,2-0.1,3.4-0.2,5.1h0.1c0.7-1.5,1-2.4,1.7-3.7l3.1-5.9h3.9v12.7h-3V114c0-2,0.1-3,0.2-5.4
			H457c-0.6,1.5-1,2.4-1.7,3.6c-1,1.9-2.1,4.2-3.2,6.2h-3.8v-12.7H451.3z"/>
		<path class="st6" d="M466.3,105.8v4.6c0,2-0.1,3.4-0.2,5.1h0.1c0.7-1.5,1-2.4,1.7-3.7l3.1-5.9h3.9v12.7h-3V114c0-2,0.1-3,0.2-5.4
			H472c-0.6,1.5-1,2.4-1.7,3.6c-1,1.9-2.1,4.2-3.2,6.2h-3.8v-12.7H466.3z M467.7,100.7c0.1,1.1,0.5,1.9,1.4,1.9
			c0.9,0,1.4-0.8,1.5-1.9h2.1c-0.1,2.3-1.5,3.5-3.7,3.5c-2.3,0-3.4-1.4-3.5-3.5H467.7z"/>
		<path class="st6" d="M293.3,147.5c0,1.1,0.1,2.3,0.2,3h-2.9l-0.2-1.4h-0.1c-0.8,1-2.1,1.7-3.7,1.7c-2.5,0-4-1.8-4-3.8
			c0-3.2,2.8-4.8,7.5-4.8V142c0-0.8-0.3-2.2-2.6-2.2c-1.2,0-2.5,0.4-3.4,0.9l-0.6-2.1c0.9-0.6,2.6-1.1,4.6-1.1
			c4.1,0,5.2,2.6,5.2,5.4V147.5z M290.2,144.3c-2.3,0-4.4,0.4-4.4,2.4c0,1.2,0.8,1.8,1.8,1.8c1.3,0,2.2-0.8,2.5-1.7
			c0.1-0.2,0.1-0.5,0.1-0.7V144.3z"/>
		<path class="st6" d="M299.9,137.8v5.3h0.5l3.9-5.3h3.8l-5,5.6c1.7,0.3,2.8,1.6,3.7,3.6c0.4,1,0.8,2.3,1.4,3.5h-3.3
			c-0.3-0.5-0.7-1.5-1.2-2.7c-0.7-1.7-1.7-2.6-3.3-2.6h-0.4v5.3h-3.2v-12.7H299.9z"/>
		<path class="st6" d="M319.9,147.5c0,1.1,0.1,2.3,0.2,3h-2.9l-0.2-1.4h-0.1c-0.8,1-2.1,1.7-3.7,1.7c-2.5,0-4-1.8-4-3.8
			c0-3.2,2.8-4.8,7.5-4.8V142c0-0.8-0.3-2.2-2.6-2.2c-1.2,0-2.5,0.4-3.4,0.9l-0.6-2.1c0.9-0.6,2.6-1.1,4.6-1.1
			c4.1,0,5.2,2.6,5.2,5.4V147.5z M316.8,144.3c-2.3,0-4.4,0.4-4.4,2.4c0,1.2,0.8,1.8,1.8,1.8c1.3,0,2.2-0.8,2.5-1.7
			c0.1-0.2,0.1-0.5,0.1-0.7V144.3z"/>
		<path class="st6" d="M334.2,137.8v10.3l1.4,0.1l-0.2,6.3H333l-0.1-4.1h-8.3l-0.2,4.1h-2.4l-0.1-6.3l1.1-0.1c0.5-0.8,1-1.7,1.2-2.6
			c0.4-1.5,0.6-3,0.6-4.6v-3.2H334.2z M327.7,141.9c0,1.4-0.2,2.7-0.5,3.9c-0.2,0.8-0.6,1.6-0.9,2.3h4.9v-7.9h-3.4V141.9z"/>
		<path class="st6" d="M340.1,145.1c0.1,2.3,1.8,3.3,3.9,3.3c1.5,0,2.5-0.2,3.5-0.6l0.5,2.2c-1.1,0.5-2.6,0.8-4.4,0.8
			c-4.1,0-6.5-2.5-6.5-6.4c0-3.5,2.1-6.8,6.2-6.8c4.1,0,5.5,3.4,5.5,6.2c0,0.6-0.1,1.1-0.1,1.4H340.1z M345.7,142.8
			c0-1.2-0.5-3.1-2.6-3.1c-2,0-2.8,1.8-2.9,3.1H345.7z"/>
		<path class="st6" d="M351.6,137.8h4l1.8,5.5c0.3,0.8,0.7,2.2,1,3.3h0.1c0.3-0.9,0.8-2.6,1.2-3.8l1.7-5h4l0.8,12.7h-3L363,145
			c-0.1-1.2-0.2-3-0.2-4.5h-0.1c-0.4,1.5-0.6,2.1-1.3,4.1l-2,5.7h-2.3l-1.8-5.6c-0.4-1.2-0.8-3-1.1-4.2H354c0,1.6-0.1,3.3-0.2,4.5
			l-0.3,5.4h-2.9L351.6,137.8z"/>
		<path class="st6" d="M372,137.8v4.6c0,2-0.1,3.4-0.2,5.1h0.1c0.7-1.5,1-2.4,1.7-3.7l3.1-5.9h3.9v12.7h-3V146c0-2,0.1-3,0.2-5.4
			h-0.1c-0.6,1.5-1,2.4-1.7,3.6c-1,1.9-2.1,4.2-3.2,6.2H369v-12.7H372z"/>
		<path class="st6" d="M386.9,137.8v4.1c0,1.5,0.6,2.4,2.2,2.4c0.8,0,1.6-0.3,2.2-0.7v-5.8h3.2v12.8h-3.2v-4.9h-0.1
			c-0.8,0.5-2.1,0.9-3.3,0.9c-2.6,0-4.2-1.4-4.2-4.4v-4.4H386.9z"/>
		<path class="st6" d="M400.1,145.1c0.1,2.3,1.8,3.3,3.9,3.3c1.5,0,2.5-0.2,3.5-0.6l0.5,2.2c-1.1,0.5-2.6,0.8-4.4,0.8
			c-4.1,0-6.5-2.5-6.5-6.4c0-3.5,2.1-6.8,6.2-6.8c4.1,0,5.5,3.4,5.5,6.2c0,0.6-0.1,1.1-0.1,1.4H400.1z M405.7,142.8
			c0-1.2-0.5-3.1-2.6-3.1c-2,0-2.8,1.8-2.9,3.1H405.7z"/>
		<path class="st6" d="M420.6,150.1c-0.7,0.3-2,0.6-3.6,0.6c-4,0-6.5-2.5-6.5-6.5c0-3.8,2.6-6.7,7-6.7c1.2,0,2.4,0.3,3.1,0.6
			l-0.6,2.4c-0.5-0.3-1.3-0.5-2.4-0.5c-2.4,0-3.9,1.8-3.9,4.1c0,2.6,1.7,4.1,3.9,4.1c1.1,0,1.9-0.2,2.5-0.5L420.6,150.1z"/>
		<path class="st6" d="M426.1,137.8v5.3h0.5l3.9-5.3h3.8l-5,5.6c1.7,0.3,2.8,1.6,3.7,3.6c0.4,1,0.8,2.3,1.4,3.5H431
			c-0.3-0.5-0.7-1.5-1.2-2.7c-0.7-1.7-1.7-2.6-3.3-2.6h-0.4v5.3h-3.2v-12.7H426.1z"/>
		<path class="st6" d="M439.1,137.8v4.6c0,2-0.1,3.4-0.2,5.1h0.1c0.7-1.5,1-2.4,1.7-3.7l3.1-5.9h3.9v12.7h-3V146c0-2,0.1-3,0.2-5.4
			h-0.1c-0.6,1.5-1,2.4-1.7,3.6c-1,1.9-2.1,4.2-3.2,6.2h-3.8v-12.7H439.1z"/>
		<path class="st6" d="M454.1,137.8v4.6c0,2-0.1,3.4-0.2,5.1h0.1c0.7-1.5,1-2.4,1.7-3.7l3.1-5.9h3.9v12.7h-3V146c0-2,0.1-3,0.2-5.4
			h-0.1c-0.6,1.5-1,2.4-1.7,3.6c-1,1.9-2.1,4.2-3.2,6.2h-3.8v-12.7H454.1z M455.5,132.7c0.1,1.1,0.5,1.9,1.4,1.9
			c0.9,0,1.4-0.8,1.5-1.9h2.1c-0.1,2.3-1.5,3.5-3.7,3.5c-2.3,0-3.4-1.4-3.5-3.5H455.5z"/>
		<path class="st6" d="M473.6,137.8l2.3,6.8c0.3,0.8,0.5,1.7,0.7,2.4h0.1c0.2-0.7,0.4-1.7,0.7-2.5l2-6.8h3.4l-3.2,8.6
			c-1.7,4.7-2.9,6.8-4.4,8.1c-1.3,1.1-2.6,1.5-3.4,1.6l-0.7-2.7c0.5-0.1,1.2-0.4,1.8-0.9c0.6-0.4,1.3-1.1,1.8-2
			c0.1-0.2,0.2-0.4,0.2-0.6c0-0.1,0-0.3-0.2-0.6l-4.7-11.6H473.6z"/>
		<path class="st6" d="M484.5,142c0-1.7-0.1-3-0.1-4.2h2.8l0.2,2h0.1c0.9-1.4,2.4-2.2,4.3-2.2c2.9,0,5.3,2.5,5.3,6.4
			c0,4.6-2.9,6.8-5.8,6.8c-1.6,0-2.9-0.7-3.6-1.7h-0.1v6.6h-3.2V142z M487.7,145.2c0,0.3,0,0.6,0.1,0.9c0.3,1.3,1.5,2.2,2.8,2.2
			c2,0,3.2-1.7,3.2-4.2c0-2.2-1.1-4.1-3.1-4.1c-1.3,0-2.5,1-2.9,2.4c-0.1,0.3-0.1,0.5-0.1,0.8V145.2z"/>
		<path class="st6" d="M511.8,144.1c0,4.7-3.3,6.7-6.5,6.7c-3.6,0-6.3-2.4-6.3-6.5c0-4.2,2.7-6.7,6.6-6.7
			C509.3,137.6,511.8,140.2,511.8,144.1z M502.2,144.2c0,2.4,1.2,4.3,3.1,4.3c1.8,0,3.1-1.8,3.1-4.3c0-2-0.9-4.3-3.1-4.3
			C503.2,139.9,502.2,142.1,502.2,144.2z"/>
		<path class="st6" d="M514.4,138c0.9-0.2,2.9-0.3,4.6-0.3c2.1,0,6,0.3,6,3.2c0,1.6-1.2,2.5-2.6,2.8v0.1c1.9,0.3,3.2,1.3,3.2,3.1
			c0,3.5-4.6,3.8-7.1,3.8c-1.6,0-3.3-0.1-4.1-0.2V138z M517.5,148.6c0.5,0.1,0.9,0.1,1.5,0.1c1.5,0,3.2-0.4,3.2-1.9
			c0-1.4-1.4-1.9-3.4-1.9h-1.4V148.6z M517.5,143h1.3c1.6,0,3-0.4,3-1.7c0-1-0.9-1.6-2.8-1.6c-0.7,0-1.1,0.1-1.5,0.1V143z"/>
		<path class="st6" d="M530.4,145.1c0.1,2.3,1.8,3.3,3.9,3.3c1.5,0,2.5-0.2,3.5-0.6l0.5,2.2c-1.1,0.5-2.6,0.8-4.4,0.8
			c-4.1,0-6.5-2.5-6.5-6.4c0-3.5,2.1-6.8,6.2-6.8c4.1,0,5.5,3.4,5.5,6.2c0,0.6-0.1,1.1-0.1,1.4H530.4z M536,142.8
			c0-1.2-0.5-3.1-2.6-3.1c-2,0-2.8,1.8-2.9,3.1H536z"/>
		<path class="st6" d="M544.7,137.8v4.8h4.9v-4.8h3.2v12.7h-3.2v-5.3h-4.9v5.3h-3.2v-12.7H544.7z"/>
		<path class="st6" d="M559.4,137.8v4c0.5-0.1,1.4-0.2,2-0.2c2.9,0,6,1,6,4.3c0,1.5-0.6,2.5-1.6,3.2c-1.5,1.1-3.9,1.4-5.8,1.4
			c-1.4,0-2.7-0.1-3.8-0.2v-12.6H559.4z M559.4,148.3c0.4,0.1,0.8,0.1,1.5,0.1c1.5,0,3.4-0.5,3.4-2.3c0-1.8-2-2.3-3.4-2.3
			c-0.6,0-1,0.1-1.5,0.1V148.3z"/>
	</g>
	<g>
		<path class="st6" d="M328.2,236.5v2.6h-7.6v3.8c0.6-0.1,1.5-0.1,2.2-0.1c1.7,0,3.5,0.4,4.7,1.3c1.3,0.9,2.1,2.3,2.1,4.2
			c0,1.7-0.6,3-1.6,3.9c-1.6,1.4-4.1,2-6.7,2c-1.8,0-3.1-0.1-3.9-0.2v-17.5H328.2z M320.5,251.7c0.5,0.1,1,0.1,1.7,0.1
			c1.2,0,2.3-0.4,3.1-1.1c0.5-0.6,0.9-1.3,0.9-2.3c0-1.1-0.5-1.9-1.2-2.4c-0.8-0.6-1.9-0.8-2.9-0.8c-0.5,0-1.1,0.1-1.6,0.1V251.7z"
			/>
		<path class="st6" d="M334.5,248.6c0.1,2.3,1.8,3.3,3.9,3.3c1.5,0,2.5-0.2,3.5-0.6l0.5,2.2c-1.1,0.5-2.6,0.8-4.4,0.8
			c-4.1,0-6.5-2.5-6.5-6.4c0-3.5,2.1-6.8,6.2-6.8c4.1,0,5.5,3.4,5.5,6.2c0,0.6-0.1,1.1-0.1,1.4H334.5z M340.1,246.3
			c0-1.2-0.5-3.1-2.6-3.1c-2,0-2.8,1.8-2.9,3.1H340.1z"/>
		<path class="st6" d="M355,253.6c-0.7,0.3-2,0.6-3.6,0.6c-4,0-6.5-2.5-6.5-6.5c0-3.8,2.6-6.7,7-6.7c1.2,0,2.4,0.3,3.1,0.6l-0.6,2.4
			c-0.5-0.3-1.3-0.5-2.4-0.5c-2.4,0-3.9,1.8-3.9,4.1c0,2.6,1.7,4.1,3.9,4.1c1.1,0,1.9-0.2,2.5-0.5L355,253.6z"/>
		<path class="st6" d="M368.5,241.3V254h-3.2v-10.2h-4.8V254h-3.2v-12.7H368.5z"/>
		<path class="st6" d="M382.3,241.3V254h-3.2v-10.2h-3.5v2.7c0,3.3-0.4,5.5-1.9,6.7c-0.7,0.7-1.7,1-3.2,1l-0.3-2.5
			c0.5-0.1,1-0.3,1.4-0.6c0.9-0.8,1-2.3,1-4.7v-5.1H382.3z"/>
		<path class="st6" d="M395.5,251c0,1.1,0.1,2.3,0.2,3h-2.9l-0.2-1.4h-0.1c-0.8,1-2.1,1.7-3.7,1.7c-2.5,0-4-1.8-4-3.8
			c0-3.2,2.8-4.8,7.5-4.8v-0.2c0-0.8-0.3-2.2-2.6-2.2c-1.2,0-2.5,0.4-3.4,0.9l-0.6-2.1c0.9-0.6,2.6-1.1,4.6-1.1
			c4.1,0,5.2,2.6,5.2,5.4V251z M392.4,247.8c-2.3,0-4.4,0.4-4.4,2.4c0,1.2,0.8,1.8,1.8,1.8c1.3,0,2.2-0.8,2.5-1.7
			c0.1-0.2,0.1-0.5,0.1-0.7V247.8z"/>
		<path class="st6" d="M408,241.3v2.5h-3.8V254H401v-10.2h-3.8v-2.5H408z"/>
		<path class="st6" d="M413,241.3v4.8h4.9v-4.8h3.2V254h-3.2v-5.3H413v5.3h-3.2v-12.7H413z"/>
		<path class="st6" d="M436.6,247.6c0,4.7-3.3,6.7-6.5,6.7c-3.6,0-6.3-2.4-6.3-6.5c0-4.2,2.7-6.7,6.6-6.7
			C434,241.1,436.6,243.7,436.6,247.6z M427,247.7c0,2.4,1.2,4.3,3.1,4.3c1.8,0,3.1-1.8,3.1-4.3c0-2-0.9-4.3-3.1-4.3
			C427.9,243.4,427,245.6,427,247.7z"/>
		<path class="st6" d="M438.8,252.2c0-1.2,0.8-2.1,2-2.1c1.2,0,2,0.8,2,2.1c0,1.2-0.8,2.1-2,2.1
			C439.6,254.3,438.8,253.4,438.8,252.2z"/>
		<path class="st6" d="M452.7,236.5l3,6.8c0.5,1.1,0.9,2.2,1.2,3.2h0.1c0.3-0.8,0.6-1.9,1-3.3l2.3-6.8h3.4l-3.5,8.8
			c-1,2.5-2.1,5.2-3.4,6.8c-1.1,1.4-2.5,2.2-4.3,2.2c-0.8,0-1.2-0.1-1.6-0.2l0.2-2.6c0.3,0.1,0.6,0.1,1.1,0.1c1.5,0,2.4-1.2,2.8-2.2
			c0.2-0.3,0.1-0.6-0.1-0.9l-5.9-12H452.7z"/>
		<path class="st6" d="M474.2,241.3v10.3l1.4,0.1l-0.2,6.3h-2.4l-0.1-4.1h-8.3l-0.2,4.1h-2.4l-0.1-6.3l1.1-0.1
			c0.5-0.8,1-1.7,1.2-2.6c0.4-1.5,0.6-3,0.6-4.6v-3.2H474.2z M467.6,245.4c0,1.4-0.2,2.7-0.5,3.9c-0.2,0.8-0.6,1.6-0.9,2.3h4.9v-7.9
			h-3.4V245.4z"/>
		<path class="st6" d="M489.8,247.6c0,4.7-3.3,6.7-6.5,6.7c-3.6,0-6.3-2.4-6.3-6.5c0-4.2,2.7-6.7,6.6-6.7
			C487.3,241.1,489.8,243.7,489.8,247.6z M480.3,247.7c0,2.4,1.2,4.3,3.1,4.3c1.8,0,3.1-1.8,3.1-4.3c0-2-0.9-4.3-3.1-4.3
			C481.2,243.4,480.3,245.6,480.3,247.7z"/>
		<path class="st6" d="M502.8,237.8c-0.7,0.2-2,0.4-2.8,0.5c-2,0.3-3.3,0.8-4.2,2c-0.8,1-1.3,2.4-1.4,3.6h0.1
			c0.8-1.6,2.4-2.6,4.3-2.6c3.3,0,5.5,2.4,5.5,6.3c0,4.1-2.5,6.7-6.2,6.7c-4.4,0-6.3-3.8-6.3-8.4c0-3.1,0.8-5.6,2.4-7.4
			c1.2-1.5,3-2.3,5.4-2.6c1.1-0.2,2.6-0.3,3.5-0.6L502.8,237.8z M498,243.6c-1.1,0-1.8,0.6-2.3,1.4c-0.4,0.7-0.7,1.5-0.7,2.6
			c0,1.9,0.9,4.4,3,4.4s2.9-2.2,2.9-4.2C501,245.9,500.3,243.6,498,243.6z"/>
		<path class="st6" d="M510.1,241.3v4.8h4.9v-4.8h3.2V254h-3.2v-5.3h-4.9v5.3h-3.2v-12.7H510.1z"/>
		<path class="st6" d="M533.6,247.6c0,4.7-3.3,6.7-6.5,6.7c-3.6,0-6.3-2.4-6.3-6.5c0-4.2,2.7-6.7,6.6-6.7
			C531.1,241.1,533.6,243.7,533.6,247.6z M524,247.7c0,2.4,1.2,4.3,3.1,4.3c1.8,0,3.1-1.8,3.1-4.3c0-2-0.9-4.3-3.1-4.3
			C525,243.4,524,245.6,524,247.7z"/>
		<path class="st6" d="M321.3,272.5V290h-3.2v-14.9H311V290h-3.2v-17.5H321.3z"/>
		<path class="st6" d="M336.9,283.6c0,4.7-3.3,6.7-6.5,6.7c-3.6,0-6.3-2.4-6.3-6.5c0-4.2,2.7-6.7,6.6-6.7
			C334.4,277.1,336.9,279.7,336.9,283.6z M327.4,283.7c0,2.4,1.2,4.3,3.1,4.3c1.8,0,3.1-1.8,3.1-4.3c0-2-0.9-4.3-3.1-4.3
			C328.3,279.4,327.4,281.6,327.4,283.7z"/>
		<path class="st6" d="M349.9,277.3V290h-3.2v-10.2h-3.5v2.7c0,3.3-0.4,5.5-1.9,6.7c-0.7,0.7-1.7,1-3.2,1l-0.3-2.5
			c0.5-0.1,1-0.3,1.4-0.6c0.9-0.8,1-2.3,1-4.7v-5.1H349.9z"/>
		<path class="st6" d="M355.5,284.6c0.1,2.3,1.8,3.3,3.9,3.3c1.5,0,2.5-0.2,3.5-0.6l0.5,2.2c-1.1,0.5-2.6,0.8-4.4,0.8
			c-4.1,0-6.5-2.5-6.5-6.4c0-3.5,2.1-6.8,6.2-6.8c4.1,0,5.5,3.4,5.5,6.2c0,0.6-0.1,1.1-0.1,1.4H355.5z M361.1,282.3
			c0-1.2-0.5-3.1-2.6-3.1c-2,0-2.8,1.8-2.9,3.1H361.1z"/>
		<path class="st6" d="M367.9,282.5h1.5c1.8,0,2.8-0.7,2.8-1.6s-0.9-1.5-2.3-1.5c-1.1,0-2.2,0.4-3.1,0.9l-0.7-1.9
			c1.4-0.8,3.1-1.2,4.7-1.2c2.2,0,4.8,0.8,4.8,3.4c0,1.6-1.5,2.5-2.8,2.8v0.1c1.7,0.2,3.4,1.2,3.4,3c0,2.9-3.3,3.8-5.9,3.8
			c-1.6,0-3.3-0.4-4.6-1.1l0.7-2.1c0.9,0.5,2.2,0.9,3.5,0.9c1.8,0,2.7-0.8,2.7-1.7c0-1.4-1.4-1.8-3.2-1.8h-1.6V282.5z"/>
		<path class="st6" d="M382,277.3v4.8h4.9v-4.8h3.2V290h-3.2v-5.3H382v5.3h-3.2v-12.7H382z"/>
		<path class="st6" d="M405.5,283.6c0,4.7-3.3,6.7-6.5,6.7c-3.6,0-6.3-2.4-6.3-6.5c0-4.2,2.7-6.7,6.6-6.7
			C403,277.1,405.5,279.7,405.5,283.6z M395.9,283.7c0,2.4,1.2,4.3,3.1,4.3c1.8,0,3.1-1.8,3.1-4.3c0-2-0.9-4.3-3.1-4.3
			C396.9,279.4,395.9,281.6,395.9,283.7z"/>
		<path class="st6" d="M407.7,288.2c0-1.2,0.8-2.1,2-2.1c1.2,0,2,0.8,2,2.1c0,1.2-0.8,2.1-2,2.1
			C408.5,290.3,407.7,289.4,407.7,288.2z"/>
		<path class="st6" d="M422.7,272.5v6.2c0,2.8-0.1,5.4-0.2,7.7l0.1,0c0.9-2,2-4.1,3.2-6.1l4.6-7.9h3.3V290h-3v-6.2
			c0-2.8,0.1-5,0.3-7.3h-0.1c-0.8,2-2,4.2-3.1,6.1l-4.4,7.4h-3.6v-17.5H422.7z"/>
		<path class="st6" d="M440.4,277.3v4.8h4.9v-4.8h3.2V290h-3.2v-5.3h-4.9v5.3h-3.2v-12.7H440.4z"/>
		<path class="st6" d="M461.1,277.3v2.5h-3.8V290h-3.2v-10.2h-3.8v-2.5H461.1z"/>
		<path class="st6" d="M464.9,284.6c0.1,2.3,1.8,3.3,3.9,3.3c1.5,0,2.5-0.2,3.5-0.6l0.5,2.2c-1.1,0.5-2.6,0.8-4.4,0.8
			c-4.1,0-6.5-2.5-6.5-6.4c0-3.5,2.1-6.8,6.2-6.8c4.1,0,5.5,3.4,5.5,6.2c0,0.6-0.1,1.1-0.1,1.4H464.9z M470.5,282.3
			c0-1.2-0.5-3.1-2.6-3.1c-2,0-2.8,1.8-2.9,3.1H470.5z"/>
		<path class="st6" d="M476.1,281.5c0-1.7-0.1-3-0.1-4.2h2.8l0.2,2h0.1c0.9-1.4,2.4-2.2,4.3-2.2c2.9,0,5.3,2.5,5.3,6.4
			c0,4.6-2.9,6.8-5.8,6.8c-1.6,0-2.9-0.7-3.6-1.7h-0.1v6.6h-3.2V281.5z M479.3,284.7c0,0.3,0,0.6,0.1,0.9c0.3,1.3,1.5,2.2,2.8,2.2
			c2,0,3.2-1.7,3.2-4.2c0-2.2-1.1-4.1-3.1-4.1c-1.3,0-2.5,1-2.9,2.4c-0.1,0.3-0.1,0.5-0.1,0.8V284.7z"/>
		<path class="st6" d="M493.6,284.6c0.1,2.3,1.8,3.3,3.9,3.3c1.5,0,2.5-0.2,3.5-0.6l0.5,2.2c-1.1,0.5-2.6,0.8-4.4,0.8
			c-4.1,0-6.5-2.5-6.5-6.4c0-3.5,2.1-6.8,6.2-6.8c4.1,0,5.5,3.4,5.5,6.2c0,0.6-0.1,1.1-0.1,1.4H493.6z M499.1,282.3
			c0-1.2-0.5-3.1-2.6-3.1c-2,0-2.8,1.8-2.9,3.1H499.1z"/>
		<path class="st6" d="M514,289.6c-0.7,0.3-2,0.6-3.6,0.6c-4,0-6.5-2.5-6.5-6.5c0-3.8,2.6-6.7,7-6.7c1.2,0,2.4,0.3,3.1,0.6l-0.6,2.4
			c-0.5-0.3-1.3-0.5-2.4-0.5c-2.4,0-3.9,1.8-3.9,4.1c0,2.6,1.7,4.1,3.9,4.1c1.1,0,1.9-0.2,2.5-0.5L514,289.6z"/>
		<path class="st6" d="M519.6,277.3v4.8h4.9v-4.8h3.2V290h-3.2v-5.3h-4.9v5.3h-3.2v-12.7H519.6z"/>
		<path class="st6" d="M543.1,283.6c0,4.7-3.3,6.7-6.5,6.7c-3.6,0-6.3-2.4-6.3-6.5c0-4.2,2.7-6.7,6.6-6.7
			C540.6,277.1,543.1,279.7,543.1,283.6z M533.6,283.7c0,2.4,1.2,4.3,3.1,4.3c1.8,0,3.1-1.8,3.1-4.3c0-2-0.9-4.3-3.1-4.3
			C534.5,279.4,533.6,281.6,533.6,283.7z"/>
	</g>
	<path class="st7" d="M474.7,382.5h-98.3c-12.2,0-22-9.8-22-22v0c0-12.2,9.8-22,22-22h98.3c12.2,0,22,9.8,22,22v0
		C496.7,372.7,486.8,382.5,474.7,382.5z"/>
	<g>
		<path class="st6" d="M394.3,352.2V367h-2.7v-12.6h-6V367h-2.7v-14.8H394.3z"/>
		<path class="st6" d="M399.8,362.4c0.1,1.9,1.6,2.8,3.3,2.8c1.3,0,2.1-0.2,3-0.5l0.4,1.8c-0.9,0.4-2.2,0.7-3.7,0.7
			c-3.5,0-5.5-2.1-5.5-5.4c0-3,1.8-5.8,5.2-5.8c3.5,0,4.6,2.9,4.6,5.2c0,0.5,0,0.9-0.1,1.1H399.8z M404.5,360.5c0-1-0.4-2.6-2.2-2.6
			c-1.7,0-2.4,1.5-2.5,2.6H404.5z"/>
		<path class="st6" d="M409.8,359.8c0-1.4,0-2.6-0.1-3.6h2.4l0.1,1.7h0c0.8-1.2,2-1.9,3.7-1.9c2.5,0,4.5,2.1,4.5,5.5
			c0,3.9-2.4,5.7-4.9,5.7c-1.3,0-2.5-0.6-3-1.4h0v5.5h-2.7V359.8z M412.5,362.5c0,0.3,0,0.5,0.1,0.7c0.3,1.1,1.2,1.9,2.4,1.9
			c1.7,0,2.7-1.4,2.7-3.5c0-1.9-0.9-3.4-2.7-3.4c-1.1,0-2.2,0.8-2.4,2c0,0.2-0.1,0.5-0.1,0.7V362.5z"/>
		<path class="st6" d="M425.1,362.4c0.1,1.9,1.6,2.8,3.3,2.8c1.3,0,2.1-0.2,3-0.5l0.4,1.8c-0.9,0.4-2.2,0.7-3.7,0.7
			c-3.5,0-5.5-2.1-5.5-5.4c0-3,1.8-5.8,5.2-5.8c3.5,0,4.6,2.9,4.6,5.2c0,0.5,0,0.9-0.1,1.1H425.1z M429.8,360.5c0-1-0.4-2.6-2.2-2.6
			c-1.7,0-2.4,1.5-2.5,2.6H429.8z"/>
		<path class="st6" d="M437.7,356.3v3.9c0,1.7-0.1,2.8-0.2,4.3h0.1c0.6-1.3,0.9-2,1.5-3.2l2.6-5h3.3V367h-2.6v-3.8
			c0-1.7,0.1-2.5,0.2-4.5h-0.1c-0.5,1.3-0.9,2-1.4,3.1c-0.8,1.6-1.8,3.5-2.7,5.3h-3.2v-10.7H437.7z M438.8,351.9
			c0,0.9,0.4,1.6,1.2,1.6c0.8,0,1.2-0.7,1.3-1.6h1.8c-0.1,1.9-1.3,2.9-3.1,2.9c-2,0-2.9-1.2-2.9-2.9H438.8z"/>
		<path class="st6" d="M456.2,356.3v2.1H453v8.6h-2.7v-8.6h-3.2v-2.1H456.2z"/>
		<path class="st6" d="M460.9,356.3v3.9c0,1.7-0.1,2.8-0.2,4.3h0.1c0.6-1.3,0.9-2,1.5-3.2l2.6-5h3.3V367h-2.6v-3.8
			c0-1.7,0.1-2.5,0.2-4.5h-0.1c-0.5,1.3-0.9,2-1.4,3.1c-0.8,1.6-1.8,3.5-2.7,5.3h-3.2v-10.7H460.9z"/>
	</g>
	<g>
		<path class="st7" d="M749,319.5h-68c-9.4,0-17-7.6-17-17v0c0-9.4,7.6-17,17-17h68c9.4,0,17,7.6,17,17v0
			C766,311.9,758.4,319.5,749,319.5z"/>
		<g>
			<path class="st6" d="M689.3,294.9V307h-2.2v-10.3h-4.9V307H680v-12.1H689.3z"/>
			<path class="st6" d="M693.8,303.2c0.1,1.6,1.3,2.3,2.7,2.3c1,0,1.7-0.2,2.4-0.4l0.3,1.5c-0.8,0.3-1.8,0.6-3.1,0.6
				c-2.8,0-4.5-1.7-4.5-4.4c0-2.4,1.5-4.7,4.3-4.7c2.8,0,3.8,2.3,3.8,4.3c0,0.4,0,0.7-0.1,0.9H693.8z M697.6,301.7
				c0-0.8-0.3-2.1-1.8-2.1c-1.4,0-1.9,1.2-2,2.1H697.6z"/>
			<path class="st6" d="M702,301.1c0-1.2,0-2.1-0.1-2.9h1.9l0.1,1.4h0c0.6-1,1.7-1.5,3-1.5c2,0,3.7,1.7,3.7,4.5c0,3.2-2,4.7-4,4.7
				c-1.1,0-2-0.5-2.5-1.2h0v4.5H702V301.1z M704.2,303.3c0,0.2,0,0.4,0.1,0.6c0.2,0.9,1,1.5,2,1.5c1.4,0,2.2-1.2,2.2-2.9
				c0-1.5-0.8-2.8-2.2-2.8c-0.9,0-1.8,0.7-2,1.6c0,0.2-0.1,0.4-0.1,0.6V303.3z"/>
			<path class="st6" d="M714.5,303.2c0.1,1.6,1.3,2.3,2.7,2.3c1,0,1.7-0.2,2.4-0.4l0.3,1.5c-0.8,0.3-1.8,0.6-3.1,0.6
				c-2.8,0-4.5-1.7-4.5-4.4c0-2.4,1.5-4.7,4.3-4.7c2.8,0,3.8,2.3,3.8,4.3c0,0.4,0,0.7-0.1,0.9H714.5z M718.4,301.7
				c0-0.8-0.3-2.1-1.8-2.1c-1.4,0-1.9,1.2-2,2.1H718.4z"/>
			<path class="st6" d="M724.8,298.2v3.2c0,1.4-0.1,2.3-0.1,3.5h0.1c0.5-1,0.7-1.7,1.2-2.6l2.1-4.1h2.7v8.8h-2.1v-3.1
				c0-1.4,0.1-2.1,0.1-3.7h-0.1c-0.4,1-0.7,1.7-1.2,2.5c-0.7,1.3-1.5,2.9-2.2,4.3h-2.6v-8.8H724.8z M725.7,294.6
				c0,0.8,0.4,1.3,1,1.3c0.6,0,1-0.5,1-1.3h1.5c-0.1,1.6-1.1,2.4-2.5,2.4c-1.6,0-2.3-1-2.4-2.4H725.7z"/>
			<path class="st6" d="M740,298.2v1.7h-2.6v7.1h-2.2v-7.1h-2.6v-1.7H740z"/>
			<path class="st6" d="M743.8,298.2v3.2c0,1.4-0.1,2.3-0.1,3.5h0.1c0.5-1,0.7-1.7,1.2-2.6l2.1-4.1h2.7v8.8h-2.1v-3.1
				c0-1.4,0.1-2.1,0.1-3.7h-0.1c-0.4,1-0.7,1.7-1.2,2.5c-0.7,1.3-1.5,2.9-2.2,4.3h-2.6v-8.8H743.8z"/>
		</g>
	</g>
	<g>
		<path class="st7" d="M166,319.5H98c-9.4,0-17-7.6-17-17v0c0-9.4,7.6-17,17-17h68c9.4,0,17,7.6,17,17v0
			C183,311.9,175.4,319.5,166,319.5z"/>
		<g>
			<path class="st6" d="M106.3,294.9V307h-2.2v-10.3h-4.9V307H97v-12.1H106.3z"/>
			<path class="st6" d="M110.8,303.2c0.1,1.6,1.3,2.3,2.7,2.3c1,0,1.7-0.2,2.4-0.4l0.3,1.5c-0.8,0.3-1.8,0.6-3.1,0.6
				c-2.8,0-4.5-1.7-4.5-4.4c0-2.4,1.5-4.7,4.3-4.7c2.8,0,3.8,2.3,3.8,4.3c0,0.4,0,0.7-0.1,0.9H110.8z M114.6,301.7
				c0-0.8-0.3-2.1-1.8-2.1c-1.4,0-1.9,1.2-2,2.1H114.6z"/>
			<path class="st6" d="M119,301.1c0-1.2,0-2.1-0.1-2.9h1.9l0.1,1.4h0c0.6-1,1.7-1.5,3-1.5c2,0,3.7,1.7,3.7,4.5c0,3.2-2,4.7-4,4.7
				c-1.1,0-2-0.5-2.5-1.2h0v4.5H119V301.1z M121.2,303.3c0,0.2,0,0.4,0.1,0.6c0.2,0.9,1,1.5,2,1.5c1.4,0,2.2-1.2,2.2-2.9
				c0-1.5-0.8-2.8-2.2-2.8c-0.9,0-1.8,0.7-2,1.6c0,0.2-0.1,0.4-0.1,0.6V303.3z"/>
			<path class="st6" d="M131.5,303.2c0.1,1.6,1.3,2.3,2.7,2.3c1,0,1.7-0.2,2.4-0.4l0.3,1.5c-0.8,0.3-1.8,0.6-3.1,0.6
				c-2.8,0-4.5-1.7-4.5-4.4c0-2.4,1.5-4.7,4.3-4.7c2.8,0,3.8,2.3,3.8,4.3c0,0.4,0,0.7-0.1,0.9H131.5z M135.4,301.7
				c0-0.8-0.3-2.1-1.8-2.1c-1.4,0-1.9,1.2-2,2.1H135.4z"/>
			<path class="st6" d="M141.8,298.2v3.2c0,1.4-0.1,2.3-0.1,3.5h0.1c0.5-1,0.7-1.7,1.2-2.6l2.1-4.1h2.7v8.8h-2.1v-3.1
				c0-1.4,0.1-2.1,0.1-3.7h-0.1c-0.4,1-0.7,1.7-1.2,2.5c-0.7,1.3-1.5,2.9-2.2,4.3h-2.6v-8.8H141.8z M142.7,294.6
				c0,0.8,0.4,1.3,1,1.3c0.6,0,1-0.5,1-1.3h1.5c-0.1,1.6-1.1,2.4-2.5,2.4c-1.6,0-2.3-1-2.4-2.4H142.7z"/>
			<path class="st6" d="M157,298.2v1.7h-2.6v7.1h-2.2v-7.1h-2.6v-1.7H157z"/>
			<path class="st6" d="M160.8,298.2v3.2c0,1.4-0.1,2.3-0.1,3.5h0.1c0.5-1,0.7-1.7,1.2-2.6l2.1-4.1h2.7v8.8h-2.1v-3.1
				c0-1.4,0.1-2.1,0.1-3.7h-0.1c-0.4,1-0.7,1.7-1.2,2.5c-0.7,1.3-1.5,2.9-2.2,4.3h-2.6v-8.8H160.8z"/>
		</g>
	</g>
</g>
</svg>
