<?xml version="1.0" encoding="utf-8"?>
<!-- Generator: Adobe Illustrator 19.1.1, SVG Export Plug-In . SVG Version: 6.00 Build 0)  -->
<svg version="1.1" id="Слой_1" xmlns="http://www.w3.org/2000/svg" xmlns:xlink="http://www.w3.org/1999/xlink" x="0px" y="0px"
	 width="330px" height="100px" viewBox="0 0 330 100" style="enable-background:new 0 0 330 100;" xml:space="preserve">
<style type="text/css">
	.st0{fill:#631212;}
</style>
<g>
	<path class="st0" d="M9.9,50H3.4V36.2h6.4v2.6H6.3v2.4h3.7v2.5H6.3v3.7h3.7V50z"/>
	<path class="st0" d="M19.2,46.5c0,1.3-0.3,2.2-0.8,2.7S16.9,50,15.6,50h-3.9V37.9h3.8c1.3,0,2.2,0.2,2.6,0.5
		c0.6,0.4,0.8,1.3,0.8,2.5c0,1-0.4,1.8-1.2,2.4c0.6,0.4,1,0.9,1.2,1.4C19.1,45.1,19.2,45.7,19.2,46.5z M16.3,41.2c0-0.7-0.3-1-1-1
		h-1v2.3h0.6C15.8,42.4,16.3,42,16.3,41.2z M16.5,46.3c0-1.2-0.4-1.9-1.3-1.9h-0.8v3.3H15c0.6,0,1-0.1,1.2-0.3
		C16.4,47.3,16.5,46.9,16.5,46.3z"/>
	<path class="st0" d="M28,50h-2.6v-1.2c-0.9,0.9-1.7,1.4-2.4,1.4c-1.7,0-2.5-0.9-2.5-2.8v-1.8c0-0.6,0.1-1.2,0.3-1.6
		c0.3-0.7,1.1-1.3,2.3-1.8c0.5-0.2,1.2-0.5,2.2-0.8v-0.3c0-0.4-0.1-0.7-0.2-0.9C25,40.1,24.7,40,24.3,40c-0.5,0-0.8,0.2-1,0.5
		c-0.1,0.2-0.1,0.5-0.1,1.1h-2.4v-0.8c0-1.1,0.3-1.9,1-2.4c0.6-0.4,1.4-0.6,2.6-0.6c1.3,0,2.2,0.3,2.8,0.8c0.6,0.5,0.9,1.4,0.9,2.7
		V50z M25.3,46.7v-3.3c-0.6,0.3-1.1,0.6-1.3,0.8c-0.4,0.4-0.7,0.8-0.8,1.3c0,0.1,0,0.3,0,0.5v0.7c0,0.4,0.1,0.8,0.2,0.9
		c0.2,0.2,0.5,0.3,0.9,0.3c0.4,0,0.7-0.1,0.9-0.3C25.3,47.5,25.3,47.2,25.3,46.7z"/>
	<path class="st0" d="M37.7,50h-2.7v-5.5h-2.2V50H30V37.9h2.7v4.3h2.2v-4.3h2.7V50z"/>
	<path class="st0" d="M45.2,40.2h-2.7V50h-2.7V37.9h5.4V40.2z"/>
	<path class="st0" d="M54.1,46.3c0,1.4-0.3,2.5-0.8,3c-0.6,0.6-1.6,0.8-3,0.8c-1.4,0-2.4-0.3-3-0.8c-0.6-0.6-0.8-1.6-0.8-3v-4.7
		c0-1.4,0.3-2.4,0.8-3s1.6-0.9,3-0.9c1.4,0,2.4,0.3,3,0.8c0.6,0.6,0.8,1.6,0.8,3v2.7h-5v2.4c0,0.4,0.1,0.8,0.2,1
		c0.1,0.2,0.4,0.3,0.9,0.3c0.4,0,0.7-0.1,0.9-0.3c0.1-0.2,0.2-0.5,0.2-0.9v-1.1h2.7V46.3z M51.4,42.2v-0.9c0-0.5-0.1-0.8-0.2-1
		C51,40.1,50.7,40,50.3,40c-0.5,0-0.8,0.1-0.9,0.4c-0.1,0.2-0.2,0.5-0.2,1v0.9H51.4z"/>
	<path class="st0" d="M63.3,50h-2.7v-9.9c-0.4,0.4-0.7,0.8-1,1.2c-0.5,0.9-0.9,2.3-1,4.2c0,0.6-0.1,2.1-0.1,4.4h-2.7v-1.8
		c0-2.4,0.2-4.3,0.6-5.7c0.6-2,1.7-3.5,3.2-4.6h3.7V50z"/>
	<path class="st0" d="M73,46.1c0,1.4-0.3,2.3-0.8,2.9c-0.6,0.6-1.5,0.9-2.9,0.9h-4V37.9h2.7v4.4c0.5-0.1,1-0.2,1.4-0.2
		c1.3,0,2.2,0.3,2.8,1C72.8,43.8,73,44.8,73,46.1z M70.3,46.1c0-0.6-0.1-1-0.2-1.2c-0.2-0.4-0.5-0.5-1-0.5c-0.3,0-0.7,0-1,0.1v3.3
		h0.7c0.6,0,1-0.1,1.2-0.4C70.2,47.1,70.3,46.7,70.3,46.1z"/>
	<path class="st0" d="M82.1,46.3c0,1.4-0.3,2.5-0.8,3c-0.6,0.6-1.6,0.8-3,0.8c-1.4,0-2.4-0.3-3-0.8c-0.6-0.6-0.8-1.6-0.8-3v-4.7
		c0-1.4,0.3-2.4,0.8-3s1.6-0.9,3-0.9c1.7,0,2.9,0.4,3.4,1.3c0.3,0.6,0.5,1.8,0.5,3.7h-2.8v-1.6c0-0.4-0.1-0.7-0.2-0.9
		C79,40.1,78.7,40,78.2,40c-0.4,0-0.7,0.1-0.9,0.3c-0.1,0.2-0.2,0.5-0.2,0.9v5.5c0,0.4,0.1,0.8,0.2,0.9c0.1,0.2,0.4,0.3,0.9,0.3
		c0.4,0,0.7-0.1,0.9-0.3c0.1-0.2,0.2-0.5,0.2-0.9v-1.6h2.8V46.3z"/>
	<path class="st0" d="M91.4,38.3c0,1.8-0.7,3.4-2.1,4.8c0.9,0.9,1.4,2,1.7,3.2c0.2,0.9,0.3,2.1,0.3,3.7h-2.7c0-1.3,0-2.2-0.1-2.9
		c-0.2-1.1-0.5-2-1-2.7c-0.3,0.2-0.6,0.4-1,0.6v5h-2.7V37.9h2.7v5.1c1.4-1.1,2.1-2.8,2.1-5.1h2.7c0,0,0,0.1,0,0.2
		C91.4,38.2,91.4,38.3,91.4,38.3z"/>
	<path class="st0" d="M100.6,50H98v-1.2c-0.9,0.9-1.7,1.4-2.4,1.4c-1.7,0-2.5-0.9-2.5-2.8v-1.8c0-0.6,0.1-1.2,0.3-1.6
		c0.3-0.7,1.1-1.3,2.3-1.8c0.5-0.2,1.2-0.5,2.2-0.8v-0.3c0-0.4-0.1-0.7-0.2-0.9c-0.1-0.2-0.4-0.3-0.8-0.3c-0.5,0-0.8,0.2-1,0.5
		c-0.1,0.2-0.1,0.5-0.1,1.1h-2.4v-0.8c0-1.1,0.3-1.9,1-2.4c0.6-0.4,1.4-0.6,2.6-0.6c1.3,0,2.2,0.3,2.8,0.8c0.6,0.5,0.9,1.4,0.9,2.7
		V50z M97.9,46.7v-3.3c-0.6,0.3-1.1,0.6-1.3,0.8c-0.4,0.4-0.7,0.8-0.8,1.3c0,0.1,0,0.3,0,0.5v0.7c0,0.4,0.1,0.8,0.2,0.9
		c0.2,0.2,0.5,0.3,0.9,0.3c0.4,0,0.7-0.1,0.9-0.3C97.8,47.5,97.9,47.2,97.9,46.7z"/>
	<path class="st0" d="M109.8,50h-2.8v-5.5c-0.4,0.1-0.7,0.1-1,0.1c-0.9,1.6-1.3,3.4-1.3,5.4H102c0-2.1,0.5-4.1,1.6-5.9
		c-0.4-0.3-0.8-0.7-1-1.2c-0.3-0.5-0.4-1-0.4-1.5c0-2.3,1.3-3.4,3.8-3.4h3.8V50z M107.2,42.4v-2.2h-0.9c-0.9,0-1.4,0.4-1.4,1.1
		c0,0.5,0.1,0.8,0.3,1s0.5,0.3,1,0.3C106.4,42.5,106.7,42.5,107.2,42.4z"/>
	<path class="st0" d="M30.5,69.2c0,1.7-0.3,2.8-0.8,3.5c-0.6,0.8-1.7,1.1-3.4,1.1c-1.6,0-2.7-0.4-3.4-1.2c-0.6-0.7-0.8-1.8-0.8-3.5
		v-4.9c0-1.7,0.3-2.8,0.8-3.5c0.6-0.8,1.7-1.1,3.4-1.1c1.9,0,3.1,0.5,3.6,1.5c0.4,0.7,0.6,2.1,0.6,4.1h-3v-1.7c0-0.5-0.1-0.8-0.2-1
		c-0.2-0.2-0.5-0.3-1-0.3c-0.4,0-0.8,0.1-0.9,0.3c-0.2,0.2-0.3,0.5-0.3,0.9V70c0,0.4,0.1,0.8,0.3,0.9c0.2,0.2,0.5,0.3,0.9,0.3
		c0.5,0,0.8-0.1,1-0.3c0.1-0.2,0.2-0.5,0.2-1v-2.4h3V69.2z"/>
	<path class="st0" d="M39.7,70c0,1.4-0.3,2.5-0.8,3c-0.6,0.6-1.6,0.8-3,0.8c-1.4,0-2.4-0.3-3-0.8c-0.6-0.6-0.8-1.6-0.8-3v-4.7
		c0-1.4,0.3-2.4,0.8-3s1.6-0.9,3-0.9c1.4,0,2.4,0.3,3,0.8c0.6,0.6,0.8,1.6,0.8,3V68h-5v2.4c0,0.4,0.1,0.8,0.2,1
		c0.1,0.2,0.4,0.3,0.9,0.3c0.4,0,0.7-0.1,0.9-0.3c0.1-0.2,0.2-0.5,0.2-0.9v-1.1h2.7V70z M37,65.9V65c0-0.5-0.1-0.8-0.2-1
		c-0.2-0.2-0.5-0.4-0.9-0.4c-0.5,0-0.8,0.1-0.9,0.4c-0.1,0.2-0.2,0.5-0.2,1v0.9H37z"/>
	<path class="st0" d="M53.4,73.7h-2.6v-9.9c-0.8,0.9-1.4,1.9-1.7,3c-0.2,0.9-0.4,2-0.4,3.5v3.4h-2.5v-3.4c0-1.4-0.1-2.6-0.4-3.5
		c-0.3-1.2-0.9-2.2-1.7-3v9.9h-2.6V61.6H45c1.2,1,2,2.1,2.5,3.3c0.5-1.2,1.3-2.3,2.5-3.3h3.4V73.7z"/>
	<path class="st0" d="M63,73.7h-2.7v-3.8c-0.7,1.7-1.5,3-2.5,3.8h-2.5V61.6H58V70c1.1-0.9,1.8-2.6,2.1-5c0.1-0.7,0.1-1.8,0.1-3.4H63
		V73.7z"/>
	<path class="st0" d="M72.4,73.7h-2.7v-5.5h-2.2v5.5h-2.7V61.6h2.7v4.3h2.2v-4.3h2.7V73.7z"/>
	<path class="st0" d="M81.8,73.7h-2.6v-1.2c-0.9,0.9-1.7,1.4-2.4,1.4c-1.7,0-2.5-0.9-2.5-2.8v-1.8c0-0.6,0.1-1.2,0.3-1.6
		c0.3-0.7,1.1-1.3,2.3-1.8c0.5-0.2,1.2-0.5,2.2-0.8v-0.3c0-0.4-0.1-0.7-0.2-0.9c-0.1-0.2-0.4-0.3-0.8-0.3c-0.5,0-0.8,0.2-1,0.5
		C77,64.3,77,64.7,77,65.2h-2.4v-0.8c0-1.1,0.3-1.9,1-2.4c0.6-0.4,1.4-0.6,2.6-0.6c1.3,0,2.2,0.3,2.8,0.8c0.6,0.5,0.9,1.4,0.9,2.7
		V73.7z M79.1,70.4v-3.3c-0.6,0.3-1.1,0.6-1.3,0.8c-0.4,0.4-0.7,0.8-0.8,1.3c0,0.1,0,0.3,0,0.5v0.7c0,0.4,0.1,0.8,0.2,0.9
		c0.2,0.2,0.5,0.3,0.9,0.3c0.4,0,0.7-0.1,0.9-0.3C79,71.2,79.1,70.9,79.1,70.4z"/>
	<path class="st0" d="M91.4,69.8c0,1.4-0.1,2.4-0.3,2.8c-0.4,0.8-1.1,1.2-2.3,1.2c-0.5,0-0.9-0.1-1.3-0.4c-0.3-0.2-0.6-0.5-1-0.9
		v2.9h-2.7V61.6h2.5v1.2c0.5-0.5,0.9-0.8,1.2-1c0.4-0.2,0.9-0.4,1.5-0.4c1,0,1.7,0.4,2.1,1.2c0.3,0.5,0.4,1.4,0.4,2.5V69.8z
		 M88.6,70.4v-5.5c0-0.4-0.1-0.7-0.2-0.9c-0.1-0.2-0.4-0.4-0.9-0.4c-0.4,0-0.7,0.1-0.9,0.3c-0.1,0.2-0.2,0.5-0.2,1v5.5
		c0,0.5,0.1,0.8,0.2,0.9c0.1,0.2,0.4,0.3,0.9,0.3c0.4,0,0.7-0.1,0.9-0.3C88.6,71.1,88.6,70.8,88.6,70.4z"/>
	<path class="st0" d="M100.8,73.7H98v-3.8c-0.7,1.7-1.5,3-2.5,3.8h-2.5V61.6h2.7V70c1.1-0.9,1.8-2.6,2.1-5c0.1-0.7,0.1-1.8,0.1-3.4
		h2.7V73.7z"/>
	<path class="st0" d="M109.8,73.7h-2.8v-5.5c-0.4,0.1-0.7,0.1-1,0.1c-0.9,1.6-1.3,3.4-1.3,5.4H102c0-2.1,0.5-4.1,1.6-5.9
		c-0.4-0.3-0.8-0.7-1-1.2c-0.3-0.5-0.4-1-0.4-1.5c0-2.3,1.3-3.4,3.8-3.4h3.8V73.7z M107.2,66v-2.2h-0.9c-0.9,0-1.4,0.4-1.4,1.1
		c0,0.5,0.1,0.8,0.3,1s0.5,0.3,1,0.3C106.4,66.2,106.7,66.1,107.2,66z"/>
</g>
<g>
	<path class="st0" d="M218.9,41.1c0,3.4-1.3,5.1-3.9,5.1c-0.5,0-1,0-1.6-0.1V50h-2.9V36.2h3.9c1.7,0,2.9,0.4,3.6,1.3
		C218.5,38.2,218.9,39.4,218.9,41.1z M215.9,41.2c0-0.8-0.1-1.4-0.3-1.7c-0.3-0.5-0.8-0.7-1.5-0.7h-0.8v4.9c0.4,0.1,0.8,0.1,1.2,0.1
		c0.6,0,1-0.3,1.2-0.9C215.9,42.5,215.9,42,215.9,41.2z"/>
	<path class="st0" d="M227.7,46.3c0,1.4-0.3,2.5-0.8,3c-0.6,0.6-1.6,0.8-3,0.8c-1.4,0-2.4-0.3-3-0.8c-0.6-0.6-0.8-1.6-0.8-3v-4.7
		c0-1.4,0.3-2.4,0.8-3s1.6-0.9,3-0.9s2.4,0.3,3,0.8c0.6,0.6,0.8,1.6,0.8,3v2.7h-5v2.4c0,0.4,0.1,0.8,0.2,1s0.4,0.3,0.9,0.3
		c0.4,0,0.7-0.1,0.9-0.3c0.1-0.2,0.2-0.5,0.2-0.9v-1.1h2.7V46.3z M225,42.2v-0.9c0-0.5-0.1-0.8-0.2-1c-0.2-0.2-0.5-0.4-0.9-0.4
		c-0.5,0-0.8,0.1-0.9,0.4c-0.1,0.2-0.2,0.5-0.2,1v0.9H225z"/>
	<path class="st0" d="M241.6,46c0,1.4-0.1,2.3-0.3,2.8c-0.3,0.8-1.1,1.2-2.3,1.2c-0.5,0-0.9-0.1-1.2-0.3c-0.2-0.2-0.6-0.5-0.9-0.9v3
		h-2.7v-3c-0.4,0.4-0.7,0.7-0.9,0.9c-0.4,0.2-0.8,0.3-1.2,0.3c-1.2,0-1.9-0.4-2.3-1.2c-0.2-0.5-0.3-1.4-0.3-2.8v-4.5
		c0-1.1,0.1-1.9,0.4-2.5c0.4-0.8,1-1.1,2-1.1c0.5,0,0.9,0.1,1.3,0.3c0.3,0.1,0.6,0.4,1.1,0.8v-2.9h2.7v2.9c0.4-0.4,0.8-0.7,1.1-0.8
		c0.4-0.2,0.8-0.3,1.3-0.3c1,0,1.6,0.4,2,1.1c0.2,0.5,0.4,1.4,0.4,2.5V46z M234.1,46.7v-5.4c0-0.4-0.1-0.7-0.2-0.9
		c-0.1-0.2-0.4-0.3-0.8-0.3c-0.7,0-1,0.4-1,1.2v5.4c0,0.4,0.1,0.7,0.2,0.9c0.1,0.2,0.4,0.3,0.8,0.3c0.4,0,0.7-0.1,0.9-0.3
		C234,47.4,234.1,47.1,234.1,46.7z M238.8,46.7v-5.4c0-0.8-0.3-1.2-1-1.2c-0.4,0-0.7,0.1-0.8,0.3c-0.1,0.2-0.2,0.5-0.2,0.9v5.4
		c0,0.4,0.1,0.7,0.2,0.9c0.1,0.2,0.4,0.3,0.9,0.3c0.4,0,0.7-0.1,0.8-0.3C238.8,47.4,238.8,47.1,238.8,46.7z"/>
	<path class="st0" d="M250.8,46.3c0,1.4-0.3,2.4-0.8,3c-0.6,0.6-1.6,0.9-3,0.9c-1.4,0-2.4-0.3-3-0.8c-0.6-0.6-0.8-1.6-0.8-3v-4.7
		c0-1.4,0.3-2.4,0.8-3s1.6-0.9,3-0.9s2.4,0.3,3,0.9c0.6,0.6,0.8,1.6,0.8,3V46.3z M248,46.6v-5.3c0-0.4-0.1-0.7-0.2-0.9
		c-0.2-0.2-0.4-0.4-0.9-0.4c-0.4,0-0.7,0.1-0.9,0.3c-0.1,0.2-0.2,0.5-0.2,0.9v5.3c0,0.4,0.1,0.8,0.2,0.9c0.1,0.2,0.4,0.3,0.9,0.3
		c0.4,0,0.7-0.1,0.9-0.3C248,47.4,248,47.1,248,46.6z"/>
	<path class="st0" d="M260.3,46.1c0,1.4-0.1,2.4-0.3,2.8c-0.4,0.8-1.1,1.2-2.3,1.2c-0.5,0-0.9-0.1-1.3-0.4c-0.3-0.2-0.6-0.5-1-0.9
		v2.9h-2.7V37.9h2.5v1.2c0.5-0.5,0.9-0.8,1.2-1c0.4-0.2,0.9-0.4,1.5-0.4c1,0,1.7,0.4,2.1,1.2c0.3,0.5,0.4,1.4,0.4,2.5V46.1z
		 M257.5,46.7v-5.5c0-0.4-0.1-0.7-0.2-0.9c-0.1-0.2-0.4-0.4-0.9-0.4c-0.4,0-0.7,0.1-0.9,0.3c-0.1,0.2-0.2,0.5-0.2,1v5.5
		c0,0.5,0.1,0.8,0.2,0.9c0.1,0.2,0.4,0.3,0.9,0.3c0.4,0,0.7-0.1,0.9-0.3C257.4,47.5,257.5,47.2,257.5,46.7z"/>
	<path class="st0" d="M273.9,50h-2.6v-9.9c-0.8,0.9-1.4,1.9-1.7,3c-0.2,0.9-0.4,2-0.4,3.5V50h-2.5v-3.4c0-1.4-0.1-2.6-0.4-3.5
		c-0.3-1.2-0.9-2.2-1.7-3V50h-2.6V37.9h3.4c1.2,1,2,2.1,2.5,3.3c0.5-1.2,1.3-2.3,2.5-3.3h3.4V50z"/>
	<path class="st0" d="M283.3,50h-2.6v-1.2c-0.9,0.9-1.7,1.4-2.4,1.4c-1.7,0-2.5-0.9-2.5-2.8v-1.8c0-0.6,0.1-1.2,0.3-1.6
		c0.3-0.7,1.1-1.3,2.3-1.8c0.5-0.2,1.2-0.5,2.2-0.8v-0.3c0-0.4-0.1-0.7-0.2-0.9s-0.4-0.3-0.8-0.3c-0.5,0-0.8,0.2-1,0.5
		c-0.1,0.2-0.1,0.5-0.1,1.1h-2.4v-0.8c0-1.1,0.3-1.9,1-2.4c0.6-0.4,1.4-0.6,2.6-0.6c1.3,0,2.2,0.3,2.8,0.8c0.6,0.5,0.9,1.4,0.9,2.7
		V50z M280.6,46.7v-3.3c-0.6,0.3-1.1,0.6-1.3,0.8c-0.4,0.4-0.7,0.8-0.8,1.3c0,0.1,0,0.3,0,0.5v0.7c0,0.4,0.1,0.8,0.2,0.9
		c0.2,0.2,0.5,0.3,0.9,0.3c0.4,0,0.7-0.1,0.9-0.3C280.5,47.5,280.6,47.2,280.6,46.7z"/>
	<path class="st0" d="M291,40.2h-2V50h-2.7v-9.8h-2v-2.3h6.6V40.2z"/>
	<path class="st0" d="M298.6,46.3c0,1.4-0.3,2.5-0.8,3c-0.6,0.6-1.6,0.8-3,0.8c-1.4,0-2.4-0.3-3-0.8c-0.6-0.6-0.8-1.6-0.8-3v-4.7
		c0-1.4,0.3-2.4,0.8-3s1.6-0.9,3-0.9c1.7,0,2.9,0.4,3.4,1.3c0.3,0.6,0.5,1.8,0.5,3.7h-2.8v-1.6c0-0.4-0.1-0.7-0.2-0.9
		c-0.1-0.2-0.4-0.4-0.9-0.4c-0.4,0-0.7,0.1-0.9,0.3c-0.1,0.2-0.2,0.5-0.2,0.9v5.5c0,0.4,0.1,0.8,0.2,0.9c0.1,0.2,0.4,0.3,0.9,0.3
		c0.4,0,0.7-0.1,0.9-0.3c0.1-0.2,0.2-0.5,0.2-0.9v-1.6h2.8V46.3z"/>
	<path class="st0" d="M308,38.3c0,1.8-0.7,3.4-2.1,4.8c0.9,0.9,1.4,2,1.7,3.2c0.2,0.9,0.3,2.1,0.3,3.7h-2.7c0-1.3,0-2.2-0.1-2.9
		c-0.2-1.1-0.5-2-1-2.7c-0.3,0.2-0.6,0.4-1,0.6v5h-2.7V37.9h2.7v5.1c1.4-1.1,2.1-2.8,2.1-5.1h2.7c0,0,0,0.1,0,0.2
		C308,38.2,308,38.3,308,38.3z"/>
	<path class="st0" d="M317.1,50h-2.6v-1.2c-0.9,0.9-1.7,1.4-2.4,1.4c-1.7,0-2.5-0.9-2.5-2.8v-1.8c0-0.6,0.1-1.2,0.3-1.6
		c0.3-0.7,1.1-1.3,2.3-1.8c0.5-0.2,1.2-0.5,2.2-0.8v-0.3c0-0.4-0.1-0.7-0.2-0.9s-0.4-0.3-0.8-0.3c-0.5,0-0.8,0.2-1,0.5
		c-0.1,0.2-0.1,0.5-0.1,1.1h-2.4v-0.8c0-1.1,0.3-1.9,1-2.4c0.6-0.4,1.4-0.6,2.6-0.6c1.3,0,2.2,0.3,2.8,0.8c0.6,0.5,0.9,1.4,0.9,2.7
		V50z M314.4,46.7v-3.3c-0.6,0.3-1.1,0.6-1.3,0.8c-0.4,0.4-0.7,0.8-0.8,1.3c0,0.1,0,0.3,0,0.5v0.7c0,0.4,0.1,0.8,0.2,0.9
		c0.2,0.2,0.5,0.3,0.9,0.3c0.4,0,0.7-0.1,0.9-0.3C314.3,47.5,314.4,47.2,314.4,46.7z"/>
	<path class="st0" d="M326.4,50h-2.8v-5.5c-0.4,0.1-0.7,0.1-1,0.1c-0.9,1.6-1.3,3.4-1.3,5.4h-2.7c0-2.1,0.5-4.1,1.6-5.9
		c-0.4-0.3-0.8-0.7-1-1.2c-0.3-0.5-0.4-1-0.4-1.5c0-2.3,1.3-3.4,3.8-3.4h3.8V50z M323.7,42.4v-2.2h-0.9c-0.9,0-1.4,0.4-1.4,1.1
		c0,0.5,0.1,0.8,0.3,1s0.5,0.3,1,0.3C322.9,42.5,323.3,42.5,323.7,42.4z"/>
	<path class="st0" d="M218.4,62.7c0,2.3-0.2,4.3-0.5,5.8c-0.5,2.1-1.3,3.8-2.5,5.2h-5.3v-2.6h1.5c-1-2.2-1.5-5-1.5-8.4v-2.8h2.9
		c0,2.8,0,4.3,0,4.6c0.1,2,0.3,3.5,0.6,4.6c0.1,0.5,0.3,1,0.6,1.4c0.2-0.5,0.4-0.9,0.6-1.4c0.3-1.1,0.5-2.6,0.6-4.6
		c0-0.3,0-1.8,0-4.6h3V62.7z"/>
	<path class="st0" d="M227.8,62c0,1.8-0.7,3.4-2.1,4.8c0.9,0.9,1.4,2,1.7,3.2c0.2,0.9,0.3,2.1,0.3,3.7h-2.7c0-1.3,0-2.2-0.1-2.9
		c-0.2-1.1-0.5-2-1-2.7c-0.3,0.2-0.6,0.4-1,0.6v5h-2.7V61.6h2.7v5.1c1.4-1.1,2.1-2.8,2.1-5.1h2.7c0,0,0,0.1,0,0.2
		C227.8,61.9,227.8,62,227.8,62z"/>
	<path class="st0" d="M237.3,69.8c0,1.4-0.1,2.4-0.3,2.8c-0.4,0.8-1.1,1.2-2.3,1.2c-0.5,0-0.9-0.1-1.3-0.4c-0.3-0.2-0.6-0.5-1-0.9
		v2.9h-2.7V61.6h2.5v1.2c0.5-0.5,0.9-0.8,1.2-1c0.4-0.2,0.9-0.4,1.5-0.4c1,0,1.7,0.4,2.1,1.2c0.3,0.5,0.4,1.4,0.4,2.5V69.8z
		 M234.5,70.4v-5.5c0-0.4-0.1-0.7-0.2-0.9c-0.1-0.2-0.4-0.4-0.9-0.4c-0.4,0-0.7,0.1-0.9,0.3c-0.1,0.2-0.2,0.5-0.2,1v5.5
		c0,0.5,0.1,0.8,0.2,0.9c0.1,0.2,0.4,0.3,0.9,0.3c0.4,0,0.7-0.1,0.9-0.3C234.5,71.1,234.5,70.8,234.5,70.4z"/>
	<path class="st0" d="M246.4,73.7h-2.6v-1.2c-0.9,0.9-1.7,1.4-2.4,1.4c-1.7,0-2.5-0.9-2.5-2.8v-1.8c0-0.6,0.1-1.2,0.3-1.6
		c0.3-0.7,1.1-1.3,2.3-1.8c0.5-0.2,1.2-0.5,2.2-0.8v-0.3c0-0.4-0.1-0.7-0.2-0.9s-0.4-0.3-0.8-0.3c-0.5,0-0.8,0.2-1,0.5
		c-0.1,0.2-0.1,0.5-0.1,1.1h-2.4v-0.8c0-1.1,0.3-1.9,1-2.4c0.6-0.4,1.4-0.6,2.6-0.6c1.3,0,2.2,0.3,2.8,0.8c0.6,0.5,0.9,1.4,0.9,2.7
		V73.7z M243.7,70.4v-3.3c-0.6,0.3-1.1,0.6-1.3,0.8c-0.4,0.4-0.7,0.8-0.8,1.3c0,0.1,0,0.3,0,0.5v0.7c0,0.4,0.1,0.8,0.2,0.9
		c0.2,0.2,0.5,0.3,0.9,0.3c0.4,0,0.7-0.1,0.9-0.3C243.7,71.2,243.7,70.9,243.7,70.4z"/>
	<path class="st0" d="M255.9,73.7h-2.7v-3.8c-0.7,1.7-1.5,3-2.5,3.8h-2.5V61.6h2.7V70c1.1-0.9,1.8-2.6,2.1-5
		c0.1-0.7,0.1-1.8,0.1-3.4h2.7V73.7z"/>
	<path class="st0" d="M265.4,73.7h-2.7v-5.5h-2.2v5.5h-2.7V61.6h2.7v4.3h2.2v-4.3h2.7V73.7z"/>
	<path class="st0" d="M274.7,69.8c0,1.4-0.2,2.4-0.7,3c-0.5,0.6-1.4,0.9-2.8,0.9h-3.9V61.6h2.7V66c0.5-0.1,0.9-0.2,1.3-0.2
		c1.3,0,2.2,0.4,2.7,1.1C274.5,67.5,274.7,68.5,274.7,69.8z M272.1,69.8c0-0.6-0.1-1-0.2-1.2c-0.2-0.4-0.5-0.5-1-0.5
		c-0.3,0-0.6,0-0.9,0.1v3.3h0.6c0.6,0,1-0.1,1.2-0.4S272.1,70.4,272.1,69.8z M278.6,73.7h-2.7V61.6h2.7V73.7z"/>
</g>
<path id="XMLID_136_" class="st0" d="M182.2,77.8c0,0.3,0.1,0.7,0.2,0.9c-3.3-0.3-6.3-1.3-9-2.9c6.5-4.3,10.8-11.7,10.8-20.2
	c0-8.5-4.3-15.9-10.9-20.2c2.7-1.6,5.8-2.7,9.1-2.9c-0.1,0.3-0.2,0.6-0.2,0.9c0,1.1,0.9,2,2,2c1.7-0.1,2.6-1.9,7.9-4
	c-0.5,0-6.7,0-7.9,0c-4.4,0-8.6,1.2-12.1,3.3c-3.3-1.9-7-3-11-3.2v-1c0-5,1.7-9.6,4.6-13.4c0.8,0.5,2,0.5,2.9,0
	c0.5-0.3,1.5-0.9,1.5-1c-0.4-0.6-0.8-1.2-1.1-1.6c0-0.1-0.1-0.1-0.1-0.2c0.4,0.3,0.8,0.4,1.3,0.4c1.1,0,2-0.8,2-1.8
	c0-0.5,0-1.7,0-1.8v0V8.9c-5,2.9-8.8,7.2-11,12.2V7.5l3.3-3.3L160,0l-4.3,4.3l3.3,3.3v13.6c-2.2-5-6.1-9.3-11-12.2v2.2v0
	c0,0.1,0,1.3,0,1.8c0,1,0.9,1.8,2,1.8c0.5,0,0.9-0.2,1.3-0.4c0,0-0.1,0.1-0.1,0.2c-0.3,0.5-0.7,1-1.1,1.6c-0.1,0.1,1,0.7,1.5,1
	c0.8,0.5,2.1,0.5,2.9,0c2.9,3.8,4.6,8.5,4.6,13.4v1c-4,0.2-7.8,1.3-11,3.2c-3.6-2.1-7.7-3.3-12.1-3.3c-1.1,0-7.3,0-7.9,0
	c5.3,2.2,6.2,4,7.9,4c1.1,0,2-0.9,2-2c0-0.3-0.1-0.7-0.2-0.9c3.3,0.3,6.4,1.3,9.1,2.9c-6.6,4.3-10.9,11.8-10.9,20.2
	c0,8.4,4.3,15.8,10.8,20.2c-2.7,1.6-5.8,2.6-9,2.9c0.1-0.3,0.2-0.6,0.2-0.9c0-1.1-0.9-2-2-2c-1.7,0.1-2.6,1.9-7.9,4
	c0.5,0,6.7,0,7.9,0c4.4,0,8.5-1.2,12-3.2c3.3,1.9,7.1,3.1,11.1,3.2v12.6l-3.3,3.3l4.3,4.3l4.3-4.3l-3.3-3.3V79.8
	c4-0.2,7.8-1.3,11.1-3.2c3.5,2,7.7,3.2,12,3.2c1.1,0,7.3,0,7.9,0c-5.3-2.2-6.2-4-7.9-4C183.1,75.8,182.2,76.7,182.2,77.8z
	 M182.2,55.7c0,0.1,0,0.2,0,0.3c-1.5-2.6-4.3-4.4-7.5-4.4c-1.4,0-2.5,1.1-2.5,2.5c0,1.4,1.1,2.5,2.5,2.5c1.4,0,2.5-1.1,2.5-2.5
	c0-0.2,0-0.4-0.1-0.6c2.7,1,4.6,3.6,4.6,6.6c-1.3,6.1-5,11.3-10.2,14.5c-3.8-2.8-6.7-6.8-8.3-11.4l0.8-0.8l-0.5-0.5v-4.8l1-1h0v-4
	h0.8v-1.5h-2.5l1.2-1.2l-0.9-0.9c1.5-4.8,4.4-8.9,8.3-11.7C177.9,40.5,182.2,47.6,182.2,55.7z M170.1,35.9
	c-3.8,2.7-6.8,6.5-8.5,10.9l-0.6-0.6V33.5C164.3,33.7,167.4,34.5,170.1,35.9z M159,33.5v12.7l-0.6,0.6c-1.7-4.4-4.7-8.2-8.5-10.9
	C152.6,34.5,155.7,33.7,159,33.5z M138.3,60.1c0-3,1.9-5.6,4.6-6.6c0,0.2-0.1,0.4-0.1,0.6c0,1.4,1.1,2.5,2.5,2.5
	c1.4,0,2.5-1.1,2.5-2.5c0-1.4-1.1-2.5-2.5-2.5c-3.2,0-6,1.8-7.5,4.4c0-0.1,0-0.2,0-0.3c0-8.1,4.3-15.1,10.8-19
	c3.8,2.8,6.8,6.9,8.3,11.7l-0.9,0.9l1.2,1.2h-2.5V52h0.8v4l0,0l1,1v4.8l-0.5,0.5l0.8,0.8c-1.5,4.7-4.5,8.7-8.3,11.4
	C143.3,71.5,139.5,66.2,138.3,60.1z M149.8,75.3c3.7-2.7,6.7-6.4,8.5-10.7l0.7,0.7v12.4C155.7,77.7,152.6,76.8,149.8,75.3z
	 M161,77.8V65.4l0.7-0.7c1.7,4.3,4.7,8,8.5,10.7C167.4,76.8,164.3,77.7,161,77.8z"/>
</svg>
